SplineFontDB: 3.2
FontName: Vazir-Black
FullName: Vazir Black
FamilyName: Vazir Black
Weight: Black
Copyright: Copyright (c) 2003 by Bitstream, Inc. All Rights Reserved.\nDejaVu changes are in public domain\nChanges by Saber Rastikerdar are in public domain.
Version: 26.0.2
ItalicAngle: 0
UnderlinePosition: -500
UnderlineWidth: 100
Ascent: 1638
Descent: 410
InvalidEm: 0
LayerCount: 2
Layer: 0 0 "Back" 1
Layer: 1 0 "Fore" 0
PreferredKerning: 4
XUID: [1021 502 1027637223 6247616]
UniqueID: 4238440
UseUniqueID: 1
FSType: 0
OS2Version: 1
OS2_WeightWidthSlopeOnly: 0
OS2_UseTypoMetrics: 1
CreationTime: 1431850356
ModificationTime: 1603708459
PfmFamily: 33
TTFWeight: 900
TTFWidth: 5
LineGap: 0
VLineGap: 0
Panose: 2 11 6 3 3 8 4 2 2 4
OS2TypoAscent: 2100
OS2TypoAOffset: 0
OS2TypoDescent: -1100
OS2TypoDOffset: 0
OS2TypoLinegap: 0
OS2WinAscent: 2100
OS2WinAOffset: 0
OS2WinDescent: 1100
OS2WinDOffset: 0
HheadAscent: 2100
HheadAOffset: 0
HheadDescent: -1100
HheadDOffset: 0
OS2SubXSize: 1331
OS2SubYSize: 1433
OS2SubXOff: 0
OS2SubYOff: 286
OS2SupXSize: 1331
OS2SupYSize: 1433
OS2SupXOff: 0
OS2SupYOff: 983
OS2StrikeYSize: 102
OS2StrikeYPos: 530
OS2CapHeight: 1638
OS2XHeight: 1082
OS2Vendor: '    '
OS2CodePages: 00000041.20080000
OS2UnicodeRanges: 80002003.80000000.00000008.00000000
Lookup: 1 9 0 "Single Substitution 0" { "Single Substitution 0 subtable"  } []
Lookup: 1 9 0 "'fina' Terminal Forms in Arabic lookup 1" { "'fina' Terminal Forms in Arabic lookup 1 subtable"  } ['fina' ('DFLT' <'dflt' > 'arab' <'FAR ' 'KUR ' 'URD ' 'dflt' > ) ]
Lookup: 1 9 0 "'medi' Medial Forms in Arabic lookup 2" { "'medi' Medial Forms in Arabic lookup 2 subtable"  } ['medi' ('DFLT' <'dflt' > 'arab' <'FAR ' 'KUR ' 'URD ' 'dflt' > ) ]
Lookup: 1 9 0 "'init' Initial Forms in Arabic lookup 3" { "'init' Initial Forms in Arabic lookup 3 subtable"  } ['init' ('DFLT' <'dflt' > 'arab' <'FAR ' 'KUR ' 'URD ' 'dflt' > ) ]

StartChar: exclam
Encoding: 1 33 1
GlifName: exclam
Width: 632
VWidth: 2762
GlyphClass: 2
Flags: HW
LayerCount: 2
Fore
SplineSet
123 194 m 0
 123 299.845703125 209.120117188 388 316 388 c 0
 422.876953125 388 509 299.840820312 509 194 c 0
 509 87.7255859375 422.276367188 1 316 1 c 0
 209.854492188 1 123 84.884765625 123 194 c 0
221 1356 m 5
 415 1356 l 5
 476.610351562 1356 l 5
 458.431640625 492 l 1
 400 492 l 1
 237 492 l 1
 178.629882812 492 l 1
 159.32421875 1356 l 5
 221 1356 l 5
EndSplineSet
EndChar

StartChar: period
Encoding: 2 46 2
GlifName: period
Width: 632
VWidth: 2762
GlyphClass: 2
Flags: HW
LayerCount: 2
Fore
SplineSet
123 194 m 0
 123 299.845703125 209.120117188 388 316 388 c 0
 422.876953125 388 509 299.840820312 509 194 c 0
 509 87.7255859375 422.276367188 1 316 1 c 0
 209.854492188 1 123 84.884765625 123 194 c 0
EndSplineSet
EndChar

StartChar: colon
Encoding: 3 58 3
GlifName: colon
Width: 632
VWidth: 2762
GlyphClass: 2
Flags: HW
LayerCount: 2
Fore
SplineSet
123 814 m 0
 123 919.845703125 209.120117188 1008 316 1008 c 0
 422.876953125 1008 509 919.840820312 509 814 c 0
 509 707.725585938 422.276367188 621 316 621 c 0
 209.854492188 621 123 704.884765625 123 814 c 0
123 194 m 0
 123 299.845703125 209.120117188 388 316 388 c 0
 422.876953125 388 509 299.840820312 509 194 c 0
 509 87.7255859375 422.276367188 1 316 1 c 0
 209.854492188 1 123 84.884765625 123 194 c 0
EndSplineSet
EndChar

StartChar: uni060C
Encoding: 7 1548 5
GlifName: afii57388
Width: 669
VWidth: 2770
GlyphClass: 2
Flags: HW
LayerCount: 2
Fore
SplineSet
543.486328125 588.71875 m 2
 463.9375 515.98828125 420.186523438 460.545898438 406.00390625 390.259765625 c 1
 502.0703125 367.565429688 536 285.857421875 536 203 c 0
 536 90.0712890625 462.454101562 1 341 1 c 4
 192.56640625 1 123 108.462890625 123 235 c 0
 123 450.69140625 236.5859375 618.948242188 392.276367188 739.448242188 c 2
 429.549804688 768.297851562 l 1
 466.404296875 738.9140625 l 1
 540.404296875 679.9140625 l 1
 595.33203125 636.120117188 l 1
 543.486328125 588.71875 l 2
EndSplineSet
EndChar

StartChar: uni0615
Encoding: 12 1557 6
GlifName: uni0615
Width: 0
VWidth: 2712
GlyphClass: 4
Flags: HW
AnchorPoint: "Anchor-10" 438.449 1190.96 mark 0
AnchorPoint: "Anchor-9" 438.449 1190.96 mark 0
AnchorPoint: "Anchor-1" 436.616 1958.36 basemark 0
AnchorPoint: "Anchor-1" 438.449 1190.96 mark 0
LayerCount: 2
Fore
SplineSet
400.466216602 1375 m 2
 583.166961933 1375 663.5 1413.95051429 663.5 1481 c 0
 663.5 1530.20438068 628.666905847 1567 576 1567 c 0
 508.110826491 1567 429.411805947 1501.71533775 345.051015885 1374.62557297 c 1
 400.466216602 1375 l 2
230.421485102 1374 m 1
 241.524275988 1391.91830645 252.727979925 1409.4418346 262.5 1424.89502702 c 1
 262.5 1897 l 1
 262.5 1907 l 1
 272.5 1907 l 1
 357 1907 l 1
 367 1907 l 1
 367 1897 l 1
 367 1569.1963788 l 1
 430.100673502 1639.6936847 497.039828156 1677.5 571.5 1677.5 c 0
 689.989342781 1677.5 772.5 1596.09985837 772.5 1484.96441326 c 0
 771.437998998 1335.75327245 642.695336826 1264 402.5 1264 c 2
 125 1264 l 1
 115 1264 l 1
 115 1274 l 1
 115 1364 l 1
 115 1374 l 1
 125 1374 l 1
 230.421485102 1374 l 1
EndSplineSet
EndChar

StartChar: uni061B
Encoding: 13 1563 7
GlifName: uni061B_
Width: 669
VWidth: 2770
GlyphClass: 2
Flags: HW
LayerCount: 2
Fore
SplineSet
151 194 m 0
 151 299.845703125 237.120117188 388 344 388 c 0
 450.876953125 388 537 299.840820312 537 194 c 0
 537 87.7255859375 450.276367188 1 344 1 c 0
 237.854492188 1 151 84.884765625 151 194 c 0
543.3828125 1080.62402344 m 6
 463.630859375 1008.04980469 420.182617188 953.079101562 405.948242188 882.2109375 c 5
 502.211914062 859.181640625 536 777.6328125 536 695 c 4
 536 582.071289062 462.454101562 493 341 493 c 4
 192.56640625 493 123 600.462890625 123 727 c 4
 123 942.69140625 236.5859375 1110.94824219 392.276367188 1231.44824219 c 6
 429.549804688 1260.29785156 l 5
 466.404296875 1230.9140625 l 5
 540.404296875 1171.9140625 l 5
 595.461914062 1128.01660156 l 5
 543.3828125 1080.62402344 l 6
EndSplineSet
EndChar

StartChar: uni061F
Encoding: 14 1567 8
GlifName: uni061F_
Width: 924
VWidth: 2762
GlyphClass: 2
Flags: HW
LayerCount: 2
Fore
SplineSet
332 194 m 0
 332 299.845703125 418.120117188 388 525 388 c 0
 631.876953125 388 718 299.840820312 718 194 c 0
 718 87.7255859375 631.276367188 1 525 1 c 0
 418.854492188 1 332 84.884765625 332 194 c 0
39 951 m 4
 39 1200.80371094 256.203125 1366 469 1366 c 4
 753.68359375 1366 884.918945312 1194.29980469 886 911.229492188 c 6
 886.229492188 901 l 5
 826 901 l 5
 670 901 l 5
 610.436523438 901 l 5
 610.001953125 910.5625 l 6
 609.1328125 1029.6015625 581.401367188 1066 480 1066 c 4
 384.743164062 1066 340 1024.38769531 340 942 c 4
 340 831.638671875 669.639648438 848.62890625 678.240234375 492 c 1
 618 492 l 1
 433 492 l 1
 373.29296875 492 l 1
 364.688476562 768.0546875 39 594.806640625 39 951 c 4
EndSplineSet
EndChar

StartChar: uni0621
Encoding: 15 1569 9
GlifName: uni0621
Width: 830
VWidth: 2950
GlyphClass: 2
Flags: HW
AnchorPoint: "Anchor-7" 445.326 -45.6465 basechar 0
AnchorPoint: "Anchor-10" 401.848 1059.06 basechar 0
LayerCount: 2
Fore
SplineSet
460.846679688 386.106445312 m 1
 538.1015625 403.696289062 616.538085938 421.072265625 692.611328125 438.487304688 c 2
 755.493164062 452.881835938 l 1
 765.302734375 389.123046875 l 1
 791.302734375 220.123046875 l 1
 800.694335938 159.07421875 l 1
 739.3984375 151.458007812 l 2
 582.7734375 131.995117188 377.297851562 54.447265625 126.803710938 -82.6337890625 c 2
 38 -131.231445312 l 1
 38 -30 l 1
 38 143 l 1
 38 174.493164062 l 1
 63.919921875 192.381835938 l 2
 100.637695312 217.721679688 136.859375 239.852539062 170.12109375 257.647460938 c 1
 97.9560546875 319.115234375 58 398.736328125 58 494 c 0
 58 730.064453125 223.568359375 888 443 888 c 0
 547.793945312 888 639.079101562 851.587890625 710.068359375 781.78125 c 2
 738.814453125 753.514648438 l 1
 723.506835938 716.217773438 l 1
 668.506835938 582.217773438 l 1
 640.067382812 512.9296875 l 1
 578.654296875 555.802734375 l 2
 532.399414062 588.09375 494.002929688 601 456 601 c 0
 376.466796875 601 340 565.803710938 340 495 c 0
 340 475.381835938 362.629882812 434.260742188 460.846679688 386.106445312 c 1
EndSplineSet
Position2: "Single Positioning lookup 2 subtable" dx=0 dy=0 dh=-178 dv=0
Position2: "Single Positioning lookup 1 subtable" dx=0 dy=0 dh=-120 dv=0
EndChar

StartChar: uni0627
Encoding: 21 1575 15
GlifName: uni0627
Width: 465
VWidth: 2950
GlyphClass: 2
Flags: HW
AnchorPoint: "Anchor-10" 224.871 1495.46 basechar 0
AnchorPoint: "Anchor-7" 228.587 -178.365 basechar 0
LayerCount: 2
Fore
SplineSet
148 1366 m 5
 317 1366 l 5
 377 1366 l 5
 377 1306 l 5
 377 61 l 1
 377 1 l 1
 317 1 l 1
 148 1 l 1
 88 1 l 1
 88 61 l 1
 88 1306 l 5
 88 1366 l 5
 148 1366 l 5
EndSplineSet
Position2: "Single Positioning lookup 2 subtable" dx=0 dy=0 dh=-143 dv=0
Position2: "Single Positioning lookup 1 subtable" dx=0 dy=0 dh=-127 dv=0
Position2: "Single Positioning lookup 0 subtable" dx=0 dy=0 dh=130 dv=0
Substitution2: "'fina' Terminal Forms in Arabic lookup 1 subtable" uniFE8E
EndChar

StartChar: uni062D
Encoding: 27 1581 21
GlifName: uni062D_
Width: 1347
VWidth: 2950
GlyphClass: 2
Flags: HW
AnchorPoint: "Anchor-7" 690.833 -770.619 basechar 0
AnchorPoint: "Anchor-10" 601.478 1236.07 basechar 0
LayerCount: 2
Fore
SplineSet
650.345703125 620.1640625 m 1
 556.193359375 657.40625 494.296875 676 477 676 c 0
 427.033203125 676 364.895507812 639.41015625 323.57421875 585.438476562 c 2
 296.506835938 550.3515625 l 1
 266.421875 511.353515625 l 1
 222.309570312 533.263671875 l 1
 71.3095703125 608.263671875 l 1
 14.1171875 636.669921875 l 1
 46.029296875 691.983398438 l 1
 61.4296875 718.678710938 l 1
 154.267578125 870.092773438 301.62109375 974 478 974 c 0
 580.040039062 974 687.170898438 929.958007812 807.204101562 871.975585938 c 0
 1012.61816406 771.749023438 1129.59277344 733.215820312 1231.12597656 727.918945312 c 2
 1292.51269531 724.715820312 l 1
 1287.82519531 663.424804688 l 1
 1274.82519531 493.424804688 l 1
 1270.91699219 442.31640625 l 1
 1219.82519531 438.194335938 l 2
 687.260742188 395.229492188 325 166.234375 325 -75 c 0
 325 -278.063476562 454.389648438 -386 798 -386 c 4
 962.560213575 -386 1085.43261719 -344.145507812 1222 -280 c 5
 1237.35449219 -354.580078125 l 5
 1272.35449219 -524.580078125 l 5
 1281.82519531 -570.580078125 l 5
 1127.49609375 -644.290039062 991.703285428 -677 784 -677 c 4
 365.416992188 -677 39 -496.990234375 39 -91 c 0
 39 224.067382812 261.075195312 486.440429688 650.345703125 620.1640625 c 1
EndSplineSet
Substitution2: "'fina' Terminal Forms in Arabic lookup 1 subtable" uniFEA2
Substitution2: "'medi' Medial Forms in Arabic lookup 2 subtable" uniFEA4
Substitution2: "'init' Initial Forms in Arabic lookup 3 subtable" uniFEA3
EndChar

StartChar: uni062F
Encoding: 29 1583 23
GlifName: uni062F_
Width: 963
VWidth: 2950
GlyphClass: 2
Flags: HW
AnchorPoint: "Anchor-10" 371.137 1229.03 basechar 0
AnchorPoint: "Anchor-7" 432.24 -181.316 basechar 0
LayerCount: 2
Fore
SplineSet
109.901367188 325.807617188 m 2
 191.426757812 309.30859375 259.713867188 301 317 301 c 0
 567.900390625 301 629 360.91015625 629 424 c 0
 629 508.7578125 516.451171875 651.961914062 243.016601562 824.235351562 c 2
 191.087890625 856.952148438 l 1
 224.973632812 908.125976562 l 1
 322.973632812 1056.12597656 l 1
 354.6015625 1103.890625 l 1
 403.77734375 1074.50488281 l 2
 735.884765625 876.049804688 925 664.340820312 925 427 c 0
 925 139.387695312 698.8046875 2 330 2 c 0
 241.711914062 2 159.54296875 11.4501953125 85.4287109375 27.33203125 c 2
 38 37.4951171875 l 1
 38 86 l 1
 38 267 l 1
 38 340.359375 l 1
 109.901367188 325.807617188 l 2
EndSplineSet
Position2: "Single Positioning lookup 2 subtable" dx=0 dy=0 dh=-178 dv=0
Position2: "Single Positioning lookup 1 subtable" dx=0 dy=0 dh=-173 dv=0
Substitution2: "'fina' Terminal Forms in Arabic lookup 1 subtable" uniFEAA
EndChar

StartChar: uni0631
Encoding: 31 1585 25
GlifName: uni0631
Width: 780
VWidth: 2142
GlyphClass: 2
Flags: HW
AnchorPoint: "Anchor-10" 493.256 908.2 basechar 0
AnchorPoint: "Anchor-7" 322.969 -579.998 basechar 0
LayerCount: 2
Fore
SplineSet
655.651367188 609.426757812 m 2
 712.502929688 468.350585938 742 318.447265625 742 195 c 0
 742 -198.573242188 500.705078125 -443.428710938 61.201171875 -526.9453125 c 2
 12.2001953125 -536.256835938 l 1
 -5.90625 -489.782226562 l 1
 -65.90625 -335.782226562 l 1
 -92.1181640625 -268.504882812 l 1
 -21.1796875 -255.05078125 l 2
 312.245117188 -191.815429688 452.930664062 -44.25 455 190.215820312 c 0
 454.868164062 271.577148438 430.631835938 392.939453125 382.780273438 505.53125 c 2
 357.908203125 564.0546875 l 1
 417.775390625 585.48828125 l 1
 579.775390625 643.48828125 l 1
 634.088867188 662.93359375 l 1
 655.651367188 609.426757812 l 2
EndSplineSet
Position2: "Single Positioning lookup 2 subtable" dx=0 dy=0 dh=-30 dv=0
Position2: "Single Positioning lookup 1 subtable" dx=0 dy=0 dh=-30 dv=0
Substitution2: "'fina' Terminal Forms in Arabic lookup 1 subtable" uniFEAE
EndChar

StartChar: uni0633
Encoding: 33 1587 27
GlifName: uni0633
Width: 2456
GlyphClass: 2
Flags: HW
AnchorPoint: "Anchor-10" 1749.53 1008.1 basechar 0
AnchorPoint: "Anchor-7" 710.902 -656.086 basechar 0
LayerCount: 2
Fore
SplineSet
1531 0 m 0
 1482 0 1435 7 1396 21 c 1
 1377 -137 1317 -265 1213 -358 c 0
 1090 -468 923 -520 721 -520 c 0
 281 -520 38 -300 38 116 c 0
 38 265 70 416 133 568 c 2
 155 623 l 1
 211 601 l 1
 366 538 l 1
 420 516 l 1
 399 461 l 2
 352 338 330 224 330 121 c 0
 330 -117 446 -227 728 -227 c 0
 999 -227 1116 -110 1117 160 c 0
 1117 270 1090 384 1033 503 c 2
 1004 564 l 1
 1068 586 l 1
 1237 644 l 1
 1294 664 l 1
 1313 605 l 1
 1372 422 l 2
 1401 333 1441 301 1533 300 c 0
 1630 300 1658 333 1658 449 c 0
 1658 477 1655 536 1648 622 c 2
 1644 680 l 1
 1701 687 l 1
 1866 707 l 1
 1928 714 l 1
 1933 651 l 1
 1949 425 l 2
 1955 337 1985 300 2047 300 c 0
 2088 300 2126 322 2126 462 c 0
 2126 525 2112 609 2084 710 c 2
 2068 768 l 1
 2126 784 l 1
 2294 829 l 1
 2350 844 l 1
 2367 789 l 2
 2401 682 2418 578 2418 477 c 0
 2418 239 2325 1 2048 0 c 0
 1947 0 1861 34 1800 104 c 1
 1727 35 1634 0 1531 0 c 0
EndSplineSet
Position2: "Single Positioning lookup 2 subtable" dx=0 dy=0 dh=-178 dv=0
Position2: "Single Positioning lookup 1 subtable" dx=0 dy=0 dh=-173 dv=0
Substitution2: "'fina' Terminal Forms in Arabic lookup 1 subtable" uniFEB2
Substitution2: "'medi' Medial Forms in Arabic lookup 2 subtable" uniFEB4
Substitution2: "'init' Initial Forms in Arabic lookup 3 subtable" uniFEB3
EndChar

StartChar: uni0635
Encoding: 35 1589 29
GlifName: uni0635
Width: 2575
VWidth: 2950
GlyphClass: 2
Flags: HW
AnchorPoint: "Anchor-7" 710.902 -656.086 basechar 0
AnchorPoint: "Anchor-10" 2052.53 1188.1 basechar 0
LayerCount: 2
Fore
SplineSet
1752.796875 301 m 2
 2125.00097656 301 2239 382.70703125 2239 473 c 0
 2239 550.2265625 2187.99121094 605 2104 605 c 0
 2003.28320312 605 1870.15625 512.7109375 1718.51660156 300.768554688 c 1
 1752.796875 301 l 2
1117 160.100585938 m 0
 1117 272.676757812 1088.69726562 386.73046875 1032.90136719 503.05078125 c 2
 1003.73339844 563.858398438 l 1
 1067.5234375 585.750976562 l 1
 1236.5234375 643.750976562 l 1
 1294.34667969 663.595703125 l 1
 1313.10546875 605.411132812 l 1
 1372.07910156 422.493164062 l 2
 1381.71875 392.883789062 1392.03808594 369.703125 1400.73925781 354.977539062 c 1
 1619.29101562 709.036132812 1845.21777344 907 2098 907 c 0
 2347.85644531 907 2537 721.879882812 2537 481.893554688 c 0
 2535.81347656 148.583007812 2241.03710938 0 1757 0 c 2
 1706 0 l 2
 1579.0078125 0 1476.42382812 11.14453125 1397.2421875 33.060546875 c 1
 1358.91210938 -334.838867188 1090.90625 -520 721 -520 c 0
 280.41015625 -520 38 -299.8203125 38 116 c 0
 38 264.638671875 69.9482421875 415.587890625 132.50390625 567.806640625 c 2
 155.22265625 623.088867188 l 1
 210.591796875 600.583984375 l 1
 365.591796875 537.583984375 l 1
 419.8203125 515.54296875 l 1
 399.125 460.787109375 l 2
 353.048828125 338.876953125 330 227.215820312 330 121 c 0
 330 -117.349609375 445.8359375 -227 728 -227 c 0
 996.915039062 -227 1116.09570312 -109.502929688 1117 160.100585938 c 0
EndSplineSet
Position2: "Single Positioning lookup 2 subtable" dx=0 dy=0 dh=-178 dv=0
Position2: "Single Positioning lookup 1 subtable" dx=0 dy=0 dh=-173 dv=0
Substitution2: "'fina' Terminal Forms in Arabic lookup 1 subtable" uniFEBA
Substitution2: "'medi' Medial Forms in Arabic lookup 2 subtable" uniFEBC
Substitution2: "'init' Initial Forms in Arabic lookup 3 subtable" uniFEBB
EndChar

StartChar: uni0637
Encoding: 37 1591 31
GlifName: uni0637
Width: 1471
VWidth: 2950
GlyphClass: 2
Flags: HW
AnchorPoint: "Anchor-10" 476.36 1498.58 basechar 0
AnchorPoint: "Anchor-7" 636.602 -178.453 basechar 0
LayerCount: 2
Fore
SplineSet
648.796875 302 m 2
 1021.00097656 302 1135 383.70703125 1135 474 c 0
 1135 551.2265625 1083.99121094 606 1000 606 c 0
 899.283203125 606 766.15625 513.7109375 614.516601562 301.768554688 c 1
 648.796875 302 l 2
286.62890625 300 m 1
 303.125976562 326.35546875 318.263671875 350.123046875 333 373.385742188 c 1
 333 1306 l 5
 333 1366 l 5
 393 1366 l 5
 562 1366 l 5
 622 1366 l 5
 622 1306 l 5
 622 747.907226562 l 1
 733.25 849.299804688 856.491210938 907 991 907 c 0
 1247.93652344 907 1433 726.599609375 1433 481.786132812 c 0
 1430.62792969 148.51953125 1136.17382812 0 653 0 c 2
 98 0 l 1
 38 0 l 1
 38 60 l 1
 38 240 l 1
 38 300 l 1
 98 300 l 1
 286.62890625 300 l 1
EndSplineSet
Position2: "Single Positioning lookup 2 subtable" dx=0 dy=0 dh=-178 dv=0
Position2: "Single Positioning lookup 1 subtable" dx=0 dy=0 dh=-173 dv=0
Substitution2: "'fina' Terminal Forms in Arabic lookup 1 subtable" uniFEC2
Substitution2: "'medi' Medial Forms in Arabic lookup 2 subtable" uniFEC4
Substitution2: "'init' Initial Forms in Arabic lookup 3 subtable" uniFEC3
EndChar

StartChar: uni0639
Encoding: 39 1593 33
GlifName: uni0639
Width: 1306
VWidth: 3010
GlyphClass: 2
Flags: HW
AnchorPoint: "Anchor-7" 670.833 -770.619 basechar 0
AnchorPoint: "Anchor-10" 694.478 1424.07 basechar 0
LayerCount: 2
Fore
SplineSet
937.669921875 791.23046875 m 2
 843.1328125 846.616210938 768.002929688 871 715 871 c 0
 622.795898438 871 555 814.600585938 555 730 c 0
 555 667.440429688 579.61328125 636.112304688 629.72265625 574.079101562 c 1
 738.190429688 591.865234375 830.318359375 601 912 601 c 0
 976.583984375 601 1038.67089844 596.834960938 1099.0703125 590.692382812 c 2
 1160.72558594 584.421875 l 1
 1152.46484375 523.001953125 l 1
 1129.46484375 352.001953125 l 1
 1122.14257812 297.568359375 l 1
 1067.27539062 300.061523438 l 2
 1024.60351562 302.001953125 991.8984375 302 971 302 c 0
 502.157226562 302 324 145.822265625 324 -97 c 0
 324 -267.774414062 451.357421875 -382 766 -382 c 0
 921.884743057 -382 1047.54296875 -338.134765625 1182 -276 c 5
 1197.25683594 -350.104492188 l 5
 1232.25683594 -520.104492188 l 5
 1241.61035156 -565.5390625 l 5
 1089.84667969 -640.274414062 954.191490062 -674 755 -674 c 0
 373.872070312 -674 38 -494.213867188 38 -104 c 0
 38 116.288085938 130.4140625 339.018554688 346.075195312 465.6953125 c 1
 287.950195312 553.649414062 262 646.208984375 262 743 c 0
 262 972.416015625 470.151367188 1169 705 1169 c 0
 822.065429688 1169 944.274414062 1123.03613281 1067.86621094 1038.52929688 c 2
 1109.3984375 1010.13085938 l 1
 1088.67285156 964.28515625 l 1
 1022.67285156 818.28515625 l 1
 995.205078125 757.522460938 l 1
 937.669921875 791.23046875 l 2
EndSplineSet
Substitution2: "'fina' Terminal Forms in Arabic lookup 1 subtable" uniFECA
Substitution2: "'medi' Medial Forms in Arabic lookup 2 subtable" uniFECC
Substitution2: "'init' Initial Forms in Arabic lookup 3 subtable" uniFECB
EndChar

StartChar: uni0640
Encoding: 41 1600 35
GlifName: afii57440
Width: 286
VWidth: 2950
GlyphClass: 2
Flags: HW
AnchorPoint: "Anchor-10" 143.774 930.11 basechar 0
AnchorPoint: "Anchor-7" 147.7 -176.739 basechar 0
LayerCount: 2
Fore
SplineSet
-20 0 m 5
 -20 300 l 5
 306 300 l 1
 306 0 l 1
 -20 0 l 5
EndSplineSet
Position2: "Single Positioning lookup 2 subtable" dx=0 dy=0 dh=-178 dv=0
Position2: "Single Positioning lookup 1 subtable" dx=0 dy=0 dh=-173 dv=0
EndChar

StartChar: uni0643
Encoding: 44 1603 38
GlifName: uni0643
Width: 1831
VWidth: 2950
GlyphClass: 2
Flags: HW
AnchorPoint: "Anchor-10" 916.11 1300.05 basechar 0
AnchorPoint: "Anchor-7" 900.268 -166.468 basechar 0
LayerCount: 2
Fore
SplineSet
709.682617188 662.905273438 m 6
 772.1171875 655.856445312 795.083007812 652 839 652 c 4
 944.650390625 652 1010 654.338867188 1010 720 c 4
 1010 768.772460938 990.336914062 772.700195312 921.934570312 773 c 4
 826.796875 773.41796875 738 825.61328125 738 969 c 4
 738 1087.12792969 815.647460938 1175.578125 972.252929688 1175.578125 c 4
 1006.00488281 1175.578125 1043.40136719 1172.06445312 1084.61425781 1164.77050781 c 6
 1097 1162.578125 l 5
 1097 1150 l 5
 1097 1055 l 5
 1097 1037.76171875 l 5
 1079.92675781 1040.14355469 l 6
 1039.67675781 1045.76074219 1005.39550781 1048.39941406 976.748046875 1048.39941406 c 4
 884.850585938 1048.39941406 857 1013.77832031 857 978 c 4
 857 933.07421875 872.52734375 907.364257812 940.081054688 907 c 4
 1074.18164062 906.278320312 1128 848.525390625 1128 724 c 4
 1128 569.8671875 1030.63378906 524 846 524 c 4
 792.799804688 524 771.07421875 529.272460938 705.752929688 539.168945312 c 6
 693 541.1015625 l 5
 693 554 l 5
 693 648 l 5
 693 664.7890625 l 5
 709.682617188 662.905273438 l 6
978 300 m 2
 1449.66894531 300 1454 384 1454 530 c 6
 1454 1306 l 5
 1454 1366 l 5
 1514 1366 l 5
 1683 1366 l 5
 1743 1366 l 5
 1743 1306 l 5
 1743 532 l 6
 1743 176 1574.33300781 0 985 0 c 2
 840 0 l 2
 352.82421875 0 38 172.923828125 38 544 c 0
 38 642.030273438 60.0283203125 736.077148438 96.8876953125 821.719726562 c 2
 119.454101562 874.153320312 l 1
 172.946289062 854.224609375 l 1
 325.946289062 797.224609375 l 1
 382.29296875 776.233398438 l 1
 361.1796875 719.932617188 l 2
 342.565429688 670.294921875 333 619.234375 333 569.13671875 c 0
 333.76171875 401.45703125 466.166015625 300 830 300 c 2
 978 300 l 2
EndSplineSet
Position2: "Single Positioning lookup 2 subtable" dx=0 dy=0 dh=-143 dv=0
Position2: "Single Positioning lookup 1 subtable" dx=0 dy=0 dh=-104 dv=0
Position2: "Single Positioning lookup 0 subtable" dx=0 dy=0 dh=130 dv=0
Substitution2: "'fina' Terminal Forms in Arabic lookup 1 subtable" uniFEDA
Substitution2: "'medi' Medial Forms in Arabic lookup 2 subtable" uniFEDC
Substitution2: "'init' Initial Forms in Arabic lookup 3 subtable" uniFEDB
EndChar

StartChar: uni0644
Encoding: 45 1604 39
GlifName: uni0644
Width: 1377
VWidth: 2950
GlyphClass: 2
Flags: HW
AnchorPoint: "Anchor-7" 662.902 -648.086 basechar 0
AnchorPoint: "Anchor-10" 654.908 1065.66 basechar 0
LayerCount: 2
Fore
SplineSet
390.844726562 396.060546875 m 2
 348.551757812 288.404296875 329 203.01953125 329 96 c 0
 329 -127.970703125 430.53515625 -227 675 -227 c 0
 896.98046875 -227 997 -123 998 128.068359375 c 2
 1001 1306.13671875 l 5
 1001.13671875 1366 l 5
 1061 1366 l 5
 1229 1366 l 5
 1289.046875 1366 l 5
 1289 1305.953125 l 5
 1288 166.9765625 l 2
 1288 -275 1076.88671875 -520 674 -520 c 0
 263.401367188 -520 38 -304.80859375 38 97 c 0
 38 240.315429688 67.509765625 365.985351562 124.553710938 503.928710938 c 2
 147.34375 559.040039062 l 1
 202.591796875 536.583984375 l 1
 357.591796875 473.583984375 l 1
 412.528320312 451.254882812 l 1
 390.844726562 396.060546875 l 2
EndSplineSet
Position2: "Single Positioning lookup 2 subtable" dx=0 dy=0 dh=-60 dv=0
Position2: "Single Positioning lookup 1 subtable" dx=0 dy=0 dh=-58 dv=0
Position2: "Single Positioning lookup 0 subtable" dx=0 dy=0 dh=130 dv=0
Substitution2: "'fina' Terminal Forms in Arabic lookup 1 subtable" uniFEDE
Substitution2: "'medi' Medial Forms in Arabic lookup 2 subtable" uniFEE0
Substitution2: "'init' Initial Forms in Arabic lookup 3 subtable" uniFEDF
EndChar

StartChar: uni0645
Encoding: 46 1605 40
GlifName: uni0645
Width: 1230
VWidth: 2620
GlyphClass: 2
Flags: HW
AnchorPoint: "Anchor-10" 763.952 1080.2 basechar 0
AnchorPoint: "Anchor-7" 714.983 -278.909 basechar 0
LayerCount: 2
Fore
SplineSet
632.651367188 376.4375 m 5
 732.360351562 303.94921875 806.208007812 275.157226562 842.668945312 275.000976562 c 4
 890.438476562 275.798828125 905 285.021484375 905 355 c 4
 905 457.9296875 853.314453125 516 781 516 c 4
 729.168945312 516 679.033203125 482.100585938 632.651367188 376.4375 c 5
52.107421875 -598.583007812 m 2
 45.068359375 -480.934570312 41 -379.545898438 41 -273 c 0
 41 54.6484375 69.755859375 362.607421875 341.071289062 440.135742188 c 5
 442.356445312 679.609375 586.602539062 819.829101562 779.818359375 821 c 4
 1034.86816406 821 1192 606.182617188 1192 367 c 4
 1192 153.6875 1077.12890625 -23 843 -23 c 4
 758.247070312 -23 669.045898438 9.5654296875 568.145507812 67.529296875 c 4
 536.346679688 87.4033203125 506.018554688 103.407226562 468.512695312 122.666015625 c 4
 446.021484375 134.299804688 426.813476562 137.9375 419.266601562 137.999023438 c 4
 388.1796875 137.37890625 334 69.1484375 334 -245 c 0
 334 -374.483398438 338.926757812 -484.615234375 347.7890625 -589.970703125 c 2
 353.258789062 -655 l 1
 288 -655 l 1
 112 -655 l 1
 55.482421875 -655 l 1
 52.107421875 -598.583007812 l 2
EndSplineSet
Position2: "Single Positioning lookup 2 subtable" dx=0 dy=0 dh=-178 dv=0
Position2: "Single Positioning lookup 1 subtable" dx=0 dy=0 dh=-173 dv=0
Substitution2: "'init' Initial Forms in Arabic lookup 3 subtable" uniFEE3
Substitution2: "'medi' Medial Forms in Arabic lookup 2 subtable" uniFEE4
Substitution2: "'fina' Terminal Forms in Arabic lookup 1 subtable" uniFEE2
EndChar

StartChar: uni0647
Encoding: 48 1607 42
GlifName: uni0647
Width: 922
VWidth: 2950
GlyphClass: 2
Flags: HW
AnchorPoint: "Anchor-10" 409.775 1259.01 basechar 0
AnchorPoint: "Anchor-7" 445.63 -182.576 basechar 0
LayerCount: 2
Fore
SplineSet
448.946289062 615.353515625 m 1
 352.145507812 522.361328125 325 458.963867188 325 409 c 0
 325 334.057617188 352.478515625 300 460 300 c 0
 578.829101562 300 597 334.353515625 597 410 c 4
 597 459.71484375 562.814453125 517.080078125 448.946289062 615.353515625 c 1
404.448242188 1040.40917969 m 2
 716.478515625 811.921875 884 610.921875 884 404 c 0
 884 173.563476562 715.817382812 7.3623046875 461.396484375 4 c 0
 204.047851562 4 38 151.162109375 38 404 c 0
 38 549.538085938 102.771484375 682.102539062 229.673828125 819.28515625 c 1
 190.559570312 853.18359375 l 1
 223.911132812 897.881835938 l 1
 320.911132812 1027.88183594 l 1
 356.471679688 1075.54003906 l 1
 404.448242188 1040.40917969 l 2
EndSplineSet
Position2: "Single Positioning lookup 2 subtable" dx=0 dy=0 dh=-178 dv=0
Position2: "Single Positioning lookup 1 subtable" dx=0 dy=0 dh=-173 dv=0
Substitution2: "'fina' Terminal Forms in Arabic lookup 1 subtable" uniFEEA
Substitution2: "'medi' Medial Forms in Arabic lookup 2 subtable" uniFEEC
Substitution2: "'init' Initial Forms in Arabic lookup 3 subtable" uniFEEB
EndChar

StartChar: uni0648
Encoding: 49 1608 43
GlifName: uni0648
Width: 880
VWidth: 2142
GlyphClass: 2
Flags: HW
AnchorPoint: "Anchor-7" 415.969 -579.998 basechar 0
AnchorPoint: "Anchor-10" 430.256 1090.2 basechar 0
LayerCount: 2
Fore
SplineSet
523.766601562 2.2265625 m 1
 493.306640625 -0.6328125 473.622070312 -2 457 -2 c 0
 197.637695312 -2 38 119.1796875 38 356 c 0
 38 601.104492188 186.096679688 840 428 840 c 0
 730.006835938 840 842 507.247070312 842 226 c 0
 842 -174.075195312 611.026367188 -444.591796875 179.240234375 -526.9375 c 2
 130.212890625 -536.288085938 l 1
 112.09375 -489.782226562 l 1
 52.09375 -335.782226562 l 1
 25.79296875 -268.276367188 l 1
 97.0166015625 -255.013671875 l 2
 323.712890625 -212.801757812 458.131835938 -118.543945312 523.766601562 2.2265625 c 1
551.991210938 303.912109375 m 1
 531.684570312 489.700195312 477.545898438 535 420 535 c 0
 380.100585938 535 323 473.5859375 323 371 c 0
 323 323.108398438 341.6953125 292 458 292 c 0
 487.677734375 292 519.397460938 296.428710938 551.991210938 303.912109375 c 1
EndSplineSet
Position2: "Single Positioning lookup 2 subtable" dx=0 dy=0 dh=-30 dv=0
Position2: "Single Positioning lookup 1 subtable" dx=0 dy=0 dh=-30 dv=0
Substitution2: "'fina' Terminal Forms in Arabic lookup 1 subtable" uniFEEE
EndChar

StartChar: uni0649
Encoding: 50 1609 44
GlifName: uni0649
Width: 1477
VWidth: 2950
GlyphClass: 2
Flags: HW
AnchorPoint: "Anchor-7" 716.902 -616.086 basechar 0
AnchorPoint: "Anchor-10" 644.6 996.22 basechar 0
LayerCount: 2
Fore
SplineSet
957 336 m 0
 957 314.162109375 960.737304688 312 984 312 c 2
 1164.125 312 l 2
 1333.22460938 311.294921875 1439 202.791015625 1439 58 c 0
 1439 -306.479492188 1125.95117188 -499 719 -499 c 0
 280.178710938 -499 38 -278.584960938 38 139 c 0
 38 291.17578125 76.4150390625 445.884765625 150.750976562 621.399414062 c 2
 173.8125 675.849609375 l 1
 228.591796875 653.583984375 l 1
 383.591796875 590.583984375 l 1
 439.31640625 567.934570312 l 1
 416.52734375 512.267578125 l 2
 357.520507812 368.13671875 329 252.673828125 329 142 c 0
 329 -96.7900390625 444.487304688 -207.077148438 724.098632812 -208 c 0
 949.547228394 -208 1144.74958633 -108.355918737 1156.42486958 5.99999615753 c 0
 1157.63375347 17.8406530857 1138.22815929 16 1118 16 c 2
 974 16 l 2
 784.3515625 16 668 131.360351562 668 323 c 0
 668 631.220703125 922.291015625 826.53515625 1191.55859375 826.53515625 c 0
 1231.66992188 826.53515625 1311.12207031 825.365234375 1395.07714844 790.384765625 c 6
 1440.21191406 771.578125 l 5
 1430.90234375 723.576171875 l 5
 1398.90234375 558.576171875 l 5
 1386.15625 492.852539062 l 5
 1322.21582031 512.696289062 l 6
 1271.79589844 528.34375 1227.64257812 531.233398438 1191.96875 531.233398438 c 0
 1044.11621094 531.233398438 957 421.20703125 957 336 c 0
EndSplineSet
Position2: "Single Positioning lookup 2 subtable" dx=0 dy=0 dh=-60 dv=0
Position2: "Single Positioning lookup 1 subtable" dx=0 dy=0 dh=-58 dv=0
Substitution2: "'fina' Terminal Forms in Arabic lookup 1 subtable" uniFEF0
Substitution2: "'medi' Medial Forms in Arabic lookup 2 subtable" uniFBE9
Substitution2: "'init' Initial Forms in Arabic lookup 3 subtable" uniFBE8
EndChar

StartChar: uni064B
Encoding: 52 1611 46
GlifName: uni064B_
Width: 0
VWidth: 2316
GlyphClass: 4
Flags: HW
AnchorPoint: "Anchor-10" 583.551 1123.65 mark 0
AnchorPoint: "Anchor-9" 583.551 1123.65 mark 0
AnchorPoint: "Anchor-1" 553.285 1596.25 basemark 0
AnchorPoint: "Anchor-1" 583.551 1123.65 mark 0
LayerCount: 2
Fore
SplineSet
317 1076 m 1
 317 1180 l 1
 317 1186.71537562 l 1
 323.216048115 1189.25644144 l 1
 778.216048115 1375.25644144 l 1
 792 1380.89119979 l 1
 792 1366 l 1
 792 1263 l 1
 792 1256.29826689 l 1
 785.801362686 1253.75069507 l 1
 330.801362686 1066.75069507 l 1
 317 1061.07848667 l 1
 317 1076 l 1
317 1288 m 1
 317 1392 l 1
 317 1398.71537562 l 1
 323.216048115 1401.25644144 l 1
 778.216048115 1587.25644144 l 1
 792 1592.89119979 l 1
 792 1578 l 1
 792 1475 l 1
 792 1468.29826689 l 1
 785.801362686 1465.75069507 l 1
 330.801362686 1278.75069507 l 1
 317 1273.07848667 l 1
 317 1288 l 1
EndSplineSet
EndChar

StartChar: uni064C
Encoding: 53 1612 47
GlifName: uni064C_
Width: 0
VWidth: 2316
GlyphClass: 4
Flags: HW
AnchorPoint: "Anchor-10" 680.906 1278.67 mark 0
AnchorPoint: "Anchor-9" 680.906 1278.67 mark 0
AnchorPoint: "Anchor-1" 637.739 1852.46 basemark 0
AnchorPoint: "Anchor-1" 680.906 1278.67 mark 0
LayerCount: 2
Fore
SplineSet
479 1629 m 0
 479 1731.76552225 552.4963966 1801 652 1801 c 0
 752.064112453 1801 824 1732.53591765 824 1628 c 0
 824 1591.16085925 815.378868534 1552.27469286 801.031294994 1514.97279472 c 1
 814.093104284 1513.34371792 821.9010554 1513 830 1513 c 2
 840 1513 l 1
 840 1503 l 1
 840 1427 l 1
 840 1416.4875078 l 1
 829.500623831 1417.01247661 l 2
 810.968118627 1417.93910187 788.159123035 1419.87699272 760.066529146 1424.73856031 c 1
 695.878207041 1276.81129477 600.310607473 1200.99202128 471.867219481 1200.99202128 c 0
 330.66663381 1200.99202128 261.003704449 1332.71016738 258.001286898 1519.83957459 c 2
 257.864585442 1528.35966283 l 1
 266.255036765 1529.84657825 l 1
 345.255036765 1543.84657825 l 1
 356.754576749 1545.88447142 l 1
 356.997830567 1534.20828814 l 2
 360.015114991 1389.37863578 402.532459997 1299 473 1299 c 0
 539.4246915 1299 601.936332407 1346.48802742 658.376739308 1442.60817591 c 1
 557.781001019 1479.37677148 479 1530.42799523 479 1629 c 0
703.160444539 1534.93682037 m 1
 715.662442249 1565.48638565 726 1599.53496259 726 1627 c 0
 726 1669.85117324 693.892850854 1701 656 1701 c 0
 610.735108636 1701 579 1671.60733904 579 1625 c 0
 579 1579.55048991 639.93500653 1552.41557778 703.160444539 1534.93682037 c 1
EndSplineSet
EndChar

StartChar: uni064D
Encoding: 54 1613 48
GlifName: uni064D_
Width: 0
VWidth: 2316
GlyphClass: 4
Flags: HW
AnchorPoint: "Anchor-7" 542.278 32.7109 mark 0
AnchorPoint: "Anchor-6" 542.278 32.7109 mark 0
AnchorPoint: "Anchor-0" 592.022 -407.025 basemark 0
AnchorPoint: "Anchor-0" 542.278 32.7109 mark 0
LayerCount: 2
Fore
SplineSet
322 -446 m 1
 322 -342 l 1
 322 -335.279048682 l 1
 328.223161451 -332.74065388 l 1
 784.223161451 -146.74065388 l 1
 798 -141.121153945 l 1
 798 -156 l 1
 798 -260 l 1
 798 -266.720951318 l 1
 791.776838549 -269.25934612 l 1
 335.776838549 -455.25934612 l 1
 322 -460.878846055 l 1
 322 -446 l 1
322 -234 m 1
 322 -130 l 1
 322 -123.279048682 l 1
 328.223161451 -120.74065388 l 1
 784.223161451 65.2593461202 l 1
 798 70.8788460547 l 1
 798 56 l 1
 798 -48 l 1
 798 -54.7209513179 l 1
 791.776838549 -57.2593461202 l 1
 335.776838549 -243.25934612 l 1
 322 -248.878846055 l 1
 322 -234 l 1
EndSplineSet
EndChar

StartChar: uni064E
Encoding: 55 1614 49
GlifName: uni064E_
Width: 0
VWidth: 2316
GlyphClass: 4
Flags: HW
AnchorPoint: "Anchor-10" 545.66 1397.63 mark 0
AnchorPoint: "Anchor-9" 545.66 1397.63 mark 0
AnchorPoint: "Anchor-1" 541.396 1651.77 basemark 0
AnchorPoint: "Anchor-1" 545.66 1397.63 mark 0
LayerCount: 2
Fore
SplineSet
286 1349 m 1
 286 1453 l 1
 286 1459.72095132 l 1
 292.223161451 1462.25934612 l 1
 748.223161451 1648.25934612 l 1
 762 1653.87884605 l 1
 762 1639 l 1
 762 1535 l 1
 762 1528.27904868 l 1
 755.776838549 1525.74065388 l 1
 299.776838549 1339.74065388 l 1
 286 1334.12115395 l 1
 286 1349 l 1
EndSplineSet
EndChar

StartChar: uni064F
Encoding: 56 1615 50
GlifName: uni064F_
Width: 0
VWidth: 2316
GlyphClass: 4
Flags: HW
AnchorPoint: "Anchor-10" 591.295 1339.37 mark 0
AnchorPoint: "Anchor-9" 591.295 1339.37 mark 0
AnchorPoint: "Anchor-1" 542.134 1865.4 basemark 0
AnchorPoint: "Anchor-1" 591.295 1339.37 mark 0
LayerCount: 2
Fore
SplineSet
723 1417 m 2
 696.666837557 1417 671.937467485 1418.7957588 647.498113631 1422.22464867 c 1
 577.859395263 1330.06026607 442.897382505 1281.92444382 280.547955996 1273.01502407 c 2
 270 1272.43617283 l 1
 270 1283 l 1
 270 1361 l 1
 270 1370.12583742 l 1
 279.087788707 1370.95830661 l 2
 397.254419707 1381.78273082 495.379931622 1409.64936646 545.019034393 1449.2711834 c 1
 457.454137187 1470.97352841 370 1531.75309273 370 1626 c 0
 370 1729.20445185 443.731478569 1798 543 1798 c 0
 642.596896992 1798 716 1728.67335246 716 1625 c 0
 716 1588.31930976 707.86260554 1550.64768392 693.984631457 1514.10436758 c 1
 704.474070047 1512.77330843 713.132445597 1512 723 1512 c 2
 733 1512 l 1
 733 1502 l 1
 733 1427 l 1
 733 1417 l 1
 723 1417 l 2
594.160444539 1531.93682037 m 1
 606.662442249 1562.48638565 617 1596.53496259 617 1624 c 0
 617 1667.28374682 585.872275552 1697 547 1697 c 0
 501.150271426 1697 470 1668.84130925 470 1622 c 0
 470 1576.55048991 530.93500653 1549.41557778 594.160444539 1531.93682037 c 1
EndSplineSet
EndChar

StartChar: uni0650
Encoding: 57 1616 51
GlifName: uni0650
Width: 0
VWidth: 2316
GlyphClass: 4
Flags: HW
AnchorPoint: "Anchor-7" 571.144 -44.8242 mark 0
AnchorPoint: "Anchor-6" 571.144 -44.8242 mark 0
AnchorPoint: "Anchor-0" 619.091 -324.624 basemark 0
AnchorPoint: "Anchor-0" 571.144 -44.8242 mark 0
LayerCount: 2
Fore
SplineSet
333 -346 m 1
 333 -242 l 1
 333 -235.284624383 l 1
 339.216048115 -232.74355856 l 1
 794.216048115 -46.7435585601 l 1
 808 -41.108800207 l 1
 808 -56 l 1
 808 -159 l 1
 808 -165.701733113 l 1
 801.801362686 -168.249304932 l 1
 346.801362686 -355.249304932 l 1
 333 -360.921513333 l 1
 333 -346 l 1
EndSplineSet
EndChar

StartChar: uni0651
Encoding: 58 1617 52
GlifName: uni0651
Width: 0
VWidth: 2393
GlyphClass: 4
Flags: HW
AnchorPoint: "Anchor-10" 598.801 1453.71 mark 0
AnchorPoint: "Anchor-9" 598.801 1453.71 mark 0
AnchorPoint: "Anchor-1" 570.087 1839.1 basemark 0
AnchorPoint: "Anchor-1" 598.801 1453.71 mark 0
LayerCount: 2
Fore
SplineSet
617.993628543 1758.35691531 m 2
 619.001942224 1730.12413226 619.009174284 1703.24601087 620.972681039 1676.73866968 c 0
 625.43563725 1616.48489178 645.692717839 1584 681 1584 c 0
 720.10630762 1584 738 1609.27219198 738 1675 c 0
 738 1698.52444509 732.143521803 1738.28169094 721.208661625 1790.96783543 c 2
 719.078938974 1801.22922639 l 1
 729.428849513 1802.87580306 l 1
 817.428849513 1816.87580306 l 1
 826.124156558 1818.25914737 l 1
 828.59737407 1809.80898753 l 2
 840.849630812 1767.94711033 847 1726.00080397 847 1685 c 0
 847 1547.71619231 795.184775075 1473.07279343 690.05101908 1472 c 0
 650.90853806 1472 608.452011917 1488.24920552 584.138732222 1516.4690507 c 1
 556.145491191 1447.7049043 489.548898937 1428 432 1428 c 0
 331.587669416 1428 283.873817788 1496.27833027 283.873817788 1616.0779836 c 0
 283.873817788 1653.12839481 288.882749168 1687.57592779 297.352361788 1718.63117406 c 2
 299.730110448 1727.34958581 l 1
 308.643989873 1725.86393924 l 1
 386.643989873 1712.86393924 l 1
 397.086130606 1711.12358245 l 1
 394.754410021 1700.79739129 l 2
 387.949485082 1670.66129513 386 1643.4433728 386 1620 c 0
 386 1567.1092627 405.337258194 1546 444 1546 c 0
 518.825537249 1546 521.4140625 1594.56261462 521.4140625 1719.33203125 c 0
 521.4140625 1731.58877154 521.293624535 1744.38847208 521.002363481 1757.78259706 c 2
 520.780181625 1768 l 1
 531 1768 l 1
 608 1768 l 1
 617.649232662 1768 l 1
 617.993628543 1758.35691531 l 2
EndSplineSet
EndChar

StartChar: uni0652
Encoding: 59 1618 53
GlifName: uni0652
Width: 0
VWidth: 2316
GlyphClass: 4
Flags: HW
AnchorPoint: "Anchor-10" 593.219 1239.43 mark 0
AnchorPoint: "Anchor-9" 593.219 1239.43 mark 0
AnchorPoint: "Anchor-1" 589.537 1682.66 basemark 0
AnchorPoint: "Anchor-1" 593.219 1239.43 mark 0
LayerCount: 2
Fore
SplineSet
510 1462 m 0
 510 1415.6165604 547.370771781 1379 594 1379 c 0
 640.527378253 1379 677 1415.47268265 677 1462 c 0
 677 1508.62920318 640.383492769 1546 594 1546 c 0
 547.514949756 1546 510 1508.48507822 510 1462 c 0
411 1462 m 0
 411 1562.54382744 493.456052357 1645 594 1645 c 0
 694.543827444 1645 777 1562.54394764 777 1462 c 0
 777 1361.45617256 694.543947643 1279 594 1279 c 0
 493.456172556 1279 411 1361.45605236 411 1462 c 0
EndSplineSet
EndChar

StartChar: uni0653
Encoding: 60 1619 54
GlifName: uni0653
Width: 0
VWidth: 2673
GlyphClass: 4
Flags: HW
AnchorPoint: "Anchor-10" 461.017 1539.11 mark 0
AnchorPoint: "Anchor-9" 461.017 1539.11 mark 0
AnchorPoint: "Anchor-1" 449.017 1883.25 basemark 0
AnchorPoint: "Anchor-1" 461.017 1539.11 mark 0
LayerCount: 2
Fore
SplineSet
373.235351562 1635.82714844 m 0
 317.84765625 1635.82714844 273.09375 1594.02441406 220.8125 1531.45800781 c 2
 208.190429688 1516.35351562 l 1
 194.272460938 1530.27246094 l 1
 93.2724609375 1631.27246094 l 1
 82.599609375 1641.94433594 l 1
 91.248046875 1654.31347656 l 2
 161.051757812 1754.16015625 236.762695312 1823.68457031 338.674804688 1823.68457031 c 0
 428.803710938 1823.68457031 496.763671875 1772.62207031 574.038085938 1772.62207031 c 0
 624.560546875 1772.62207031 671.194335938 1793.33496094 733.87109375 1825.05957031 c 2
 750.009765625 1833.22851562 l 1
 758.099609375 1817.04980469 l 1
 824.099609375 1685.04980469 l 1
 831.465820312 1670.31738281 l 1
 817.443359375 1661.67675781 l 2
 746.322265625 1617.84570312 680.37890625 1589.77539062 600.071289062 1589.77539062 c 0
 513.538085938 1589.77539062 445.873046875 1635.82714844 373.235351562 1635.82714844 c 0
EndSplineSet
EndChar

StartChar: uni0657
Encoding: 64 1623 57
GlifName: uni0657
Width: 0
VWidth: 2316
GlyphClass: 4
Flags: HW
AnchorPoint: "Anchor-10" 513.285 1400.55 mark 0
AnchorPoint: "Anchor-9" 513.285 1400.55 mark 0
AnchorPoint: "Anchor-1" 537.285 2069.85 basemark 0
AnchorPoint: "Anchor-1" 513.285 1400.55 mark 0
LayerCount: 2
Fore
SplineSet
265.249921912 1814.99687646 m 2
 303.937053169 1814.02969818 345.68248625 1811.15593714 390.496059094 1806.52841897 c 1
 492.274757705 1948.91988621 622.556743554 2027.81479388 784.066592913 2042.95634226 c 2
 795 2043.98134917 l 1
 795 2033 l 1
 795 1955 l 1
 795 1946.49468225 l 1
 786.604937966 1945.12963151 l 2
 670.536380848 1926.25669539 575.665779254 1871.67253031 502.93786593 1783.19564627 c 1
 586.746937685 1755.38953044 668 1698.64701459 668 1599 c 0
 668 1502.6830679 598.72271107 1428 501 1428 c 0
 403.846001283 1428 322 1496.68663051 322 1603 c 0
 322 1630.90288887 328.628189847 1669.41098266 341.715037007 1712.93824855 c 1
 317.995583066 1714.60971679 293.531610965 1716 265 1716 c 2
 255 1716 l 1
 255 1726 l 1
 255 1805 l 1
 255 1815.25312451 l 1
 265.249921912 1814.99687646 l 2
501 1526 m 0
 543.217778735 1526 567 1553.25868907 567 1597 c 0
 567 1647.10826499 506.848893173 1680.36737559 442.966076713 1697.20648817 c 1
 427.349024452 1658.40288448 420 1628.27331069 420 1605 c 0
 420 1558.66289921 456.303816724 1526 501 1526 c 0
EndSplineSet
EndChar

StartChar: uni065A
Encoding: 66 1626 58
GlifName: uni065A_
Width: 0
VWidth: 2316
GlyphClass: 4
Flags: HW
AnchorPoint: "Anchor-10" 573.285 1350.55 mark 0
AnchorPoint: "Anchor-9" 573.285 1350.55 mark 0
AnchorPoint: "Anchor-1" 571.012 1862.38 basemark 0
AnchorPoint: "Anchor-1" 573.285 1350.55 mark 0
LayerCount: 2
Fore
SplineSet
493.408736507 1438.88236465 m 1
 300.408736507 1762.88236465 l 1
 291.403478412 1778 l 1
 309 1778 l 1
 433 1778 l 1
 438.743703325 1778 l 1
 441.637789009 1773.03871026 l 1
 573.030711641 1547.79370003 l 1
 705.377888534 1773.06549049 l 1
 708.276912873 1778 l 1
 714 1778 l 1
 838 1778 l 1
 855.643211119 1778 l 1
 846.579598704 1762.86283287 l 1
 652.579598704 1438.86283287 l 1
 649.667902477 1434 l 1
 644 1434 l 1
 502 1434 l 1
 496.317058659 1434 l 1
 493.408736507 1438.88236465 l 1
EndSplineSet
EndChar

StartChar: uni0660
Encoding: 67 1632 59
GlifName: afii57392
Width: 799
VWidth: 2655
GlyphClass: 2
Flags: HW
LayerCount: 2
Fore
SplineSet
132.438564917 531.291207122 m 1
 355.63876023 755.390816498 l 1
 397.980451713 797.903129305 l 1
 440.492084836 755.560755411 l 1
 666.391498899 530.560755411 l 1
 708.987331259 488.134517517 l 1
 666.476211559 445.623397817 l 1
 442.376602183 221.523788441 l 1
 399.950195312 179.09738157 l 1
 357.523788441 221.523788441 l 1
 132.523788441 446.523788441 l 1
 90.182605266 488.864971616 l 1
 132.438564917 531.291207122 l 1
EndSplineSet
EndChar

StartChar: uni0661
Encoding: 68 1633 60
GlifName: afii57393
Width: 651
VWidth: 2950
GlyphClass: 2
Flags: HW
LayerCount: 2
Fore
SplineSet
328.71484375 1284.62207031 m 6
 467.86328125 975.404296875 537 616.311523438 537 185 c 6
 537 60 l 1
 537 0 l 1
 477 0 l 1
 307 0 l 1
 247 0 l 1
 247 60 l 1
 247 188 l 6
 247 608.3359375 184.555664062 930.94921875 64.1259765625 1176.58691406 c 6
 34.7685546875 1236.46777344 l 5
 97.408203125 1259.35546875 l 5
 253.408203125 1316.35546875 l 5
 305.817382812 1335.50585938 l 5
 328.71484375 1284.62207031 l 6
EndSplineSet
EndChar

StartChar: uni0662
Encoding: 69 1634 61
GlifName: afii57394
Width: 1114
VWidth: 2950
GlyphClass: 2
Flags: HW
LayerCount: 2
Fore
SplineSet
247 188 m 6
 247 608.3359375 184.555664062 930.94921875 64.1259765625 1176.58691406 c 6
 34.6611328125 1236.68652344 l 5
 97.6123046875 1259.4296875 l 5
 252.612304688 1315.4296875 l 5
 308.365234375 1335.57324219 l 5
 329.1796875 1280.06738281 l 6
 358.923828125 1200.74902344 390.0546875 1121.40234375 420.114257812 1041.2421875 c 4
 460.708007812 935.006835938 507.782226562 895 624 895 c 4
 724.258789062 895 770 951.08984375 770 1090 c 4
 770 1135.94726562 760.274414062 1200.36328125 753.776367188 1240.38183594 c 6
 743.674804688 1302.58398438 l 5
 806.296875 1309.62402344 l 5
 975.296875 1328.62402344 l 5
 1033.96289062 1335.21972656 l 5
 1041.5078125 1276.66796875 l 6
 1047.26757812 1231.96875 1056 1164.25585938 1056 1100 c 4
 1056 807.438476562 904.573242188 602 626 602 c 4
 583.008789062 602 545.509765625 605.764648438 510.141601562 614.307617188 c 5
 528.78515625 458.44921875 537 319.641601562 537 185 c 6
 537 60 l 1
 537 0 l 1
 477 0 l 1
 307 0 l 1
 247 0 l 1
 247 60 l 1
 247 188 l 6
EndSplineSet
EndChar

StartChar: uni0663
Encoding: 70 1635 62
GlifName: afii57395
Width: 1411
VWidth: 2950
GlyphClass: 2
Flags: HW
LayerCount: 2
Fore
SplineSet
247 188 m 6
 247 608.3359375 184.555664062 930.94921875 64.1259765625 1176.58691406 c 6
 34.6611328125 1236.68652344 l 5
 97.6123046875 1259.4296875 l 5
 252.612304688 1315.4296875 l 5
 309.28515625 1335.90527344 l 5
 329.517578125 1279.14453125 l 6
 365.34765625 1178.62109375 402.375976562 1078.54199219 438.502929688 977.184570312 c 4
 458.883789062 920.258789062 493.096679688 896.024414062 566.267578125 895 c 4
 595.276367188 895.155273438 636.979492188 921.637695312 638 1101.17089844 c 4
 638 1134.00488281 639 1167.34863281 639 1198 c 6
 639 1253.1484375 l 5
 693.953125 1257.78710938 l 5
 847.953125 1270.78710938 l 5
 911.110351562 1276.11914062 l 5
 912.973632812 1212.76367188 l 6
 913.935546875 1180.06347656 915.951171875 1144.53808594 916.965820312 1110.03515625 c 4
 924.1015625 924.504882812 968.744140625 895 999 895 c 4
 1045.02050781 895 1068 930.845703125 1068 1034 c 4
 1068 1124.05273438 1056.85351562 1187.9140625 1047.87890625 1239.76757812 c 6
 1037.08300781 1302.14453125 l 5
 1099.94824219 1309.58398438 l 5
 1268.94824219 1329.58398438 l 5
 1328.01074219 1336.57421875 l 5
 1335.51953125 1277.57519531 l 6
 1342.5234375 1222.546875 1353 1141.98535156 1353 1040 c 4
 1353 805.430664062 1244.30078125 602 995 602 c 4
 914.412109375 602 837.9140625 630.381835938 772.551757812 687.171875 c 5
 708.153320312 629.874023438 637.608398438 602 568 602 c 4
 550.061523438 602 529.078125 603.541992188 511.831054688 606.33203125 c 5
 529.487304688 455.887695312 537 327.012695312 537 185 c 6
 537 60 l 1
 537 0 l 1
 477 0 l 1
 307 0 l 1
 247 0 l 1
 247 60 l 1
 247 188 l 6
EndSplineSet
EndChar

StartChar: uni0664
Encoding: 71 1636 63
GlifName: afii57396
Width: 1006
VWidth: 2950
GlyphClass: 2
Flags: HW
LayerCount: 2
Fore
SplineSet
792.37890625 574.330078125 m 2
 545.052027453 510.536403274 374 416.025390625 374 371 c 0
 374 349.916992188 440.516601562 300 704 300 c 2
 896 300 l 1
 955.336914062 300 l 1
 955.99609375 240.666992188 l 1
 957.99609375 60.6669921875 l 1
 958.669921875 0 l 1
 898 0 l 1
 696.919921875 0 l 2
 323.942382812 1 71 104.697265625 71 367 c 0
 71 525.799804688 189.092773438 572.411132812 369.947265625 675.348632812 c 1
 234.212890625 736.084960938 154 814.694335938 154 963 c 0
 154 1221.89355469 405.220703125 1315.84375 655.622070312 1319 c 0
 703.2109375 1319 753.649414062 1315.87890625 805.291992188 1309.55566406 c 2
 862.001953125 1302.61132812 l 1
 857.840820312 1245.62988281 l 1
 844.840820312 1067.62988281 l 1
 840.256835938 1004.86328125 l 1
 777.780273438 1012.43554688 l 2
 746.715820312 1016.20117188 719.137695312 1018 694 1018 c 0
 507.822265625 1018 469 1001.78417969 469 946 c 0
 469 914.231445312 525.446289062 885.689453125 771.087890625 864.784179688 c 2
 825.39453125 860.162109375 l 1
 825.99609375 805.663085938 l 1
 827.068359375 708.663085938 l 1
 827.99609375 624.663085938 l 1
 828.44921875 583.633789062 l 1
 792.37890625 574.330078125 l 2
EndSplineSet
EndChar

StartChar: uni0665
Encoding: 72 1637 64
GlifName: afii57397
Width: 1177
VWidth: 2950
GlyphClass: 2
Flags: HW
LayerCount: 2
Fore
SplineSet
568.01171875 835.729492188 m 5
 419.479492188 662.241210938 349 575.887695312 349 478 c 0
 349 350.443359375 429.703125 298 595 298 c 0
 752.859375 298 829 349.760742188 829 485 c 0
 829 600.439453125 737.712890625 686.110351562 568.01171875 835.729492188 c 5
504.862304688 1277.83203125 m 6
 904.118164062 992.793945312 1121 811.99609375 1121 462 c 0
 1121 177.19921875 919.575195312 0 591 0 c 0
 243.803710938 0 57 184.733398438 57 461 c 0
 57 688.401367188 158.0390625 806.540039062 333.02734375 1021.76171875 c 5
 324.219726562 1028.59472656 l 5
 278.712890625 1063.90234375 l 5
 312.1328125 1110.81347656 l 5
 421.1328125 1263.81347656 l 5
 455.981445312 1312.72949219 l 5
 504.862304688 1277.83203125 l 6
EndSplineSet
EndChar

StartChar: uni0666
Encoding: 73 1638 65
GlifName: afii57398
Width: 1175
VWidth: 2950
GlyphClass: 2
Flags: HW
LayerCount: 2
Fore
SplineSet
777.700195312 45.8193359375 m 2
 700.77734375 362.057617188 656.637695312 564.9453125 644.91015625 940.104492188 c 5
 561.694335938 922.720703125 492.662109375 919 404 919 c 4
 267.702148438 919 191.534179688 939.3046875 68.171875 995.377929688 c 6
 33 1011.36523438 l 5
 33 1050 l 5
 33 1247 l 5
 33 1340.77441406 l 5
 118.143554688 1301.47753906 l 6
 245.178710938 1242.84570312 302.833007812 1226 450 1226 c 4
 590.67578125 1226 692.627929688 1245.65429688 841.904296875 1304.78320312 c 6
 922.784179688 1336.8203125 l 5
 923.994140625 1249.83496094 l 6
 931.952148438 677.8515625 982.841796875 393.317382812 1077.47949219 77.2080078125 c 2
 1100.59375 0 l 1
 1020 0 l 1
 836 0 l 1
 788.844726562 0 l 1
 777.700195312 45.8193359375 l 2
EndSplineSet
EndChar

StartChar: uni0667
Encoding: 74 1639 66
GlifName: afii57399
Width: 1246
VWidth: 2950
GlyphClass: 2
Flags: HW
LayerCount: 2
Fore
SplineSet
482.90234375 49.6318359375 m 2
 393.98046875 556.490234375 232.100585938 863.380859375 49.78515625 1142.16015625 c 6
 14.1162109375 1196.70117188 l 5
 71.412109375 1227.75195312 l 5
 226.412109375 1311.75195312 l 5
 277.263671875 1339.30957031 l 5
 306.66796875 1289.50292969 l 6
 423.984375 1090.78320312 542.400390625 838.2734375 623.46875 529.276367188 c 1
 704.026367188 839.975585938 821.896484375 1090.58203125 939.33203125 1289.50292969 c 6
 968.736328125 1339.30957031 l 5
 1019.58789062 1311.75195312 l 5
 1174.58789062 1227.75195312 l 5
 1231.88378906 1196.70117188 l 5
 1196.21484375 1142.16015625 l 6
 1013.94921875 863.458007812 853.033203125 556.567382812 764.09765625 49.6318359375 c 2
 755.389648438 0 l 1
 705 0 l 1
 625 0 l 1
 542 0 l 1
 491.610351562 0 l 1
 482.90234375 49.6318359375 l 2
EndSplineSet
EndChar

StartChar: uni0668
Encoding: 75 1640 67
GlifName: afii57400
Width: 1246
VWidth: 2950
GlyphClass: 2
Flags: HW
LayerCount: 2
Fore
SplineSet
542 1305 m 5
 624 1305 l 5
 705 1305 l 5
 755.389648438 1305 l 5
 764.09765625 1255.36816406 l 6
 853.033203125 748.432617188 1013.94921875 441.54296875 1196.21484375 162.83984375 c 2
 1231.88378906 108.298828125 l 1
 1174.58789062 77.248046875 l 1
 1019.58789062 -6.751953125 l 1
 968.736328125 -34.3095703125 l 1
 939.33203125 15.4970703125 l 2
 822.065429688 214.1328125 703.515625 466.9921875 623.46875 775.723632812 c 5
 541.883789062 464.755859375 424.154296875 214.504882812 306.66796875 15.4970703125 c 2
 277.263671875 -34.3095703125 l 1
 226.412109375 -6.751953125 l 1
 71.412109375 77.248046875 l 1
 14.1162109375 108.298828125 l 1
 49.78515625 162.83984375 l 2
 232.100585938 441.619140625 393.98046875 748.509765625 482.90234375 1255.36816406 c 6
 491.610351562 1305 l 5
 542 1305 l 5
EndSplineSet
EndChar

StartChar: uni0669
Encoding: 76 1641 68
GlifName: afii57401
Width: 1026
GlyphClass: 2
Flags: HW
LayerCount: 2
Fore
SplineSet
47 870 m 4
 47 1088.60058594 220.381835938 1321 462 1321 c 4
 779.189453125 1321 859.283203125 1055.70898438 873.922851562 773.040039062 c 4
 889.283203125 463.834960938 900.296875 318.172851562 906.979492188 61.5615234375 c 2
 908.583007812 0 l 1
 847 0 l 1
 679 0 l 1
 620.544921875 0 l 1
 619.020507812 58.435546875 l 2
 615.979492188 174.985351562 607.55859375 338.111328125 602.98046875 507.048828125 c 5
 569.065429688 501.271484375 529.0078125 497 483 497 c 4
 216.239257812 497 47 608.364257812 47 870 c 4
461 1025 m 4
 397.787109375 1025 333 951.329101562 333 870 c 4
 333 817.12109375 341.874023438 787 486 787 c 4
 510.58984375 787 552.4375 792.58203125 583.740234375 798.674804688 c 5
 576.864257812 889.262695312 563.684570312 955.884765625 540.958984375 989.16796875 c 4
 525.434570312 1011.90625 507.450195312 1025 461 1025 c 4
EndSplineSet
EndChar

StartChar: uni066A
Encoding: 77 1642 69
GlifName: afii57381
Width: 1033
VWidth: 4036
GlyphClass: 2
Flags: HW
LayerCount: 2
Fore
SplineSet
767 1346 m 1
 899 1287 l 1
 953 1262 l 1
 322 -14 l 1
 267 11 l 1
 135 71 l 1
 81 95 l 1
 712 1371 l 1
 767 1346 l 1
577 253 m 0
 577 359 663 447 770 447 c 0
 877 447 963 359 963 253 c 0
 963 147 876 60 770 60 c 0
 664 60 577 144 577 253 c 0
70 1099 m 4
 70 1205 156 1293 263 1293 c 4
 370 1293 456 1205 456 1099 c 4
 456 993 369 906 263 906 c 4
 157 906 70 990 70 1099 c 4
EndSplineSet
EndChar

StartChar: uni066B
Encoding: 78 1643 70
GlifName: uni066B_
Width: 772
VWidth: 2950
GlyphClass: 2
Flags: HW
LayerCount: 2
Fore
SplineSet
557.477539062 828.215820312 m 1
 684.477539062 774.215820312 l 1
 740.05859375 750.583007812 l 1
 716.060546875 695.159179688 l 1
 254.060546875 -371.840820312 l 1
 230.264648438 -426.797851562 l 1
 175.262695312 -403.104492188 l 1
 45.2626953125 -347.104492188 l 1
 -10.1142578125 -323.25 l 1
 14.0126953125 -267.991210938 l 1
 479.012695312 797.008789062 l 1
 502.791015625 851.46875 l 1
 557.477539062 828.215820312 l 1
EndSplineSet
PairPos2: "'kern' Horizontal Kerning lookup 4 subtable 1" uni06F2 dx=-130 dy=0 dh=-130 dv=0 dx=0 dy=0 dh=0 dv=0
PairPos2: "'kern' Horizontal Kerning lookup 4 subtable 1" uni06F3 dx=-130 dy=0 dh=-130 dv=0 dx=0 dy=0 dh=0 dv=0
PairPos2: "'kern' Horizontal Kerning lookup 4 subtable 1" uni06F4 dx=-110 dy=0 dh=-110 dv=0 dx=0 dy=0 dh=0 dv=0
EndChar

StartChar: uni066C
Encoding: 79 1644 71
GlifName: uni066C_
Width: 560
GlyphClass: 2
Flags: HW
LayerCount: 2
Fore
SplineSet
141.758848374 -347.818186173 m 1
 46.7588483744 -275.818186173 l 1
 0.173546172421 -240.51143082 l 1
 34.2516846391 -193.019980711 l 2
 91.1625859785 -113.708687512 124.394774968 -24.2673301604 127 52.8799231188 c 2
 127 219 l 1
 127 279 l 1
 187 279 l 1
 358 279 l 1
 418 279 l 1
 418 219 l 1
 418 74 l 2
 418 -100.93693187 317.573273505 -263.819514671 215.859099555 -346.547702208 c 2
 179.307793944 -376.276334394 l 1
 141.758848374 -347.818186173 l 1
EndSplineSet
EndChar

StartChar: uni066D
Encoding: 80 1645 72
GlifName: afii63167
Width: 1436
VWidth: 2948
GlyphClass: 2
Flags: HW
LayerCount: 2
Fore
SplineSet
151 1159 m 1
 539.553710938 1159 l 1
 660.99609375 1528.72363281 l 1
 718 1702.26855469 l 1
 775.00390625 1528.72363281 l 1
 896.446289062 1159 l 1
 1285 1159 l 1
 1468.24023438 1159 l 1
 1320.48828125 1050.62011719 l 1
 1006.53320312 820.327148438 l 1
 1127.03125 451.639648438 l 1
 1184.25 276.568359375 l 1
 1034.890625 384.344726562 l 1
 718 613.009765625 l 1
 401.109375 384.344726562 l 1
 251.75 276.568359375 l 1
 308.96875 451.639648438 l 1
 429.466796875 820.327148438 l 1
 115.51171875 1050.62011719 l 1
 -32.240234375 1159 l 1
 151 1159 l 1
EndSplineSet
EndChar

StartChar: uni066E
Encoding: 81 1646 73
GlifName: uni066E_
Width: 1777
VWidth: 2950
GlyphClass: 2
Flags: HW
AnchorPoint: "Anchor-10" 973.36 1473.35 basechar 0
AnchorPoint: "Anchor-7" 923.36 -199.261 basechar 0
LayerCount: 2
Fore
SplineSet
975 0 m 6
 840 0 l 2
 352.82421875 0 38 172.923828125 38 544 c 0
 38 642.030273438 60.0283203125 736.077148438 96.8876953125 821.719726562 c 2
 119.454101562 874.153320312 l 1
 172.946289062 854.224609375 l 1
 325.946289062 797.224609375 l 1
 382.29296875 776.233398438 l 1
 361.1796875 719.932617188 l 2
 342.565429688 670.294921875 333 619.234375 333 569.13671875 c 0
 333.76171875 401.45703125 466.166015625 300 830 300 c 2
 968 300 l 6
 1261.8828125 300 1446 306.874023438 1446 508 c 4
 1446 559.869140625 1433.875 645.438476562 1411.46972656 744.801757812 c 6
 1398.57421875 801.990234375 l 5
 1455.44824219 816.208984375 l 5
 1615.44824219 856.208984375 l 5
 1669.51367188 869.724609375 l 5
 1686.97753906 816.802734375 l 6
 1721.70898438 711.557617188 1739 610.892578125 1739 523 c 4
 1739 66.08203125 1383.27539062 0 975 0 c 6
EndSplineSet
Substitution2: "'fina' Terminal Forms in Arabic lookup 1 subtable" uni066E.fina
EndChar

StartChar: uni066F
Encoding: 82 1647 74
GlifName: uni066F_
Width: 1437
VWidth: 2950
GlyphClass: 2
Flags: HW
AnchorPoint: "Anchor-10" 115.809 1420.22 basechar 0
AnchorPoint: "Anchor-7" 329.219 -703.353 basechar 0
LayerCount: 2
Fore
SplineSet
1095.77929688 380.870117188 m 1
 1073.09667969 508.318359375 1026.29003906 584 971 584 c 0
 932.946289062 584 871 530.94921875 871 436 c 0
 871 395.703125 884.228515625 369 987 369 c 0
 1022.79589844 369 1059.44824219 373.274414062 1095.77929688 380.870117188 c 1
399.125 520.787109375 m 2
 353.048828125 398.876953125 330 287.215820312 330 181 c 0
 330 -57.068359375 442.377929688 -167 725 -167 c 0
 1002.99414062 -167 1090.359375 -73.8388671875 1114.17089844 91.7255859375 c 1
 1068.71875 83.4306640625 1021.83984375 79 971 79 c 0
 739.608398438 79 591 193.479492188 591 409 c 0
 591 628.727539062 723.958984375 879 978 879 c 0
 1307.72949219 879 1399 516.806640625 1399 216 c 0
 1399 -225.8125 1179.08007812 -460 721 -460 c 0
 277.34375 -460 38 -239.532226562 38 176 c 0
 38 324.638671875 69.9482421875 475.587890625 132.50390625 627.806640625 c 2
 155.22265625 683.088867188 l 1
 210.591796875 660.583984375 l 1
 365.591796875 597.583984375 l 1
 419.8203125 575.54296875 l 1
 399.125 520.787109375 l 2
EndSplineSet
Substitution2: "'fina' Terminal Forms in Arabic lookup 1 subtable" uni066F.fina
EndChar

StartChar: uni0670
Encoding: 83 1648 75
GlifName: uni0670
Width: 0
VWidth: 2574
GlyphClass: 4
Flags: HW
AnchorPoint: "Anchor-10" 636.984 1500.61 mark 0
AnchorPoint: "Anchor-9" 636.984 1500.61 mark 0
AnchorPoint: "Anchor-1" 636.984 1957.18 basemark 0
AnchorPoint: "Anchor-1" 636.984 1500.61 mark 0
LayerCount: 2
Fore
SplineSet
583 1568 m 1
 583 1930 l 1
 583 1940 l 1
 593 1940 l 1
 681 1940 l 1
 691 1940 l 1
 691 1930 l 1
 691 1568 l 1
 691 1558 l 1
 681 1558 l 1
 593 1558 l 1
 583 1558 l 1
 583 1568 l 1
EndSplineSet
EndChar

StartChar: uni0674
Encoding: 85 1652 76
GlifName: uni0674
Width: 551
VWidth: 2539
GlyphClass: 2
Flags: HW
LayerCount: 2
Fore
SplineSet
164.812134069 1974.81670084 m 1
 123.146650992 2014.91475013 106 2064.13137366 106 2133 c 0
 106 2266.53580478 206.143872332 2351 317 2351 c 0
 367.270353965 2351 415.168755289 2335.59512765 458.309611908 2308.7159008 c 2
 462.979222455 2305.80646573 l 1
 463.021193397 2300.30480111 l 1
 463.930373084 2181.12706674 l 1
 464.066349428 2163.30291955 l 1
 448.783830937 2172.47697761 l 2
 408.637281186 2196.57685217 370.518500334 2208 331 2208 c 0
 284.064565604 2208 241 2183.98697243 241 2120.06253124 c 0
 241.954472021 2081.89915625 262.341443189 2053.09350193 322.660463124 2030.71686043 c 0
 328.970420774 2028.61321838 334.361266972 2027.1953125 338.90234375 2027.1953125 c 0
 341.480321442 2027.1953125 340.243230486 2027.03579181 345.351718766 2028.15796749 c 0
 389.183666235 2036.56471042 434.715630664 2046.18232965 478.064614884 2054.73371126 c 2
 490 2057.08818472 l 1
 490 2044.92278447 l 1
 490 1928.93916352 l 1
 490 1921.06122011 l 1
 482.340956508 1919.21702782 l 1
 85.3409565083 1823.62489023 l 1
 73 1820.6533577 l 1
 73 1833.34702593 l 1
 73 1946.00679526 l 1
 73 1953.99267371 l 1
 80.7880683723 1955.75909542 l 1
 164.812134069 1974.81670084 l 1
EndSplineSet
EndChar

StartChar: uni06A1
Encoding: 100 1697 80
GlifName: uni06A_1
Width: 1781
VWidth: 2950
GlyphClass: 2
Flags: HW
AnchorPoint: "Anchor-10" 637.853 1688.62 basechar 0
AnchorPoint: "Anchor-7" 620.182 -294.248 basechar 0
LayerCount: 2
Fore
SplineSet
1449.95996094 380.314453125 m 5
 1409.22753906 373.950195312 1370.09765625 371 1328 371 c 4
 1090.625 371 942 476.094726562 942 698 c 4
 942 924.29296875 1079.79003906 1161 1328 1161 c 4
 1639.59765625 1161 1743 815.580078125 1743 520.842773438 c 4
 1740.81445312 103.358398438 1535.80761719 0 1127 0 c 6
 837 0 l 2
 341.35546875 0 38 173.928710938 38 544 c 0
 38 642.030273438 60.0283203125 736.077148438 96.8876953125 821.719726562 c 2
 119.454101562 874.153320312 l 1
 172.946289062 854.224609375 l 1
 325.946289062 797.224609375 l 1
 382.29296875 776.233398438 l 1
 361.1796875 719.932617188 l 2
 342.541015625 670.228515625 333 619.396484375 333 569 c 0
 333 402.924804688 477.266601562 300 833 300 c 2
 1148 300 l 6
 1332.43847656 300 1440.73144531 316.955078125 1449.95996094 380.314453125 c 5
1446.31347656 662.859375 m 5
 1422.73339844 789.466796875 1375.94433594 865 1322 865 c 4
 1283.39746094 865 1222 813.795898438 1222 717 c 4
 1222 677.228515625 1234.39355469 651 1339 651 c 4
 1373.80078125 651 1411.19140625 655.471679688 1446.31347656 662.859375 c 5
EndSplineSet
Substitution2: "'init' Initial Forms in Arabic lookup 3 subtable" uni06A1.init
Substitution2: "'medi' Medial Forms in Arabic lookup 2 subtable" uni06A1.medi
Substitution2: "'fina' Terminal Forms in Arabic lookup 1 subtable" uni06A1.fina
EndChar

StartChar: uni06A9
Encoding: 102 1705 81
GlifName: uni06A_9
Width: 1865
VWidth: 2950
GlyphClass: 2
Flags: HW
AnchorPoint: "Anchor-7" 900.268 -166.468 basechar 0
AnchorPoint: "Anchor-10" 1193.88 1404.67 basechar 0
LayerCount: 2
Fore
SplineSet
1246.01367188 1027.35546875 m 1
 1461.72362244 842.445580936 1702 726.546942098 1702 415 c 4
 1702 123.038085938 1440.12402344 0 1031 0 c 2
 840 0 l 2
 352.82421875 0 38 172.923828125 38 544 c 0
 38 642.030273438 60.0283203125 736.077148438 96.8876953125 821.719726562 c 2
 119.454101562 874.153320312 l 1
 172.946289062 854.224609375 l 1
 325.946289062 797.224609375 l 1
 382.29296875 776.233398438 l 1
 361.1796875 719.932617188 l 2
 342.565429688 670.294921875 333 619.234375 333 569.13671875 c 0
 333.76171875 401.45703125 466.166015625 300 830 300 c 2
 1030 300 l 2
 1327.23144531 300 1406 368.3984375 1406 432 c 0
 1406 476.884765625 1384.29589844 525.513671875 1320.97265625 585.21875 c 0
 1220.26855469 679.012695312 1128.75195312 738.537109375 1051.04199219 799.733398438 c 0
 967.860351562 864.30859375 915 941.84765625 915 1032 c 0
 915 1053.41796875 917.37890625 1074.3828125 922.423828125 1094.56054688 c 0
 943.247070312 1177.84570312 1007 1237 1093.73339844 1269.10644531 c 2
 1803.1328125 1533.99316406 l 1
 1803.1328125 1447.73535156 l 1
 1803.1328125 1276.73535156 l 1
 1803.1328125 1234.99609375 l 1
 1246.01367188 1027.35546875 l 1
EndSplineSet
Position2: "Single Positioning lookup 2 subtable" dx=0 dy=0 dh=-226 dv=0
Position2: "Single Positioning lookup 1 subtable" dx=0 dy=0 dh=-219 dv=0
Position2: "Single Positioning lookup 0 subtable" dx=0 dy=0 dh=180 dv=0
Substitution2: "'init' Initial Forms in Arabic lookup 3 subtable" uniFB90
Substitution2: "'medi' Medial Forms in Arabic lookup 2 subtable" uniFB91
Substitution2: "'fina' Terminal Forms in Arabic lookup 1 subtable" uniFB8F
EndChar

StartChar: uni06BA
Encoding: 106 1722 83
GlifName: afii57514
Width: 1447
VWidth: 2950
GlyphClass: 2
Flags: HW
LayerCount: 2
Fore
SplineSet
1067.5234375 655.750976562 m 1
 1236.5234375 713.750976562 l 1
 1290.86621094 732.401367188 l 1
 1311.85351562 678.916992188 l 2
 1376.13867188 515.095703125 1409 355.5 1409 200 c 0
 1409 -219.938476562 1132.25488281 -450 721 -450 c 0
 280.315429688 -450 38 -228.805664062 38 186 c 0
 38 334.638671875 69.9482421875 485.587890625 132.50390625 637.806640625 c 2
 155.22265625 693.088867188 l 1
 210.591796875 670.583984375 l 1
 365.591796875 607.583984375 l 1
 419.8203125 585.54296875 l 1
 399.125 530.787109375 l 2
 353.048828125 408.876953125 330 297.215820312 330 191 c 0
 330 -46.3759765625 445.967773438 -157 728 -157 c 0
 996.788085938 -157 1116.09570312 -38.3486328125 1117 230.100585938 c 0
 1117 342.676757812 1088.69726562 456.73046875 1032.90136719 573.05078125 c 2
 1003.73339844 633.858398438 l 1
 1067.5234375 655.750976562 l 1
EndSplineSet
Substitution2: "'fina' Terminal Forms in Arabic lookup 1 subtable" uniFB9F
EndChar

StartChar: uni06F0
Encoding: 127 1776 86
GlifName: uni06F_0
Width: 902
VWidth: 2655
GlyphClass: 2
Flags: HW
LayerCount: 2
Fore
SplineSet
86.2802734375 493 m 4
 86.2802734375 693.983398438 250.016601562 857.719726562 451 857.719726562 c 4
 651.983398438 857.719726562 815.719726562 693.983398438 815.719726562 493 c 4
 815.719726562 292.016601562 651.983398438 128.280273438 451 128.280273438 c 4
 250.016601562 128.280273438 86.2802734375 292.016601562 86.2802734375 493 c 4
326.616210938 493.3515625 m 4
 326.616210938 424.046875 382.921875 367.616210938 451 367.616210938 c 4
 519.083007812 367.616210938 575.383789062 424.048828125 575.383789062 493.3515625 c 4
 575.383789062 561.641601562 520.515625 616.383789062 451 616.383789062 c 4
 381.48046875 616.383789062 326.616210938 561.635742188 326.616210938 493.3515625 c 4
EndSplineSet
PairPos2: "'kern' Horizontal Kerning lookup 4 subtable 1" uni06F2 dx=-100 dy=0 dh=-100 dv=0 dx=0 dy=0 dh=0 dv=0
PairPos2: "'kern' Horizontal Kerning lookup 4 subtable 1" uni06F3 dx=-100 dy=0 dh=-100 dv=0 dx=0 dy=0 dh=0 dv=0
PairPos2: "'kern' Horizontal Kerning lookup 4 subtable 1" uni06F4 dx=-10 dy=0 dh=-10 dv=0 dx=0 dy=0 dh=0 dv=0
PairPos2: "'kern' Horizontal Kerning lookup 4 subtable 1" uni06F7 dx=-100 dy=0 dh=-100 dv=0 dx=0 dy=0 dh=0 dv=0
PairPos2: "'kern' Horizontal Kerning lookup 4 subtable 1" uni06F8 dx=-46 dy=0 dh=-46 dv=0 dx=0 dy=0 dh=0 dv=0
PairPos2: "'kern' Horizontal Kerning lookup 4 subtable 1" uni06F6 dx=-20 dy=0 dh=-20 dv=0 dx=0 dy=0 dh=0 dv=0
EndChar

StartChar: uni06F4
Encoding: 131 1780 90
GlifName: uni06F_4
Width: 1193
VWidth: 2950
GlyphClass: 2
Flags: HW
LayerCount: 2
Fore
SplineSet
330.639648438 1278.796875 m 1
 402.625 1072.83886719 l 2
 407.124023438 1060.03027344 412.236328125 1045.7578125 415.63671875 1036.40039062 c 1
 472.206054688 1188.48632812 602.217773438 1327 801 1327 c 0
 872.490186292 1327 928.445903978 1315.4910932 973 1299.30139325 c 0
 1041.44201541 1274.43149817 1082.97878699 1238.51599178 1112.59179688 1216.30664062 c 1
 1097.38769531 1174.49511719 l 1
 1041.38769531 1020.49511719 l 1
 1018.38085938 957.227539062 l 1
 989.462853098 973.402072641 964.476238792 989.858167828 935 1002.61616428 c 4
 902.929788729 1016.4968919 865.544990375 1026 812 1026 c 0
 717.935546875 1026 652 940.14453125 652 834 c 0
 652 833.573242188 652.004882812 832.913085938 652.006835938 832.6953125 c 0
 656.443359375 830.838867188 663.201171875 828.354492188 671.000976562 825.568359375 c 0
 702.572265625 814.518554688 746.122070312 807 804 807 c 0
 884.905273438 807 958.658203125 828.885742188 1035.71679688 859.708984375 c 2
 1107.20117188 888.302734375 l 1
 1117.46484375 811.998046875 l 1
 1140.46484375 640.998046875 l 1
 1146.47949219 596.279296875 l 1
 1105.18652344 578.090820312 l 2
 1016.42773438 538.995117188 926.884765625 514 825 514 c 0
 700.469726562 514 596.650390625 540.036132812 513.504882812 582.857421875 c 1
 529.129882812 429.6484375 537 296.538085938 537 185 c 2
 537 60 l 1
 537 0 l 1
 477 0 l 1
 307 0 l 1
 247 0 l 1
 247 60 l 1
 247 188 l 2
 247 608.3359375 184.555664062 930.94921875 64.1259765625 1176.58691406 c 2
 34.6005859375 1236.81054688 l 1
 97.728515625 1259.47167969 l 1
 253.728515625 1315.47167969 l 1
 310.676757812 1335.91503906 l 1
 330.639648438 1278.796875 l 1
EndSplineSet
Substitution2: "'locl' Localized Forms in Arabic lookup 10 subtable" uni06F4.urdu
PairPos2: "'kern' Horizontal Kerning lookup 4 subtable 1" uni06F0 dx=-64 dy=0 dh=-64 dv=0 dx=0 dy=0 dh=0 dv=0
PairPos2: "'kern' Horizontal Kerning lookup 4 subtable 1" uni06F5 dx=-40 dy=0 dh=-40 dv=0 dx=0 dy=0 dh=0 dv=0
PairPos2: "'kern' Horizontal Kerning lookup 4 subtable 1" uni06F8 dx=-64 dy=0 dh=-64 dv=0 dx=0 dy=0 dh=0 dv=0
PairPos2: "'kern' Horizontal Kerning lookup 4 subtable 1" uni06F1 dx=-64 dy=0 dh=-64 dv=0 dx=0 dy=0 dh=0 dv=0
PairPos2: "'kern' Horizontal Kerning lookup 4 subtable 1" uni06F9 dx=-64 dy=0 dh=-64 dv=0 dx=0 dy=0 dh=0 dv=0
EndChar

StartChar: uni06F5
Encoding: 132 1781 91
GlifName: uni06F_5
Width: 1246
VWidth: 2950
GlyphClass: 2
Flags: HW
LayerCount: 2
Fore
SplineSet
396 290 m 0
 439 290 475.351732474 292.914987913 502 438 c 2
 511 487 l 1
 561 487 l 1
 685 487 l 1
 736 487 l 1
 744 437 l 2
 766.508580343 296.321372855 808 290 854 290 c 0
 880 290 906 301 906 384 c 0
 906 413.409202496 903.719635853 440.362628218 898.90896834 466 c 0
 875.584401235 590.303040479 792.77734375 663.66796875 622 856 c 5
 465.370117188 640.534179688 379.539990217 563.911776135 350.940580256 464 c 0
 343.569412267 438.248892305 340 412.279256003 340 384 c 0
 340 309 375 290 396 290 c 0
576 1317 m 6
 1001 922 1190 716 1190 385 c 0
 1190 138 1063 0 854 0 c 0
 762 0 681 44 626 111 c 1
 574 42 494 0 397 0 c 0
 194 0 56 143 56 385 c 0
 56 657 222 799 412 1063 c 5
 388 1087 l 5
 351 1124 l 5
 382 1166 l 5
 487 1309 l 5
 526 1363 l 5
 576 1317 l 6
EndSplineSet
PairPos2: "'kern' Horizontal Kerning lookup 4 subtable 1" uni06F2 dx=-100 dy=0 dh=-100 dv=0 dx=0 dy=0 dh=0 dv=0
PairPos2: "'kern' Horizontal Kerning lookup 4 subtable 1" uni06F3 dx=-100 dy=0 dh=-100 dv=0 dx=0 dy=0 dh=0 dv=0
PairPos2: "'kern' Horizontal Kerning lookup 4 subtable 1" uni06F4 dx=-42 dy=0 dh=-42 dv=0 dx=0 dy=0 dh=0 dv=0
PairPos2: "'kern' Horizontal Kerning lookup 4 subtable 1" uni06F6 dx=-42 dy=0 dh=-42 dv=0 dx=0 dy=0 dh=0 dv=0
PairPos2: "'kern' Horizontal Kerning lookup 4 subtable 1" uni06F7 dx=-100 dy=0 dh=-100 dv=0 dx=0 dy=0 dh=0 dv=0
PairPos2: "'kern' Horizontal Kerning lookup 4 subtable 1" uni06F8 dx=-38 dy=0 dh=-38 dv=0 dx=0 dy=0 dh=0 dv=0
EndChar

StartChar: uni06F6
Encoding: 133 1782 92
GlifName: uni06F_6
Width: 1009
VWidth: 2950
GlyphClass: 2
Flags: HW
LayerCount: 2
Fore
SplineSet
898 897 m 5
 918 828 l 5
 965 666 l 5
 979 616 l 5
 691 471 580 362 316 -58 c 1
 259 -33 l 1
 103 37 l 1
 51 61 l 5
 174 281 234 347 370 500 c 5
 182 558 73 694 73 849 c 4
 73 1080 246 1320 528 1320 c 4
 597 1320 692 1310 792 1244 c 6
 833 1217 l 5
 815 1172 l 5
 755 1021 l 5
 730 960 l 5
 672 989 l 6
 638.481445312 1006.26757812 613.473632812 1014.765625 592 1018.94726562 c 4
 571.19140625 1023 553.701171875 1023 535 1023 c 4
 449 1023 367 928 367 856 c 4
 367 833 394 761 612 739 c 5
 696 792 740 819 833 865 c 6
 898 897 l 5
EndSplineSet
Substitution2: "'locl' Localized Forms in Arabic lookup 10 subtable" uni0666
PairPos2: "'kern' Horizontal Kerning lookup 4 subtable 1" uni06F7 dx=-40 dy=0 dh=-40 dv=0 dx=0 dy=0 dh=0 dv=0
PairPos2: "'kern' Horizontal Kerning lookup 4 subtable 1" uni06F8 dx=-40 dy=0 dh=-40 dv=0 dx=0 dy=0 dh=0 dv=0
PairPos2: "'kern' Horizontal Kerning lookup 4 subtable 1" uni06F9 dx=-30 dy=0 dh=-30 dv=0 dx=0 dy=0 dh=0 dv=0
EndChar

StartChar: uniFB8F
Encoding: 174 64399 107
GlifName: uniF_B_8F_
Width: 1941
VWidth: 2950
GlyphClass: 2
Flags: HW
AnchorPoint: "Anchor-10" 1193.88 1404.67 basechar 0
AnchorPoint: "Anchor-7" 900.268 -166.468 basechar 0
LayerCount: 2
Fore
SplineSet
1246.01367188 1027.35546875 m 1
 1474.22701003 833.42066289 1603.67309026 779.351548245 1699.52539062 512.122070312 c 0
 1754.00390625 357.918945312 1830.7890625 300 1933 300 c 2
 1961 300 l 1
 1961 240 l 1
 1961 60 l 1
 1961 0 l 1
 1933 0 l 2
 1794.09082031 0 1675.69042969 52.630859375 1584.03320312 146.924804688 c 1
 1472.20507812 42.11328125 1287.66113281 0 1030 0 c 2
 838 0 l 2
 351.694335938 0 38 173.067382812 38 544 c 0
 38 642.030273438 60.0283203125 736.077148438 96.8876953125 821.719726562 c 2
 119.454101562 874.153320312 l 1
 172.946289062 854.224609375 l 1
 325.946289062 797.224609375 l 1
 382.29296875 776.233398438 l 1
 361.1796875 719.932617188 l 2
 342.565429688 670.294921875 333 619.234375 333 569.13671875 c 0
 333.762695312 401.265625 465.3359375 300 828 300 c 6
 1030 300 l 2
 1327.08300781 300 1406 368.1953125 1406 433 c 0
 1406 475.759765625 1382.6484375 526.176757812 1319.95214844 585.23828125 c 0
 1214.92578125 683.329101562 1124.75097656 742.51171875 1051.20703125 799.60546875 c 0
 967.706054688 864.428710938 915 941.799804688 915 1032 c 0
 915 1053.09960938 917.307617188 1073.76660156 922.173828125 1093.67578125 c 0
 942.602539062 1177.26855469 1007 1237 1092.03027344 1269.16308594 c 2
 1803.1328125 1533.99316406 l 1
 1803.1328125 1447.73535156 l 1
 1803.1328125 1276.73535156 l 1
 1803.1328125 1234.99609375 l 1
 1246.01367188 1027.35546875 l 1
EndSplineSet
EndChar

StartChar: uniFB9F
Encoding: 182 64415 115
GlifName: uniF_B_9F_
Width: 1528
VWidth: 2950
GlyphClass: 2
Flags: HW
AnchorPoint: "Anchor-10" 687.458 1424.61 basechar 0
AnchorPoint: "Anchor-7" 579.902 -742.086 basechar 0
LayerCount: 2
Fore
SplineSet
1117 160 m 0
 1117 272 1089 387 1033 503 c 2
 1004 564 l 1
 1067 586 l 1
 1236 644 l 1
 1294 664 l 1
 1313 606 l 1
 1385 380 l 2
 1405 318 1426 300 1508 300 c 2
 1548 300 l 5
 1548 240 l 5
 1548 60 l 5
 1548 0 l 5
 1512 0 l 2
 1468 0 1427 5 1395 16 c 1
 1349 -333 1086 -520 721 -520 c 0
 280 -520 38 -300 38 116 c 0
 38 265 71 416 133 568 c 2
 155 624 l 1
 211 601 l 1
 366 537 l 1
 420 515 l 1
 399 460 l 2
 353 339 330 227 330 121 c 0
 330 -117 446 -227 728 -227 c 0
 997 -227 1116 -110 1117 160 c 0
EndSplineSet
EndChar

StartChar: uniFBE8
Encoding: 198 64488 118
GlifName: uniF_B_E_8
Width: 672
VWidth: 2950
GlyphClass: 2
Flags: HW
AnchorPoint: "Anchor-10" 311.384 1411 basechar 0
AnchorPoint: "Anchor-7" 303.422 -165.625 basechar 0
LayerCount: 2
Fore
SplineSet
583.5 815.139648438 m 2
 616.393554688 704.786132812 634 579.783203125 634 476 c 0
 634 150.067382812 455.973632812 0 129 0 c 2
 -20 0 l 5
 -20 60 l 5
 -20 240 l 5
 -20 300 l 5
 129 300 l 2
 313.5234375 300 343 313.411132812 343 473 c 0
 343 544.282226562 329.459960938 653.940429688 307.684570312 743.881835938 c 2
 293.670898438 801.764648438 l 1
 351.448242188 816.208984375 l 1
 511.448242188 856.208984375 l 1
 567.110351562 870.124023438 l 1
 583.5 815.139648438 l 2
EndSplineSet
EndChar

StartChar: uniFBE9
Encoding: 199 64489 119
GlifName: uniF_B_E_9
Width: 767
VWidth: 2950
GlyphClass: 2
Flags: HW
AnchorPoint: "Anchor-10" 315.665 1355.09 basechar 0
AnchorPoint: "Anchor-7" 380.537 -119.742 basechar 0
LayerCount: 2
Fore
SplineSet
763 0 m 2
 643.454101562 0 550.747070312 35.0869140625 486.236328125 107.80078125 c 1
 396.798828125 31.9833984375 273.139648438 0 129 0 c 2
 -20 0 l 1
 -20 60 l 1
 -20 240 l 1
 -20 300 l 1
 131 300 l 2
 317.380859375 300 342.235351562 324.84375 343 447.1875 c 0
 343 509.717773438 339.279296875 582.809570312 335.1328125 645.008789062 c 2
 331.33203125 702.025390625 l 1
 388.094726562 708.6015625 l 1
 552.094726562 727.6015625 l 1
 614.793945312 734.865234375 l 1
 618.874023438 671.87890625 l 1
 634.872070312 424.91796875 l 2
 641.172851562 329.624023438 672.030273438 300 765 300 c 2
 787 300 l 5
 787 240 l 5
 787 60 l 5
 787 0 l 5
 763 0 l 2
EndSplineSet
EndChar

StartChar: uniFE73
Encoding: 211 65139 127
GlifName: uniF_E_73
Width: 672
VWidth: 2950
GlyphClass: 2
Flags: HW
AnchorPoint: "Anchor-10" 342.943 1070.47 basechar 0
AnchorPoint: "Anchor-7" 416.943 -148.304 basechar 0
LayerCount: 2
Fore
SplineSet
358.336914062 484.018554688 m 2
 358.336914062 362.48046875 421.290039062 300.342773438 618.00390625 300.342773438 c 2
 684.674804688 300.342773438 l 1
 686.674804688 300.342773438 l 1
 696.674804688 300.342773438 l 5
 696.674804688 240.342773438 l 5
 696.674804688 238.342773438 l 5
 696.674804688 63.5537109375 l 5
 696.674804688 61.5537109375 l 5
 696.674804688 1.5537109375 l 5
 686.674804688 1.5537109375 l 1
 684.674804688 1.5537109375 l 1
 607.981445312 1.5537109375 l 2
 255.383789062 1.869140625 51.544921875 167.966796875 51.544921875 486.563476562 c 2
 51.544921875 506.69140625 l 1
 51.544921875 508.69140625 l 1
 51.544921875 568.69140625 l 1
 111.544921875 568.69140625 l 1
 113.544921875 568.69140625 l 1
 296.336914062 568.69140625 l 1
 298.336914062 568.69140625 l 1
 358.336914062 568.69140625 l 1
 358.336914062 508.69140625 l 1
 358.336914062 506.69140625 l 1
 358.336914062 484.018554688 l 2
EndSplineSet
EndChar

StartChar: uniFE8E
Encoding: 237 65166 153
GlifName: uniF_E_8E_
Width: 527
VWidth: 2950
GlyphClass: 2
Flags: HW
AnchorPoint: "Anchor-10" 230.697 1501.11 basechar 0
AnchorPoint: "Anchor-7" 292.078 -181.903 basechar 0
LayerCount: 2
Fore
SplineSet
522 0 m 2
 249 0 88 150 88 465 c 2
 88 1306 l 1
 88 1366 l 1
 148 1366 l 1
 317 1366 l 1
 377 1366 l 1
 377 1306 l 1
 377 464 l 2
 377 322 417 300 522 300 c 2
 547 300 l 1
 547 240 l 1
 547 60 l 1
 547 0 l 1
 522 0 l 2
EndSplineSet
EndChar

StartChar: uniFEA2
Encoding: 257 65186 173
GlifName: uniF_E_A_2
Width: 1378
VWidth: 2950
GlyphClass: 2
Flags: HW
AnchorPoint: "Anchor-7" 690.833 -770.619 basechar 0
AnchorPoint: "Anchor-10" 601.478 1236.07 basechar 0
LayerCount: 2
Fore
SplineSet
784 -677 m 0
 364 -677 39 -497 39 -91 c 0
 39 223 261 486 650 620 c 1
 556 657 494 676 477 676 c 0
 427 676 365 639 324 585 c 2
 297 550 l 1
 266 511 l 1
 222 533 l 1
 71 608 l 1
 14 637 l 1
 46 692 l 1
 61 719 l 1
 154 870 302 974 478 974 c 0
 580 974 687 930 807 872 c 0
 1012 772 1129 733 1231 728 c 2
 1292 725 l 1
 1288 664 l 2
 1284 606 1279 550 1275 494 c 2
 1271 442 l 1
 1219 438 l 2
 1171 435 1126 430 1083 425 c 1
 1096 325 1136 300 1300 300 c 2
 1398 300 l 5
 1398 240 l 5
 1398 60 l 5
 1398 0 l 5
 1303 0 l 2
 1020 0 841 97 814 367 c 1
 470 254 325 80 325 -75 c 0
 325 -278 453 -386 798 -386 c 0
 962.560546875 -386 1085.43261719 -344.145507812 1222 -280 c 1
 1237.35449219 -354.580078125 l 1
 1272.35449219 -524.580078125 l 1
 1281.82519531 -570.580078125 l 1
 1127.49609375 -644.290039062 991.703125 -677 784 -677 c 0
EndSplineSet
EndChar

StartChar: uniFEA3
Encoding: 258 65187 174
GlifName: uniF_E_A_3
Width: 1334
VWidth: 2950
GlyphClass: 2
Flags: HW
AnchorPoint: "Anchor-7" 553.524 -196.745 basechar 0
AnchorPoint: "Anchor-10" 591.825 1170.07 basechar 0
LayerCount: 2
Fore
SplineSet
-20 60 m 1
 -20 240 l 1
 -20 300 l 1
 143 300 l 2
 375.338867188 300 543.721679688 375.88671875 806.11328125 510.58984375 c 1
 785.76171875 519.047851562 766.619140625 526.889648438 740.500976562 537.377929688 c 0
 605.342773438 592.442382812 518.25390625 622 495 622 c 0
 445.033203125 622 382.895507812 585.41015625 341.57421875 531.438476562 c 2
 314.506835938 496.3515625 l 1
 284.421875 457.353515625 l 1
 240.309570312 479.263671875 l 1
 89.3095703125 554.263671875 l 1
 32.1171875 582.669921875 l 1
 64.029296875 637.983398438 l 1
 79.4296875 664.678710938 l 1
 172.267578125 816.092773438 319.62109375 920 496 920 c 0
 598.040039062 920 705.170898438 875.958007812 825.204101562 817.975585938 c 0
 1030.61816406 717.749023438 1147.59277344 679.215820312 1249.12597656 673.918945312 c 2
 1306.67382812 670.916015625 l 1
 1305.99609375 613.293945312 l 1
 1303.99609375 443.293945312 l 1
 1303.37109375 390.227539062 l 1
 1250.62597656 384.3671875 l 2
 1186.00292969 377.186523438 1092.77636719 338.815429688 889.03125 230.950195312 c 0
 643.48828125 101.452148438 425.377929688 0 140 0 c 2
 -20 0 l 1
 -20 60 l 1
EndSplineSet
Position2: "Single Positioning lookup 2 subtable" dx=0 dy=0 dh=-178 dv=0
Position2: "Single Positioning lookup 1 subtable" dx=0 dy=0 dh=-173 dv=0
EndChar

StartChar: uniFEA4
Encoding: 259 65188 175
GlifName: uniF_E_A_4
Width: 1351
VWidth: 2950
GlyphClass: 2
Flags: HW
AnchorPoint: "Anchor-7" 553.524 -196.745 basechar 0
AnchorPoint: "Anchor-10" 591.825 1170.07 basechar 0
LayerCount: 2
Fore
SplineSet
1250.62597656 384.3671875 m 2
 1212.15722656 380.092773438 1168.03125 370.848632812 1112.62011719 348.677734375 c 1
 1128.37304688 326.5 1185.01464844 300 1317 300 c 2
 1371 300 l 1
 1371 240 l 1
 1371 60 l 1
 1371 0 l 1
 1313 0 l 2
 1095.78027344 0 931.607421875 58.4697265625 872.44140625 223.228515625 c 1
 641.1171875 101.615234375 402.091796875 0 140 0 c 2
 -20 0 l 1
 -20 60 l 1
 -20 240 l 1
 -20 300 l 1
 143 300 l 2
 375.338867188 300 543.721679688 375.88671875 806.11328125 510.58984375 c 1
 785.76171875 519.047851562 766.619140625 526.889648438 740.500976562 537.377929688 c 0
 605.342773438 592.442382812 518.25390625 622 495 622 c 0
 445.033203125 622 382.895507812 585.41015625 341.57421875 531.438476562 c 2
 314.506835938 496.3515625 l 1
 284.421875 457.353515625 l 1
 240.309570312 479.263671875 l 1
 89.3095703125 554.263671875 l 1
 32.1171875 582.669921875 l 1
 64.029296875 637.983398438 l 1
 79.4296875 664.678710938 l 1
 172.267578125 816.092773438 319.62109375 920 496 920 c 0
 598.040039062 920 705.170898438 875.958007812 825.204101562 817.975585938 c 0
 1030.61816406 717.749023438 1147.59277344 679.215820312 1249.12597656 673.918945312 c 2
 1306.67382812 670.916015625 l 1
 1305.99609375 613.293945312 l 1
 1303.99609375 443.293945312 l 1
 1303.37109375 390.227539062 l 1
 1250.62597656 384.3671875 l 2
EndSplineSet
EndChar

StartChar: uniFEAA
Encoding: 265 65194 181
GlifName: uniF_E_A_A_
Width: 1055
VWidth: 2950
GlyphClass: 2
Flags: HW
AnchorPoint: "Anchor-7" 401.24 -181.316 basechar 0
AnchorPoint: "Anchor-10" 506.848 1213.53 basechar 0
LayerCount: 2
Fore
SplineSet
112.276367188 327.71484375 m 2
 188.51171875 309.0390625 246.180664062 301 307 301 c 0
 542.14453125 301 593.79296875 356.78125 594.0078125 406.52734375 c 0
 593.66796875 417.541992188 567.311523438 503.3828125 507.640625 643.265625 c 2
 387.40234375 925.479492188 l 1
 364.5546875 979.107421875 l 1
 417.5 1003.49414062 l 1
 578.814453125 1077.79589844 l 1
 636.587890625 1104.40625 l 1
 659.784179688 1045.1796875 l 1
 867.862304688 513.895507812 l 2
 945.385742188 316.111328125 991.58203125 300 1033 300 c 2
 1075 300 l 5
 1075 240 l 5
 1075 60 l 5
 1075 0 l 5
 1033 0 l 2
 923.412109375 0 830.887695312 47.9384765625 763.037109375 129.883789062 c 1
 656.973632812 41.162109375 510.612304688 1 322 1 c 0
 226.795898438 1 152.012695312 10.837890625 83.947265625 27.236328125 c 2
 38 38.3056640625 l 1
 38 85.5673828125 l 1
 38 269.4375 l 1
 38 345.91015625 l 1
 112.276367188 327.71484375 l 2
EndSplineSet
EndChar

StartChar: uniFEAE
Encoding: 269 65198 185
GlifName: uniF_E_A_E_
Width: 860
VWidth: 2142
GlyphClass: 2
Flags: HW
AnchorPoint: "Anchor-7" 322.969 -579.998 basechar 0
AnchorPoint: "Anchor-10" 493.256 908.2 basechar 0
LayerCount: 2
Fore
SplineSet
455 190 m 0
 455 271 430 392 382 505 c 2
 358 564 l 1
 417 585 l 1
 579 644 l 1
 638 665 l 1
 657 606 l 1
 718 414 l 2
 747 324 779 300 841 300 c 2
 880 300 l 1
 880 240 l 1
 880 60 l 1
 880 0 l 1
 852 0 l 2
 800 0 758 4 723 15 c 1
 662 -273 427 -459 61 -527 c 2
 13 -536 l 1
 -6 -490 l 1
 -66 -335 l 1
 -93 -268 l 1
 -21 -255 l 2
 313 -191 453 -44 455 190 c 0
EndSplineSet
EndChar

StartChar: uniFEB2
Encoding: 273 65202 189
GlifName: uniF_E_B_2
Width: 2553
GlyphClass: 2
Flags: HW
AnchorPoint: "Anchor-7" 710.902 -656.086 basechar 0
AnchorPoint: "Anchor-10" 1749.53 1008.1 basechar 0
LayerCount: 2
Fore
SplineSet
1531 0 m 0
 1482 0 1435 7 1396 21 c 1
 1377 -137 1317 -265 1213 -358 c 0
 1090 -468 923 -520 721 -520 c 0
 281 -520 38 -300 38 116 c 0
 38 265 70 416 133 568 c 2
 155 623 l 1
 211 601 l 1
 366 538 l 1
 420 516 l 1
 399 461 l 2
 352 338 330 224 330 121 c 0
 330 -117 446 -227 728 -227 c 0
 999 -227 1116 -110 1117 160 c 0
 1117 270 1090 384 1033 503 c 2
 1004 564 l 1
 1068 586 l 1
 1237 644 l 1
 1294 664 l 1
 1313 605 l 1
 1372 422 l 2
 1401 333 1441 301 1533 300 c 0
 1630 300 1658 333 1658 449 c 0
 1658 477 1655 536 1648 622 c 2
 1644 680 l 1
 1701 687 l 1
 1866 707 l 1
 1928 714 l 1
 1933 651 l 1
 1949 425 l 2
 1955 337 1986 300 2048 300 c 0
 2094 300 2127 319 2127 447 c 0
 2127 489 2124 555 2117 644 c 2
 2113 701 l 1
 2170 708 l 1
 2335 728 l 1
 2398 735 l 1
 2402 672 l 1
 2418 425 l 2
 2424 329 2457 300 2543 300 c 2
 2573 300 l 5
 2573 240 l 5
 2573 60 l 5
 2573 0 l 5
 2545 0 l 2
 2440 0 2346 27 2283 94 c 1
 2223 29 2144 0 2049 0 c 0
 1948 0 1861 34 1800 104 c 1
 1727 35 1634 0 1531 0 c 0
EndSplineSet
EndChar

StartChar: uniFEB3
Encoding: 274 65203 190
GlifName: uniF_E_B_3
Width: 1562
GlyphClass: 2
Flags: HW
AnchorPoint: "Anchor-7" 754.902 -192.086 basechar 0
AnchorPoint: "Anchor-10" 849.53 976.1 basechar 0
LayerCount: 2
Fore
SplineSet
1153 300 m 0
 1194 300 1232 322 1232 462 c 0
 1232 525 1218 608 1190 710 c 2
 1174 768 l 1
 1232 784 l 1
 1400 829 l 1
 1456 844 l 1
 1473 789 l 2
 1507 682 1524 578 1524 477 c 0
 1524 239 1431 1 1154 0 c 0
 1053 0 965 34 904 104 c 1
 831 35 740 0 636 0 c 0
 525 0 431 32 367 102 c 1
 289 30 180 0 49 0 c 2
 -20 0 l 5
 -20 60 l 5
 -20 240 l 5
 -20 300 l 5
 51 300 l 2
 196 300 233 327 233 449 c 0
 233 480 230 538 223 622 c 2
 218 680 l 1
 276 687 l 1
 441 707 l 1
 503 714 l 1
 508 651 l 1
 524 425 l 2
 530 339 565 300 638 300 c 0
 734 300 763 334 763 449 c 0
 763 478 760 536 753 622 c 2
 749 680 l 1
 806 687 l 1
 971 707 l 1
 1033 714 l 1
 1038 651 l 1
 1054 425 l 2
 1060 337 1091 300 1153 300 c 0
EndSplineSet
Position2: "Single Positioning lookup 2 subtable" dx=0 dy=0 dh=-178 dv=0
Position2: "Single Positioning lookup 1 subtable" dx=0 dy=0 dh=-173 dv=0
EndChar

StartChar: uniFEB4
Encoding: 275 65204 191
GlifName: uniF_E_B_4
Width: 1658
GlyphClass: 2
Flags: HW
AnchorPoint: "Anchor-10" 849.53 976.1 basechar 0
AnchorPoint: "Anchor-7" 754.902 -192.086 basechar 0
LayerCount: 2
Fore
SplineSet
367 101 m 1
 290 29 181 0 49 0 c 2
 -20 0 l 1
 -20 60 l 1
 -20 240 l 1
 -20 300 l 1
 51 300 l 2
 196 300 233 327 233 449 c 0
 233 479 230 538 223 622 c 2
 219 680 l 1
 276 687 l 1
 441 707 l 1
 503 714 l 1
 508 651 l 1
 524 425 l 2
 531 339 564 300 638 300 c 0
 735 300 763 333 763 449 c 0
 763 477 760 536 753 622 c 2
 749 680 l 1
 806 687 l 1
 971 707 l 1
 1033 714 l 1
 1038 651 l 1
 1054 425 l 2
 1060 337 1091 300 1153 300 c 0
 1199 300 1232 319 1232 447 c 0
 1232 489 1229 555 1222 644 c 2
 1218 701 l 1
 1275 708 l 1
 1440 728 l 1
 1503 735 l 1
 1507 672 l 1
 1523 425 l 2
 1529 329 1562 300 1648 300 c 2
 1678 300 l 5
 1678 240 l 5
 1678 60 l 5
 1678 0 l 5
 1650 0 l 2
 1545 0 1451 27 1388 94 c 1
 1328 29 1249 0 1154 0 c 0
 1053 0 966 34 905 104 c 1
 832 35 740 0 636 0 c 0
 525 1 431 31 367 101 c 1
EndSplineSet
EndChar

StartChar: uniFEBA
Encoding: 281 65210 197
GlifName: uniF_E_B_A_
Width: 2610
VWidth: 3010
GlyphClass: 2
Flags: HW
AnchorPoint: "Anchor-10" 2052.53 1188.1 basechar 0
AnchorPoint: "Anchor-7" 710.902 -656.086 basechar 0
LayerCount: 2
Fore
SplineSet
1752.796875 301 m 2
 2125.00097656 301 2239 382.70703125 2239 473 c 0
 2239 550.2265625 2187.99121094 605 2104 605 c 0
 2003.28320312 605 1870.15625 512.7109375 1718.51660156 300.768554688 c 1
 1752.796875 301 l 2
1117 160.100585938 m 0
 1117 272.676757812 1088.69726562 386.73046875 1032.90136719 503.05078125 c 2
 1003.73339844 563.858398438 l 1
 1067.5234375 585.750976562 l 1
 1236.5234375 643.750976562 l 1
 1294.34667969 663.595703125 l 1
 1313.10546875 605.411132812 l 1
 1372.17578125 422.192382812 l 2
 1381.72167969 391.787109375 1391.56152344 369.639648438 1400.62988281 354.426757812 c 1
 1619.92578125 707.522460938 1847.4375 907 2096 907 c 0
 2351.16699219 907 2537 725.466796875 2537 482 c 0
 2537 418.065429688 2519.28320312 356.211914062 2493.90527344 302.850585938 c 1
 2521.82421875 301.073242188 2556.72460938 300 2600 300 c 2
 2630 300 l 5
 2630 240 l 5
 2630 60 l 5
 2630 0 l 5
 2601 0 l 2
 2452.51367188 0 2337.84570312 28.3818359375 2253.296875 83.0263671875 c 1
 2133.19042969 28.240234375 1966.74316406 0 1757 0 c 2
 1706 0 l 2
 1579.0078125 0 1476.42382812 11.14453125 1397.2421875 33.060546875 c 1
 1358.91210938 -334.838867188 1090.90625 -520 721 -520 c 0
 280.41015625 -520 38 -299.8203125 38 116 c 0
 38 264.638671875 69.9482421875 415.587890625 132.50390625 567.806640625 c 2
 155.22265625 623.088867188 l 1
 210.591796875 600.583984375 l 1
 365.591796875 537.583984375 l 1
 419.8203125 515.54296875 l 1
 399.125 460.787109375 l 2
 353.048828125 338.876953125 330 227.215820312 330 121 c 0
 330 -117.349609375 445.8359375 -227 728 -227 c 0
 996.915039062 -227 1116.09570312 -109.502929688 1117 160.100585938 c 0
EndSplineSet
EndChar

StartChar: uniFEBB
Encoding: 282 65211 198
GlifName: uniF_E_B_B_
Width: 1654
VWidth: 2950
GlyphClass: 2
Flags: HW
AnchorPoint: "Anchor-10" 1112.53 1188.1 basechar 0
AnchorPoint: "Anchor-7" 679.209 -182.348 basechar 0
LayerCount: 2
Fore
SplineSet
831.796875 301 m 2
 1204.00097656 301 1318 382.70703125 1318 473 c 0
 1318 550.2265625 1266.99121094 605 1183 605 c 0
 1082.28320312 605 949.15625 512.7109375 797.516601562 300.768554688 c 1
 831.796875 301 l 2
486.581054688 365.41015625 m 1
 703.951171875 711.00390625 928.907226562 907 1175 907 c 0
 1430.16699219 907 1616 725.555664062 1616 481.893554688 c 0
 1614.81347656 148.583007812 1320.03710938 0 836 0 c 2
 785 0 l 2
 573.540039062 0 423.032226562 31.63671875 328.50390625 114.758789062 c 1
 253.567382812 38.34765625 157.775390625 0 20 0 c 2
 -20.333984375 0 l 5
 -19.9990234375 60.3330078125 l 5
 -18.9990234375 240.333007812 l 5
 -18.66796875 300 l 5
 20 300 l 2
 171.184570312 300 183 329.060546875 183 448 c 0
 183 504.9296875 178.09765625 583.537109375 175.072265625 645.052734375 c 2
 172.331054688 700.801757812 l 1
 227.736328125 707.55859375 l 1
 391.736328125 727.55859375 l 1
 454.262695312 735.18359375 l 1
 458.841796875 672.361328125 l 1
 476.831054688 425.506835938 l 2
 478.758789062 400.71484375 482.408203125 380.048828125 486.581054688 365.41015625 c 1
EndSplineSet
Position2: "Single Positioning lookup 2 subtable" dx=0 dy=0 dh=-178 dv=0
Position2: "Single Positioning lookup 1 subtable" dx=0 dy=0 dh=-173 dv=0
EndChar

StartChar: uniFEBC
Encoding: 283 65212 199
GlifName: uniF_E_B_C_
Width: 1689
VWidth: 3010
GlyphClass: 2
Flags: HW
AnchorPoint: "Anchor-10" 1112.53 1188.1 basechar 0
AnchorPoint: "Anchor-7" 679.209 -182.348 basechar 0
LayerCount: 2
Fore
SplineSet
831.796875 301 m 2
 1204.00097656 301 1318 382.70703125 1318 473 c 0
 1318 550.2265625 1266.99121094 605 1183 605 c 0
 1082.28320312 605 949.15625 512.7109375 797.516601562 300.768554688 c 1
 831.796875 301 l 2
486.6015625 365.337890625 m 1
 705.08984375 712.125 929.965820312 907 1176 907 c 0
 1432.64453125 907 1616 723.826171875 1616 480 c 0
 1616 416.34765625 1598.00390625 355.936523438 1572.55273438 302.701171875 c 1
 1603.83203125 300.89453125 1636.55371094 300 1679 300 c 2
 1709 300 l 5
 1709 240 l 5
 1709 60 l 5
 1709 0 l 5
 1679 0 l 2
 1530.55664062 0 1416.59960938 28.40625 1332.2734375 83.015625 c 1
 1212.21777344 28.2529296875 1045.73046875 0 836 0 c 2
 785 0 l 2
 575.122070312 0 423.971679688 32.236328125 328.939453125 115.205078125 c 1
 254.451171875 38.9033203125 158.133789062 0 20 0 c 2
 -20 0 l 1
 -20 60 l 1
 -20 240 l 1
 -20 300 l 1
 19 300 l 2
 171.232421875 300 183 330.30859375 183 447 c 0
 183 505.999023438 178.100585938 583.473632812 175.072265625 645.052734375 c 2
 172.331054688 700.801757812 l 1
 227.736328125 707.55859375 l 1
 391.736328125 727.55859375 l 1
 454.262695312 735.18359375 l 1
 458.841796875 672.361328125 l 1
 476.831054688 425.506835938 l 2
 478.762695312 400.670898438 482.3828125 380.137695312 486.6015625 365.337890625 c 1
EndSplineSet
EndChar

StartChar: uniFEC2
Encoding: 289 65218 205
GlifName: uniF_E_C_2
Width: 1510
VWidth: 3010
GlyphClass: 2
Flags: HW
AnchorPoint: "Anchor-7" 636.602 -178.453 basechar 0
AnchorPoint: "Anchor-10" 470.36 1496.78 basechar 0
LayerCount: 2
Fore
SplineSet
648.796875 302 m 2
 1021.00097656 302 1135 383.70703125 1135 474 c 0
 1135 551.653320312 1084.69726562 606 1001 606 c 0
 900.2265625 606 766.1484375 513.416015625 614.557617188 301.768554688 c 1
 648.796875 302 l 2
1388.0703125 302.234375 m 1
 1419.43652344 300.7578125 1455.45800781 300 1500 300 c 2
 1530 300 l 1
 1530 240 l 1
 1530 60 l 1
 1530 0 l 1
 1501 0 l 2
 1339.41894531 0 1231.52539062 31.669921875 1154.38378906 82.59375 c 1
 1034.57714844 31.224609375 856.6640625 0 653 0 c 2
 98 0 l 1
 38 0 l 1
 38 60 l 1
 38 240 l 1
 38 300 l 1
 98 300 l 1
 286.759765625 300 l 1
 302.8828125 325.446289062 318.984375 350.302734375 333 372.91796875 c 1
 333 1306 l 5
 333 1366 l 5
 393 1366 l 5
 562 1366 l 5
 622 1366 l 5
 622 1306 l 5
 622 748.405273438 l 1
 733.959960938 850.368164062 856.443359375 907 992 907 c 0
 1246.28515625 907 1432 725.39453125 1432 482 c 0
 1432 419.439453125 1413.8984375 357.462890625 1388.0703125 302.234375 c 1
EndSplineSet
EndChar

StartChar: uniFEC3
Encoding: 290 65219 206
GlifName: uniF_E_C_3
Width: 1293
VWidth: 2950
GlyphClass: 2
Flags: HW
AnchorPoint: "Anchor-7" 481.602 -178.453 basechar 0
AnchorPoint: "Anchor-10" 292.36 1495.78 basechar 0
LayerCount: 2
Fore
SplineSet
470.796875 302 m 2
 843.000976562 302 957 383.70703125 957 474 c 0
 957 551.2265625 905.991210938 606 822 606 c 0
 721.283203125 606 588.15625 513.7109375 436.516601562 301.768554688 c 1
 470.796875 302 l 2
444 746.947265625 m 1
 557.697265625 849.5546875 682.725585938 907 819 907 c 0
 1071.23144531 907 1255 721.875976562 1255 482 c 0
 1255 148.764648438 960.981445312 0 476 0 c 2
 -20 0 l 1
 -20 60 l 1
 -20 240 l 1
 -20 300 l 1
 107.416992188 300 l 1
 123.654296875 324.760742188 140.845703125 350.51953125 155 372.5078125 c 1
 155 1306 l 5
 155 1366 l 5
 215 1366 l 5
 384 1366 l 5
 444 1366 l 5
 444 1306 l 5
 444 746.947265625 l 1
EndSplineSet
Position2: "Single Positioning lookup 2 subtable" dx=0 dy=0 dh=-178 dv=0
Position2: "Single Positioning lookup 1 subtable" dx=0 dy=0 dh=-173 dv=0
EndChar

StartChar: uniFEC4
Encoding: 291 65220 207
GlifName: uniF_E_C_4
Width: 1332
VWidth: 3010
GlyphClass: 2
Flags: HW
AnchorPoint: "Anchor-10" 289.36 1493.78 basechar 0
AnchorPoint: "Anchor-7" 481.602 -178.453 basechar 0
LayerCount: 2
Fore
SplineSet
470.796875 302 m 2
 843.000976562 302 957 383.70703125 957 474 c 0
 957 551.2265625 905.991210938 606 822 606 c 0
 721.283203125 606 588.15625 513.7109375 436.516601562 301.768554688 c 1
 470.796875 302 l 2
1210.32128906 302.201171875 m 1
 1242.63476562 300.706054688 1277.26074219 300 1322 300 c 2
 1352 300 l 1
 1352 240 l 1
 1352 60 l 1
 1352 0 l 1
 1321 0 l 2
 1159.47753906 0 1053.80371094 32.12109375 976.322265625 83.533203125 c 1
 857.111328125 32.2001953125 679.734375 0 476 0 c 2
 -20 0 l 1
 -20 60 l 1
 -20 240 l 1
 -20 300 l 1
 108.62890625 300 l 1
 125.125976562 326.35546875 140.263671875 350.123046875 155 373.385742188 c 1
 155 1306 l 5
 155 1366 l 5
 215 1366 l 5
 384 1366 l 5
 444 1366 l 5
 444 1306 l 5
 444 746.73046875 l 1
 557.260742188 849.229492188 680.8828125 907 816 907 c 0
 1068.66015625 907 1255 723.408203125 1255 482 c 0
 1255 419.221679688 1236.18261719 356.803710938 1210.32128906 302.201171875 c 1
EndSplineSet
EndChar

StartChar: uniFECA
Encoding: 297 65226 213
GlifName: uniF_E_C_A_
Width: 1199
VWidth: 3010
GlyphClass: 2
Flags: HW
AnchorPoint: "Anchor-7" 610.833 -770.619 basechar 0
AnchorPoint: "Anchor-10" 574.833 1226.24 basechar 0
LayerCount: 2
Fore
SplineSet
603 539 m 1
 699 593 768 637 808 668 c 1
 765 675 701 678 616 678 c 0
 521 678 449 671 411 662 c 1
 446 632 512 590 603 539 c 1
689 -663 m 0
 330.227539062 -663 38 -490.3203125 38 -138 c 0
 38 73.5478515625 160.708007812 244.051757812 336.772460938 374.8828125 c 1
 198.548828125 468.744140625 108 569.920898438 108 689 c 0
 108 913.352539062 422.399414062 966 616 966 c 0
 812.045898438 966 1114 925.087890625 1114 693 c 0
 1114 577.331054688 1012.88085938 473.306640625 861.567382812 367.420898438 c 1
 947.865234375 322.646484375 1034.75878906 300 1159 300 c 2
 1219 300 l 1
 1219 240 l 1
 1219 60 l 1
 1219 0 l 1
 1159 0 l 2
 961.02734375 0 787.416015625 71.123046875 599.221679688 198.086914062 c 1
 418.442382812 90.1669921875 325 -22.8359375 325 -138 c 0
 325 -267.766738876 433.075167728 -372.004530415 693.690934153 -372.004530415 c 0
 819.635705131 -372.004530415 931.899194162 -336.701572062 1047.6640625 -288.799804688 c 1
 1062.30175781 -359.89453125 l 1
 1097.30175781 -529.89453125 l 1
 1107 -577 l 1
 976.971679688 -635.451171875 863.566092234 -663 689 -663 c 0
EndSplineSet
EndChar

StartChar: uniFECB
Encoding: 298 65227 214
GlifName: uniF_E_C_B_
Width: 1057
VWidth: 2950
GlyphClass: 2
Flags: HW
AnchorPoint: "Anchor-10" 550.493 1247.05 basechar 0
AnchorPoint: "Anchor-7" 484.511 -177.021 basechar 0
LayerCount: 2
Fore
SplineSet
976.834960938 149.711914062 m 2
 654.201171875 49.26953125 357.262695312 0 85 0 c 2
 -20 0 l 5
 -20 60 l 5
 -20 240 l 5
 -20 300 l 5
 163.219726562 300 l 1
 131.91796875 357.077148438 111 422.911132812 111 506 c 0
 111 764.469726562 294.655273438 989 585 989 c 0
 739.686523438 989 869.505859375 936.469726562 970.66015625 834.19140625 c 2
 999.583007812 804.947265625 l 1
 982.736328125 767.424804688 l 1
 916.736328125 620.424804688 l 1
 884.86328125 549.434570312 l 1
 824.3125 598.3125 l 2
 747.983398438 659.928710938 681.051757812 686.02734375 616.624023438 687 c 0
 483.7265625 686.620117188 401 600.469726562 401 500 c 0
 401 476.58203125 411.752929688 388.567382812 519.688476562 340.23828125 c 0
 522.41796875 338.873046875 521.603515625 339.276367188 522.819335938 338.81640625 c 2
 944.3203125 445.176757812 l 1
 1019 464.020507812 l 1
 1019 387 l 1
 1019 207 l 1
 1019 162.838867188 l 1
 976.834960938 149.711914062 l 2
EndSplineSet
Position2: "Single Positioning lookup 2 subtable" dx=0 dy=0 dh=-178 dv=0
Position2: "Single Positioning lookup 1 subtable" dx=0 dy=0 dh=-173 dv=0
EndChar

StartChar: uniFEDA
Encoding: 313 65242 229
GlifName: uniF_E_D_A_
Width: 1891
VWidth: 2950
GlyphClass: 2
Flags: HW
AnchorPoint: "Anchor-10" 916.11 1300.05 basechar 0
AnchorPoint: "Anchor-7" 900.268 -166.468 basechar 0
LayerCount: 2
Fore
SplineSet
709.682617188 662.905273438 m 6
 772.1171875 655.856445312 795.083007812 652 839 652 c 4
 944.650390625 652 1010 654.338867188 1010 720 c 4
 1010 768.772460938 990.336914062 772.700195312 921.934570312 773 c 4
 826.796875 773.41796875 738 825.61328125 738 969 c 4
 738 1087.12792969 815.647460938 1175.578125 972.252929688 1175.578125 c 4
 1006.00488281 1175.578125 1043.40136719 1172.06445312 1084.61425781 1164.77050781 c 6
 1097 1162.578125 l 5
 1097 1150 l 5
 1097 1055 l 5
 1097 1037.76171875 l 5
 1079.92675781 1040.14355469 l 6
 1039.67675781 1045.76074219 1005.39550781 1048.39941406 976.748046875 1048.39941406 c 4
 884.850585938 1048.39941406 857 1013.77832031 857 978 c 4
 857 933.07421875 872.52734375 907.364257812 940.081054688 907 c 4
 1074.18164062 906.278320312 1128 848.525390625 1128 724 c 4
 1128 569.8671875 1030.63378906 524 846 524 c 4
 792.799804688 524 771.07421875 529.272460938 705.752929688 539.168945312 c 6
 693 541.1015625 l 5
 693 554 l 5
 693 648 l 5
 693 664.7890625 l 5
 709.682617188 662.905273438 l 6
978 300 m 2
 1450 300 1454 384 1454 530 c 6
 1454 1306 l 5
 1454 1366 l 5
 1514 1366 l 5
 1683 1366 l 5
 1743 1366 l 5
 1743 1306 l 5
 1743 532 l 6
 1743 337 1753 300 1876 300 c 6
 1911 300 l 5
 1911 240 l 5
 1911 60 l 5
 1911 0 l 5
 1878 0 l 6
 1723 0 1619 42 1562 138 c 5
 1421 26 1279 0 985 0 c 2
 840 0 l 2
 353 0 38 173 38 544 c 0
 38 642 60 736 97 822 c 2
 119 874 l 1
 173 854 l 1
 326 797 l 1
 382 776 l 1
 361 720 l 2
 342 670 333 619 333 569 c 0
 334 401 466 300 830 300 c 2
 978 300 l 2
EndSplineSet
EndChar

StartChar: uniFEDB
Encoding: 314 65243 230
GlifName: uniF_E_D_B_
Width: 950
VWidth: 2950
GlyphClass: 2
Flags: HW
AnchorPoint: "Anchor-10" 327.533 1430.15 basechar 0
AnchorPoint: "Anchor-7" 310.991 -173.935 basechar 0
LayerCount: 2
Fore
SplineSet
331.880859375 1027.359375 m 1
 543.256201243 844.484079227 786 726.307304217 786 416 c 4
 786 129.305664062 566.862304688 0 166 0 c 2
 -20 0 l 1
 -20 60 l 1
 -20 240 l 1
 -20 300 l 1
 165 300 l 2
 441.859375 300 491 360.172851562 491 433 c 0
 491 475.75 467.622070312 526.201171875 404.982421875 585.209960938 c 0
 304.112304688 679.157226562 213.5703125 738.6796875 136.041992188 799.733398438 c 0
 52.8603515625 864.30859375 0 941.84765625 0 1032 c 0
 0 1053.09960938 2.3076171875 1073.76660156 7.173828125 1093.67578125 c 0
 27.6025390625 1177.26855469 90 1237 177.897460938 1269.16699219 c 2
 889 1533.99707031 l 1
 889 1447.73925781 l 1
 889 1276.73925781 l 1
 889 1235 l 1
 331.880859375 1027.359375 l 1
EndSplineSet
Position2: "Single Positioning lookup 2 subtable" dx=0 dy=0 dh=-226 dv=0
Position2: "Single Positioning lookup 1 subtable" dx=0 dy=0 dh=-219 dv=0
Position2: "Single Positioning lookup 0 subtable" dx=0 dy=0 dh=180 dv=0
EndChar

StartChar: uniFEDC
Encoding: 315 65244 231
GlifName: uniF_E_D_C_
Width: 1027
VWidth: 2950
GlyphClass: 2
Flags: HW
AnchorPoint: "Anchor-10" 327.533 1430.15 basechar 0
AnchorPoint: "Anchor-7" 310.991 -173.935 basechar 0
LayerCount: 2
Fore
SplineSet
670 145 m 1
 567 42 410 0 166 0 c 2
 -20 0 l 1
 -20 60 l 1
 -20 240 l 1
 -20 300 l 1
 165 300 l 2
 442 300 491 360 491 433 c 0
 491 476 468 526 405 585 c 0
 304 679 214 739 136 800 c 0
 53 865 0 942 0 1032 c 0
 0 1053 2 1074 7 1094 c 0
 27 1178 91 1237 178 1269 c 2
 889 1534 l 1
 889 1448 l 1
 889 1277 l 1
 889 1235 l 1
 332 1027 l 1
 557.986407032 832.585223362 690.504704365 778.810246499 785 512 c 4
 839 358 916 300 1018 300 c 2
 1047 300 l 1
 1047 240 l 1
 1047 60 l 1
 1047 0 l 1
 1018 0 l 2
 879 0 761 52 670 145 c 1
EndSplineSet
EndChar

StartChar: uniFEDE
Encoding: 317 65246 233
GlifName: uniF_E_D_E_
Width: 1439
VWidth: 2950
GlyphClass: 2
Flags: HW
AnchorPoint: "Anchor-7" 662.902 -648.086 basechar 0
AnchorPoint: "Anchor-10" 654.908 1065.66 basechar 0
LayerCount: 2
Fore
SplineSet
390.844726562 396.060546875 m 2
 348.551757812 288.404296875 329 203.01953125 329 96 c 0
 329 -127.970703125 430.53515625 -227 675 -227 c 0
 898.091796875 -227 999 -123 999 128.045898438 c 2
 1001 1304.04589844 l 5
 1001 1306 l 5
 1001 1366 l 5
 1061 1366 l 5
 1229 1366 l 5
 1289.06054688 1366 l 5
 1289 1305.93945312 l 5
 1288 452.969726562 l 2
 1288 331 1307.37207031 300 1428 300 c 2
 1459 300 l 1
 1459 240 l 1
 1459 60 l 1
 1459 0 l 1
 1430 0 l 2
 1369.58203125 0 1321.70703125 8.474609375 1281.58203125 26.3251953125 c 1
 1243.90820312 -322.590820312 1035.25097656 -520 674 -520 c 0
 262.577148438 -520 38 -305.883789062 38 95 c 0
 38 239.240234375 67.462890625 365.873046875 124.553710938 503.928710938 c 2
 147.34375 559.040039062 l 1
 202.591796875 536.583984375 l 1
 357.591796875 473.583984375 l 1
 412.528320312 451.254882812 l 1
 390.844726562 396.060546875 l 2
EndSplineSet
EndChar

StartChar: uniFEDF
Encoding: 318 65247 234
GlifName: uniF_E_D_F_
Width: 608
VWidth: 2950
GlyphClass: 2
Flags: HW
AnchorPoint: "Anchor-10" 365.751 1500.65 basechar 0
AnchorPoint: "Anchor-7" 259.812 -178.234 basechar 0
LayerCount: 2
Fore
SplineSet
-20 60 m 1
 -20 240 l 1
 -20 300 l 1
 61 300 l 2
 211.4375 300 231 338 231 463 c 2
 231 1306 l 5
 231 1366 l 5
 291 1366 l 5
 460 1366 l 5
 520 1366 l 5
 520 1306 l 5
 520 464 l 2
 520 176 386.280273438 0 60 0 c 2
 -20 0 l 1
 -20 60 l 1
EndSplineSet
Position2: "Single Positioning lookup 2 subtable" dx=0 dy=0 dh=-143 dv=0
Position2: "Single Positioning lookup 1 subtable" dx=0 dy=0 dh=-104 dv=0
Position2: "Single Positioning lookup 0 subtable" dx=0 dy=0 dh=130 dv=0
EndChar

StartChar: uniFEE0
Encoding: 319 65248 235
GlifName: uniF_E_E_0
Width: 670
VWidth: 2950
GlyphClass: 2
Flags: HW
AnchorPoint: "Anchor-7" 259.812 -178.234 basechar 0
AnchorPoint: "Anchor-10" 364.751 1500.65 basechar 0
LayerCount: 2
Fore
SplineSet
368.427734375 110.013671875 m 1
 293.7734375 35.517578125 188.245117188 0 43 0 c 2
 -20 0 l 1
 -20 60 l 1
 -20 240 l 1
 -20 300 l 1
 45 300 l 2
 201.018554688 300 231 342 231 449.215820312 c 2
 231 1306 l 5
 231 1366 l 5
 291 1366 l 5
 460 1366 l 5
 520 1366 l 5
 520 1306 l 5
 520 449 l 2
 520 332 544.626953125 300 658 300 c 2
 690 300 l 1
 690 240 l 1
 690 60 l 1
 690 0 l 1
 660 0 l 2
 531.537109375 0 440.614257812 38.189453125 368.427734375 110.013671875 c 1
EndSplineSet
EndChar

StartChar: uniFEE2
Encoding: 321 65250 237
GlifName: uniF_E_E_2
Width: 1296
VWidth: 2620
GlyphClass: 2
Flags: HW
AnchorPoint: "Anchor-10" 763.952 1080.2 basechar 0
AnchorPoint: "Anchor-7" 714.983 -278.909 basechar 0
LayerCount: 2
Fore
SplineSet
52 -599 m 6
 45 -481 41 -380 41 -273 c 4
 41 55 70 362 341 440 c 1
 442 679 587 821 780 821 c 0
 1019 821 1142 645 1184 442 c 0
 1210 324 1248 300 1288 300 c 2
 1316 300 l 1
 1316 240 l 1
 1316 60 l 1
 1316 0 l 1
 1288 0 l 2
 1216 0 1145 21 1088 69 c 1
 1026 3 945 -23 846 -23 c 0
 753 -23 664 9 567 68 c 0
 537 87 505 104 468 123 c 0
 446 135 426 138 419 138 c 0
 388 137 334 69 334 -245 c 4
 334 -374 339 -485 348 -590 c 6
 353 -655 l 5
 288 -655 l 5
 112 -655 l 5
 55 -655 l 5
 52 -599 l 6
632 376 m 1
 732 304 806 275 842 275 c 0
 890 276 904 285 904 355 c 0
 904 458 852 516 780 516 c 0
 728 516 678 482 632 376 c 1
EndSplineSet
EndChar

StartChar: uniFEE3
Encoding: 322 65251 238
GlifName: uniF_E_E_3
Width: 1048
VWidth: 2950
GlyphClass: 2
Flags: HW
AnchorPoint: "Anchor-10" 583.952 1080.2 basechar 0
AnchorPoint: "Anchor-7" 514.594 -177.063 basechar 0
LayerCount: 2
Fore
SplineSet
457.326171875 378.973632812 m 1
 531.616210938 301.3828125 592.2109375 273 641 273 c 0
 708.46484375 273 723 289.05859375 723 352 c 0
 723 463.209960938 672.092773438 515 601 515 c 0
 549.916992188 515 501.638671875 483.467773438 457.326171875 378.973632812 c 1
305.958984375 120.455078125 m 1
 225.122070312 44.12890625 129.854492188 0 23 0 c 2
 23 0 11.3330078125 0 -19 0 c 5
 -19 60 l 5
 -19 240 l 5
 -19 300 l 5
 9.6669921875 300 18 300 18 300 c 2
 93.1552734375 300 149.388671875 381.450195312 201.368164062 495.806640625 c 0
 293.307617188 698.491210938 422.990234375 821 597 821 c 0
 850.940429688 821 1010 603.467773438 1010 367 c 0
 1010 135.534179688 882.141601562 -22 655 -22 c 0
 524.124023438 -22 411.97265625 30.4423828125 305.958984375 120.455078125 c 1
EndSplineSet
Position2: "Single Positioning lookup 2 subtable" dx=0 dy=0 dh=-178 dv=0
Position2: "Single Positioning lookup 1 subtable" dx=0 dy=0 dh=-173 dv=0
EndChar

StartChar: uniFEE4
Encoding: 323 65252 239
GlifName: uniF_E_E_4
Width: 1112
VWidth: 2950
GlyphClass: 2
Flags: HW
AnchorPoint: "Anchor-10" 583.952 1080.2 basechar 0
AnchorPoint: "Anchor-7" 534.594 -177.063 basechar 0
LayerCount: 2
Fore
SplineSet
457 379 m 1
 530 302 591 273 645 273 c 0
 712 273 726 289 726 348 c 0
 726 456 671 515 597 515 c 0
 549 515 501 483 457 379 c 1
908 71 m 1
 841 4 756 -22 653 -22 c 0
 527 -22 409 30 305 120 c 1
 224 43 130 0 23 0 c 2
 -20 0 l 1
 -20 60 l 1
 -20 240 l 1
 -20 300 l 1
 18 300 l 2
 95 300 151 384 201 496 c 0
 292 698 423 821 597 821 c 0
 837 821 963 637 1004 442 c 0
 1028 325 1068 300 1105 300 c 2
 1132 300 l 5
 1132 240 l 5
 1132 60 l 5
 1132 0 l 5
 1104 0 l 2
 1033 0 962 23 908 71 c 1
EndSplineSet
EndChar

StartChar: uniFEEA
Encoding: 329 65258 245
GlifName: uniF_E_E_A_
Width: 1038
VWidth: 2950
GlyphClass: 2
Flags: HW
AnchorPoint: "Anchor-10" 662.464 1282.36 basechar 0
AnchorPoint: "Anchor-7" 469.642 -176.09 basechar 0
LayerCount: 2
Fore
SplineSet
38 472 m 0
 38 699 222 858 538 965 c 1
 530 1016 l 1
 586 1028 l 1
 745 1061 l 1
 808 1074 l 1
 816 1010 l 1
 898 421 l 2
 910 334 948 300 1027 300 c 2
 1058 300 l 5
 1058 240 l 5
 1058 60 l 5
 1058 0 l 5
 1023 0 l 2
 853 0 729 70 670 200 c 1
 597 155 517 132 431 132 c 0
 231 132 38 235 38 472 c 0
583 680 m 1
 391 601 332 531 332 484 c 0
 332 441 345 420 425 420 c 0
 521 420 601 479 601 542 c 0
 601 559 600 574 598 590 c 2
 583 680 l 1
EndSplineSet
EndChar

StartChar: uniFEEB
Encoding: 330 65259 246
GlifName: uniF_E_E_B_
Width: 1369
VWidth: 2950
GlyphClass: 2
Flags: HW
AnchorPoint: "Anchor-10" 609.134 1262.79 basechar 0
AnchorPoint: "Anchor-7" 510.852 -179.953 basechar 0
LayerCount: 2
Fore
SplineSet
502.346679688 365.345703125 m 1
 580.7890625 404.314453125 617.13671875 466.489257812 618 523.358398438 c 0
 617.69921875 601.338867188 579.076171875 642 504 642 c 0
 421.649414062 642 380 591.7734375 380 528 c 0
 380 467.538085938 418.754882812 404.59375 502.346679688 365.345703125 c 1
611.265625 1064.9453125 m 2
 835.140625 955.940429688 1006.41503906 854.2890625 1126.78125 753.51171875 c 0
 1253.93847656 647.048828125 1331 535.768554688 1331 413 c 0
 1331 147.7578125 1135.20214844 10 879 10 c 0
 746.018554688 10 585.729492188 42.5478515625 486.000976562 73.580078125 c 1
 369.64453125 33.009765625 214.938476562 0 75 0 c 2
 -20 0 l 5
 -20 60 l 5
 -20 240 l 5
 -20 300 l 5
 63 300 l 2
 97.8525390625 300 128.068359375 300.192382812 154.24609375 300.900390625 c 1
 111.755859375 367.116210938 93 440.787109375 93 526 c 0
 93 749.873046875 264.196289062 890.353515625 458.453125 905.59375 c 1
 532.443359375 1039.94433594 l 1
 559.967773438 1089.92285156 l 1
 611.265625 1064.9453125 l 2
876.864257812 590.071289062 m 1
 878.435546875 573.70703125 879 559.30859375 879 543 c 0
 879 450.7109375 853 366.794921875 806.249023438 296.142578125 c 1
 824.952148438 295.36328125 841.2265625 295 856 295 c 0
 995.435546875 295 1036 332.6015625 1036 410 c 0
 1036 439.737304688 991.899414062 505.671875 876.864257812 590.071289062 c 1
EndSplineSet
Position2: "Single Positioning lookup 2 subtable" dx=0 dy=0 dh=-178 dv=0
Position2: "Single Positioning lookup 1 subtable" dx=0 dy=0 dh=-173 dv=0
EndChar

StartChar: uniFEEC
Encoding: 331 65260 247
GlifName: uniF_E_E_C_
Width: 1002
VWidth: 2950
GlyphClass: 2
Flags: HW
AnchorPoint: "Anchor-7" 597.16 -649.603 basechar 0
AnchorPoint: "Anchor-10" 541.648 1185.04 basechar 0
LayerCount: 2
Fore
SplineSet
773 274 m 24
 673 145 486 16 450 8 c 1
 468 -51 495 -98 532 -139 c 1
 541 -65 758 300 988 300 c 2
 1022 300 l 5
 1022 240 l 5
 1022 60 l 5
 1022 0 l 5
 986 0 l 2
 858 0 793 -66 793 -270 c 0
 793 -297 794 -328 797 -356 c 2
 799 -385 l 1
 779 -405 l 1
 728 -455 l 1
 658 -523 l 1
 628 -552 l 1
 590 -534 l 2
 362 -425 221 -244 167 0 c 1
 -20 0 l 1
 -20 60 l 1
 -20 240 l 1
 -20 300 l 1
 148 300 l 1
 171 611 246 916 548 916 c 0
 754 916 870 748 870 547 c 0
 870 449 846 367 773 274 c 24
432 312 m 1
 527 347 591 437 591 547 c 0
 591 620 567 622 546 622 c 0
 506 622 453 565 432 312 c 1
EndSplineSet
EndChar

StartChar: uniFEFB
Encoding: 346 65275 262
GlifName: uniF_E_F_B_
Width: 1212
VWidth: 2950
GlyphClass: 3
Flags: HW
AnchorPoint: "Anchor-9" 221.642 1446.64 baselig 1
AnchorPoint: "Anchor-6" 288.021 -184.333 baselig 1
AnchorPoint: "Anchor-6" 925.078 -180.55 baselig 0
AnchorPoint: "Anchor-9" 975.01 1497.81 baselig 0
LayerCount: 2
Fore
SplineSet
182.629882812 315.512695312 m 2
 258.455078125 305.791992188 328.748046875 301 399 301 c 0
 406.969726562 301 415.741210938 301.064453125 423.420898438 301.1640625 c 1
 327 557 236.682617188 722.956054688 54.9931640625 1140.03710938 c 2
 33.03125 1190.45117188 l 1
 81.34375 1216.71386719 l 1
 230.34375 1297.71386719 l 1
 288.908203125 1329.55175781 l 1
 314.428710938 1267.97167969 l 2
 499.022460938 822.557617188 578 665 701.112304688 361.275390625 c 1
 785.669921875 413.162109375 835 474 835 658 c 6
 835 1306 l 1
 835 1366 l 1
 895 1366 l 1
 1064 1366 l 1
 1124 1366 l 1
 1124 1306 l 1
 1124 657 l 6
 1124 203 866.758789062 3 396 3 c 0
 302.354492188 3 226.165039062 9.107421875 164.631835938 19.90234375 c 2
 115 28.6103515625 l 1
 115 79 l 1
 115 256 l 1
 115 324.18359375 l 1
 182.629882812 315.512695312 l 2
EndSplineSet
Position2: "Single Positioning lookup 2 subtable" dx=0 dy=0 dh=-143 dv=0
Position2: "Single Positioning lookup 1 subtable" dx=0 dy=0 dh=-104 dv=0
Position2: "Single Positioning lookup 0 subtable" dx=0 dy=0 dh=130 dv=0
PairPos2: "'kern' Horizontal Kerning lookup 4 subtable 0" uni0639 dx=-60 dy=0 dh=-60 dv=0 dx=0 dy=0 dh=0 dv=0
PairPos2: "'kern' Horizontal Kerning lookup 4 subtable 0" uni063A dx=-60 dy=0 dh=-60 dv=0 dx=0 dy=0 dh=0 dv=0
LCarets2: 1 0
Ligature2: "'rlig' Required Ligatures in Arabic lookup 5 subtable" uniFEDF uniFE8E
EndChar

StartChar: uniFEFC
Encoding: 347 65276 263
GlifName: uniF_E_F_C_
Width: 1273
VWidth: 2950
GlyphClass: 3
Flags: HW
AnchorPoint: "Anchor-9" 974.01 1497.81 baselig 0
AnchorPoint: "Anchor-9" 221.642 1448.64 baselig 1
AnchorPoint: "Anchor-6" 925.078 -180.55 baselig 0
AnchorPoint: "Anchor-6" 288.021 -184.333 baselig 1
LayerCount: 2
Fore
SplineSet
701 361 m 1
 787 413 835 474 835 658 c 2
 835 1306 l 1
 835 1366 l 1
 895 1366 l 1
 1064 1366 l 1
 1124 1366 l 1
 1124 1306 l 1
 1124 607 l 2
 1124 360 1172 300 1257 300 c 2
 1293 300 l 1
 1293 240 l 1
 1293 60 l 1
 1293 0 l 1
 1254 0 l 2
 1106 0 997 61 936 177 c 1
 808 58 629 3 396 3 c 0
 302 3 227 9 165 20 c 2
 115 29 l 1
 115 79 l 1
 115 256 l 1
 115 324 l 1
 183 315 l 2
 257 305 328 301 398 301 c 0
 406 301 416 301 423 301 c 1
 327 557 237 723 55 1140 c 2
 33 1190 l 1
 81 1217 l 1
 230 1298 l 1
 289 1330 l 1
 314 1268 l 2
 499 823 578 665 701 361 c 1
EndSplineSet
PairPos2: "'kern' Horizontal Kerning lookup 4 subtable 0" uni0639 dx=-60 dy=0 dh=-60 dv=0 dx=0 dy=0 dh=0 dv=0
PairPos2: "'kern' Horizontal Kerning lookup 4 subtable 0" uni063A dx=-60 dy=0 dh=-60 dv=0 dx=0 dy=0 dh=0 dv=0
LCarets2: 1 0
Ligature2: "'rlig' Required Ligatures in Arabic lookup 5 subtable" uniFEE0 uniFE8E
EndChar

StartChar: arabic_dot
Encoding: 348 -1 264
GlifName: arabic_dot
Width: 189
VWidth: 2682
GlyphClass: 2
Flags: HW
LayerCount: 2
Fore
SplineSet
-69.356223176 110.949230322 m 1
 77.0580596887 257.363513188 l 1
 91.2001953125 271.505648812 l 1
 105.342330936 257.363513188 l 1
 251.663322533 111.042521589 l 1
 265.805411562 96.9004325603 l 1
 251.663369128 82.7582969368 l 1
 106.292563554 -62.6134665619 l 1
 92.1504742287 -76.7556490773 l 1
 78.0082920101 -62.6135594547 l 1
 -68.3136575711 83.7074320832 l 1
 -82.4558857909 97.8495677067 l 1
 -69.356223176 110.949230322 l 1
EndSplineSet
EndChar

StartChar: arabic_2dots
Encoding: 349 -1 265
GlifName: arabic_2dots
Width: 504
VWidth: 2682
GlyphClass: 2
Flags: HW
LayerCount: 2
Fore
SplineSet
-75.1421356237 112.142135624 m 1
 64.8578643763 252.142135624 l 1
 78.9497616663 266.234032914 l 1
 93.0917185071 252.192373639 l 1
 234.091718507 112.192373639 l 1
 245.540508997 100.824780245 l 1
 256.857864376 112.142135624 l 1
 396.857864376 252.142135624 l 1
 410.949761666 266.234032914 l 1
 425.091718507 252.192373639 l 1
 566.091718507 112.192373639 l 1
 580.284449084 98.1003007261 l 1
 566.192019233 83.9079245643 l 1
 425.192019233 -58.0920754357 l 1
 410.949405364 -72.4357007509 l 1
 396.757923721 -58.0414836557 l 1
 256.757923721 83.9585163443 l 1
 245.540152695 95.336541242 l 1
 234.192019233 83.9079245643 l 1
 93.1920192331 -58.0920754357 l 1
 78.9494053638 -72.4357007509 l 1
 64.7579237207 -58.0414836557 l 1
 -75.2420762793 83.9585163443 l 1
 -89.1843280784 98.0999431691 l 1
 -75.1421356237 112.142135624 l 1
EndSplineSet
EndChar

StartChar: arabic_3dots
Encoding: 350 -1 266
GlifName: arabic_3dots
Width: 504
VWidth: 2675
GlyphClass: 2
Flags: HW
LayerCount: 2
Fore
SplineSet
96.8578643763 339.142135624 m 1
 228.857864376 471.142135624 l 1
 242.946734142 485.231005389 l 1
 257.088668764 471.195401103 l 1
 390.088668764 339.195401103 l 1
 404.337738488 325.053467241 l 1
 390.142135624 310.857864376 l 1
 257.142135624 177.857864376 l 1
 242.946532759 163.662261512 l 1
 228.804598897 177.911331236 l 1
 96.8045988972 310.911331236 l 1
 82.7689946108 325.053265858 l 1
 96.8578643763 339.142135624 l 1
268.857864376 77.1421356237 m 1
 400.857864376 209.142135624 l 1
 414.946734142 223.231005389 l 1
 429.088668764 209.195401103 l 1
 562.088668764 77.1954011028 l 1
 576.337738488 63.0534672408 l 1
 562.142135624 48.8578643763 l 1
 429.142135624 -84.1421356237 l 1
 414.946532759 -98.3377384882 l 1
 400.804598897 -84.0886687636 l 1
 268.804598897 48.9113312364 l 1
 254.768994611 63.0532658583 l 1
 268.857864376 77.1421356237 l 1
-71.1421356237 77.1421356237 m 1
 60.8578643763 209.142135624 l 1
 74.9467341417 223.231005389 l 1
 89.0886687636 209.195401103 l 1
 222.088668764 77.1954011028 l 1
 236.337738488 63.0534672408 l 1
 222.142135624 48.8578643763 l 1
 89.1421356237 -84.1421356237 l 1
 74.9465327592 -98.3377384882 l 1
 60.8045988972 -84.0886687636 l 1
 -71.1954011028 48.9113312364 l 1
 -85.2310053892 63.0532658583 l 1
 -71.1421356237 77.1421356237 l 1
EndSplineSet
EndChar

StartChar: arabic_3dots_a
Encoding: 351 -1 267
GlifName: arabic_3dots_a
Width: 504
VWidth: 2689
GlyphClass: 2
Flags: HW
LayerCount: 2
Fore
SplineSet
97.8045988972 -119.911331236 m 1
 229.804598897 13.0886687636 l 1
 243.946532759 27.3377384882 l 1
 258.142135624 13.1421356237 l 1
 391.142135624 -119.857864376 l 1
 405.337738488 -134.053467241 l 1
 391.088668764 -148.195401103 l 1
 258.088668764 -280.195401103 l 1
 243.946734142 -294.231005389 l 1
 229.857864376 -280.142135624 l 1
 97.8578643763 -148.142135624 l 1
 83.7689946108 -134.053265858 l 1
 97.8045988972 -119.911331236 l 1
269.804598897 142.088668764 m 1
 401.804598897 275.088668764 l 1
 415.946532759 289.337738488 l 1
 430.142135624 275.142135624 l 1
 563.142135624 142.142135624 l 1
 577.337738488 127.946532759 l 1
 563.088668764 113.804598897 l 1
 430.088668764 -18.1954011028 l 1
 415.946734142 -32.2310053892 l 1
 401.857864376 -18.1421356237 l 1
 269.857864376 113.857864376 l 1
 255.768994611 127.946734142 l 1
 269.804598897 142.088668764 l 1
-70.1954011028 142.088668764 m 1
 61.8045988972 275.088668764 l 1
 75.9465327592 289.337738488 l 1
 90.1421356237 275.142135624 l 1
 223.142135624 142.142135624 l 1
 237.337738488 127.946532759 l 1
 223.088668764 113.804598897 l 1
 90.0886687636 -18.1954011028 l 1
 75.9467341417 -32.2310053892 l 1
 61.8578643763 -18.1421356237 l 1
 -70.1421356237 113.857864376 l 1
 -84.2310053892 127.946734142 l 1
 -70.1954011028 142.088668764 l 1
EndSplineSet
EndChar

StartChar: uni066E.fina
Encoding: 352 -1 268
GlifName: uni066E_.fina
Width: 1878
VWidth: 3010
GlyphClass: 2
Flags: HW
AnchorPoint: "Anchor-10" 892.51 1485.59 basechar 0
AnchorPoint: "Anchor-7" 795.357 -199.261 basechar 0
LayerCount: 2
Fore
SplineSet
985 0 m 2
 840 0 l 2
 352.82421875 0 38 172.923828125 38 544 c 0
 38 642.030273438 60.0283203125 736.077148438 96.8876953125 821.719726562 c 2
 119.454101562 874.153320312 l 1
 172.946289062 854.224609375 l 1
 325.946289062 797.224609375 l 1
 382.29296875 776.233398438 l 1
 361.1796875 719.932617188 l 2
 342.565429688 670.294921875 333 619.234375 333 569.13671875 c 0
 333.76171875 401.45703125 466.166015625 300 830 300 c 2
 980 300 l 2
 1235.10644531 300 1383.18164062 346.263671875 1433.82128906 407.307617188 c 0
 1444.21484375 419.837890625 1455 443.518554688 1455 492 c 0
 1455 542.004882812 1451.14550781 593.775390625 1448.10742188 644.40625 c 2
 1444.73632812 700.602539062 l 1
 1500.60351562 707.541992188 l 1
 1661.60351562 727.541992188 l 1
 1724.77734375 735.389648438 l 1
 1728.87597656 671.86328125 l 1
 1744.87109375 423.926757812 l 2
 1751.24316406 328.352539062 1778.58105469 300 1873 300 c 2
 1898 300 l 5
 1898 240 l 5
 1898 60 l 5
 1898 0 l 5
 1873 0 l 2
 1739.82128906 0 1633.37011719 50.1259765625 1562.32128906 145.904296875 c 1
 1425.35644531 43.109375 1225.9375 0 985 0 c 2
EndSplineSet
EndChar

StartChar: uni06A1.fina
Encoding: 355 -1 269
GlifName: uni06A_1.fina
Width: 1962
VWidth: 2950
GlyphClass: 2
Flags: HW
AnchorPoint: "Anchor-10" 713.816 1631.03 basechar 0
AnchorPoint: "Anchor-7" 590.121 -251.592 basechar 0
LayerCount: 2
Fore
SplineSet
1501 681 m 1
 1472 676 1390 577 1389 550 c 0
 1390 525 1468 411 1507 391 c 1
 1547 410 1624 529 1625 558 c 1
 1620 591 1537 680 1501 681 c 1
960 300 m 2
 1071 300 1145 301 1195 302 c 1
 1136 378 1101 459 1101 556 c 0
 1101 724 1278 976 1503 976 c 0
 1733 976 1914 747 1914 571 c 0
 1914 464 1875 380 1814 301 c 1
 1835 301 1859 300 1888 300 c 2
 1982 300 l 5
 1982 240 l 5
 1982 60 l 5
 1982 0 l 5
 1890 0 l 2
 1725 0 1603 33 1501 98 c 1
 1374 28 1196 0 965 0 c 2
 840 0 l 2
 353 0 38 172 38 544 c 0
 38 642 59 737 97 823 c 2
 120 875 l 1
 173 855 l 1
 327 797 l 1
 383 776 l 1
 362 720 l 2
 343 670 333 619 333 569 c 0
 334 402 466 300 830 300 c 2
 960 300 l 2
EndSplineSet
EndChar

StartChar: uni06A1.init
Encoding: 356 -1 270
GlifName: uni06A_1.init
Width: 918
VWidth: 2950
GlyphClass: 2
Flags: HW
AnchorPoint: "Anchor-10" 447.443 1664.02 basechar 0
AnchorPoint: "Anchor-7" 367.886 -187.023 basechar 0
LayerCount: 2
Fore
SplineSet
585.426757812 380.981445312 m 1
 546.705078125 374.998046875 507.134765625 372 466 372 c 0
 230.618164062 372 81.4130859375 473.455078125 79 690.666992188 c 0
 79 930.586914062 214.1953125 1162 466 1162 c 0
 776.45703125 1162 880 819.463867188 880 522 c 0
 880 104.55078125 673.869140625 0 265 0 c 2
 -20 0 l 5
 -20 60 l 5
 -20 240 l 5
 -20 300 l 5
 276 300 l 2
 458.825195312 300 573.301757812 306.749023438 585.426757812 380.981445312 c 1
583.806640625 663.668945312 m 1
 561.110351562 790.989257812 514.497070312 866 459 866 c 0
 420.024414062 866 360 814.646484375 360 718 c 0
 360 677.887695312 372.465820312 652 479 652 c 0
 513.060546875 652 549.1953125 656.309570312 583.806640625 663.668945312 c 1
EndSplineSet
EndChar

StartChar: uni06A1.medi
Encoding: 357 -1 271
GlifName: uni06A_1.medi
Width: 972
VWidth: 2950
GlyphClass: 2
Flags: HW
AnchorPoint: "Anchor-10" 532.544 1446.06 basechar 0
AnchorPoint: "Anchor-7" 507.517 -187.023 basechar 0
LayerCount: 2
Fore
SplineSet
511 681 m 1
 482 676 400 577 399 550 c 0
 400 525 478 411 517 391 c 1
 556 410 633 528 635 558 c 1
 630 591 546 680 511 681 c 1
825 301 m 1
 848 301 870 300 898 300 c 2
 992 300 l 5
 992 240 l 5
 992 60 l 5
 992 0 l 5
 900 0 l 2
 747 0 617 33 513 97 c 1
 405 30 272 0 114 0 c 2
 -20 0 l 1
 -20 60 l 1
 -20 240 l 1
 -20 300 l 1
 114 300 l 2
 150 300 182 300 206 301 c 1
 146 377 111 458 111 556 c 0
 111 724 287 976 512 976 c 0
 742 976 924 747 924 571 c 0
 924 471 886 382 825 301 c 1
EndSplineSet
EndChar

StartChar: uni066F.fina
Encoding: 358 -1 272
GlifName: uni066F_.fina
Width: 1450
VWidth: 2950
GlyphClass: 2
Flags: HW
AnchorPoint: "Anchor-10" 758.297 1059.41 basechar 0
AnchorPoint: "Anchor-7" 713.744 -638.409 basechar 0
LayerCount: 2
Fore
SplineSet
399 461 m 2
 353 339 330 227 330 121 c 0
 330 -118 442 -227 728 -227 c 0
 990 -227 1073 -151 1105 1 c 1
 1023 1 l 2
 761 1 599 121 599 357 c 0
 599 604 751 841 993 841 c 0
 1233 841 1356 629 1394 300 c 1
 1470 300 l 1
 1470 240 l 1
 1470 60 l 1
 1470 0 l 1
 1390 0 l 1
 1336 -339 1131 -520 721 -520 c 0
 277 -520 38 -300 38 116 c 0
 38 265 70 416 133 568 c 2
 155 623 l 1
 211 601 l 1
 366 538 l 1
 420 516 l 1
 399 461 l 2
1110 301 m 1
 1088 490 1035 536 979 536 c 0
 943 536 884 475 884 372 c 0
 884 330 899 301 1013 301 c 2
 1110 301 l 1
EndSplineSet
EndChar

StartChar: arabic_gaf_bar
Encoding: 359 -1 273
GlifName: arabic_gaf_bar
Width: 751
VWidth: 2769
GlyphClass: 2
Flags: HW
LayerCount: 2
Fore
SplineSet
735 1851.37207031 m 1
 8 1580.91503906 l 1
 8 1706.62792969 l 5
 735 1977.08496094 l 5
 735 1851.37207031 l 1
EndSplineSet
EndChar

StartChar: guillemotleft
Encoding: 5 171 283
GlifName: guillemotleft
Width: 946
Flags: HW
LayerCount: 2
Fore
SplineSet
428 515 m 0
 428 624.78125 481.612304688 813.486328125 679.413085938 1033.14941406 c 2
 719.83984375 1078.04492188 l 1
 764.456054688 1037.30957031 l 1
 856.456054688 953.309570312 l 1
 897.383789062 915.940429688 l 1
 863.374023438 872.180664062 l 2
 719.66015625 687.267578125 705 573.330078125 705 516 c 0
 705 450.80859375 717.124023438 347.3671875 863.50390625 157.65234375 c 2
 897.240234375 113.928710938 l 1
 856.456054688 76.6904296875 l 1
 764.456054688 -7.3095703125 l 1
 719.72265625 -48.15234375 l 1
 679.307617188 -3.0322265625 l 2
 482.654296875 216.51171875 428 404.950195312 428 515 c 0
50 515 m 0
 50 624.78125 103.612304688 813.486328125 301.413085938 1033.14941406 c 2
 341.83984375 1078.04492188 l 1
 386.456054688 1037.30957031 l 1
 478.456054688 953.309570312 l 1
 519.383789062 915.940429688 l 1
 485.374023438 872.180664062 l 2
 341.66015625 687.267578125 327 573.330078125 327 516 c 0
 327 450.80859375 339.124023438 347.3671875 485.50390625 157.65234375 c 2
 519.240234375 113.928710938 l 1
 478.456054688 76.6904296875 l 1
 386.456054688 -7.3095703125 l 1
 341.72265625 -48.15234375 l 1
 301.307617188 -3.0322265625 l 2
 104.654296875 216.51171875 50 404.950195312 50 515 c 0
EndSplineSet
EndChar

StartChar: guillemotright
Encoding: 6 187 284
GlifName: guillemotright
Width: 946
Flags: HW
LayerCount: 2
Fore
SplineSet
518 515 m 0
 518 404.9453125 463.346679688 216.512695312 266.692382812 -3.0322265625 c 2
 226.27734375 -48.15234375 l 1
 181.543945312 -7.3095703125 l 1
 89.5439453125 76.6904296875 l 1
 48.759765625 113.928710938 l 1
 82.49609375 157.65234375 l 2
 228.875976562 347.368164062 241 450.80859375 241 516 c 0
 241 573.330078125 226.33984375 687.267578125 82.6259765625 872.180664062 c 2
 48.6162109375 915.940429688 l 1
 89.5439453125 953.309570312 l 1
 181.543945312 1037.30957031 l 1
 226.16015625 1078.04492188 l 1
 266.586914062 1033.14941406 l 2
 464.38671875 813.48828125 518 624.77734375 518 515 c 0
896 515 m 0
 896 404.9453125 841.346679688 216.512695312 644.692382812 -3.0322265625 c 2
 604.27734375 -48.15234375 l 1
 559.543945312 -7.3095703125 l 1
 467.543945312 76.6904296875 l 1
 426.759765625 113.928710938 l 1
 460.49609375 157.65234375 l 2
 606.875976562 347.368164062 619 450.80859375 619 516 c 0
 619 573.330078125 604.33984375 687.267578125 460.625976562 872.180664062 c 2
 426.616210938 915.940429688 l 1
 467.543945312 953.309570312 l 1
 559.543945312 1037.30957031 l 1
 604.16015625 1078.04492188 l 1
 644.586914062 1033.14941406 l 2
 842.38671875 813.48828125 896 624.77734375 896 515 c 0
EndSplineSet
EndChar

StartChar: NameMe.302
Encoding: 370 -1 293
GlifName: N_ameM_e.302
Width: 525
VWidth: 2950
Flags: HW
LayerCount: 2
Fore
SplineSet
271 81 m 1
 205 16 119 0 22 0 c 2
 -20 0 l 1
 -20 60 l 1
 -20 240 l 1
 -20 300 l 1
 24 300 l 2
 128 300 128 329 128 489 c 2
 128 1049 l 5
 188 1049 l 5
 357 1049 l 5
 417 1049 l 5
 417 989 l 5
 417 489 l 2
 417 314 418 300 502 300 c 2
 545 300 l 1
 545 240 l 1
 545 60 l 1
 545 0 l 1
 505 0 l 2
 412 0 330 20 271 81 c 1
EndSplineSet
EndChar

StartChar: NameMe.303
Encoding: 371 -1 294
GlifName: N_ameM_e.303
Width: 487
VWidth: 2950
Flags: HW
LayerCount: 2
Fore
SplineSet
-20 60 m 1
 -20 240 l 1
 -20 300 l 1
 11 300 l 2
 96.2177734375 300 110 326 110 463 c 2
 110 1142 l 5
 110 1202 l 5
 170 1202 l 5
 339 1202 l 5
 399 1202 l 5
 399 1142 l 5
 399 465 l 2
 399 194 299.385742188 0 10 0 c 2
 -20 0 l 1
 -20 60 l 1
EndSplineSet
EndChar

StartChar: NameMe.65564
Encoding: 372 -1 297
GlifName: N_ameM_e.65564
Width: 527
VWidth: 2950
Flags: HW
AnchorPoint: "Anchor-10" 232.697 1236.11 basechar 0
AnchorPoint: "Anchor-7" 292.078 -181.903 basechar 0
LayerCount: 2
Fore
SplineSet
522 0 m 2
 249.23828125 0 88 149 88 464 c 2
 88 1107 l 1
 88 1167 l 1
 148 1167 l 1
 317 1167 l 1
 377 1167 l 1
 377 1107 l 1
 377 464 l 2
 377 322 416.758789062 300 522 300 c 2
 547 300 l 1
 547 240 l 1
 547 60 l 1
 547 0 l 1
 522 0 l 2
EndSplineSet
EndChar

StartChar: NameMe.65565
Encoding: 373 -1 298
GlifName: N_ameM_e.65565
Width: 716
VWidth: 2957
Flags: HW
LayerCount: 2
Fore
SplineSet
117.144072948 -267.232556568 m 2
 157.387296457 -276.0664349 197.734373112 -280 233 -280 c 0
 338.106816845 -280 408.843645576 -261.718835065 445.73773843 -232.203560781 c 0
 475.420220457 -208.266075276 488 -184.949191825 488 -162 c 0
 488 -155.271584617 485.625039259 -148.912998373 462.700149874 -147.996002798 c 2
 362.773476662 -145.997469333 l 2
 279.034915008 -143.877505747 234 -97.6101601919 234 -13 c 0
 234 167.785665014 416.539386428 255.986028615 619.900994952 257.999509888 c 2
 630.72362802 258.106664671 l 1
 629.976121305 247.309345448 l 1
 620.976121305 117.309345448 l 1
 620.343785858 108.175611222 l 1
 611.1898392 108.001802108 l 2
 460.596880315 105.14244213 393.819080881 68.9715541312 379.644426418 0.579412773842 c 1
 477.294461897 -3.00407476667 l 2
 571.266004219 -5.09233126271 630 -55.5569570926 630 -151 c 0
 630 -208.250131528 603.464648173 -263.548218114 555.395229967 -316.731404214 c 0
 486.670752786 -391.703561139 376.421102224 -428 226 -428 c 0
 184.351577847 -428 139.869781171 -423.944452659 94.4629299372 -416.88116469 c 2
 84.6721824558 -415.358159526 l 1
 86.1051235462 -405.553825749 l 1
 105.105123546 -275.553825749 l 1
 106.657737442 -264.930678042 l 1
 117.144072948 -267.232556568 l 2
EndSplineSet
EndChar

StartChar: uni060D
Encoding: 8 1549 299
Width: 828
VWidth: 4036
Flags: HW
LayerCount: 2
Fore
SplineSet
583.340820312 1446.33984375 m 1
 726.340820312 1403.33984375 l 1
 786 1385.40039062 l 5
 236.061523438 -225.098632812 l 5
 180.72265625 -208.458984375 l 1
 37.72265625 -165.458984375 l 1
 -21.9365234375 -147.51953125 l 5
 528.001953125 1462.97949219 l 5
 583.340820312 1446.33984375 l 1
EndSplineSet
EndChar

StartChar: NameMe.65541
Encoding: 353 -1 300
Width: 592
VWidth: 2950
Flags: HW
AnchorPoint: "Anchor-10" 261.384 1411 basechar 0
AnchorPoint: "Anchor-7" 253.422 -165.625 basechar 0
LayerCount: 2
Fore
SplineSet
503.5 815.139648438 m 2
 536.393554688 704.786132812 554 579.783203125 554 476 c 0
 554 183.356445312 393.018554688 0 99 0 c 2
 -21 0 l 5
 -21 60 l 5
 -21 240 l 5
 -21 300 l 5
 99 300 l 2
 226.520507812 300 263 331.71484375 263 473 c 0
 263 544.282226562 249.459960938 653.940429688 227.684570312 743.881835938 c 2
 213.670898438 801.764648438 l 1
 271.448242188 816.208984375 l 1
 431.448242188 856.208984375 l 1
 487.110351562 870.124023438 l 1
 503.5 815.139648438 l 2
EndSplineSet
EndChar

StartChar: NameMe.65542
Encoding: 354 -1 301
Width: 687
VWidth: 2950
Flags: HW
AnchorPoint: "Anchor-10" 265.665 1355.09 basechar 0
AnchorPoint: "Anchor-7" 320.537 -119.742 basechar 0
LayerCount: 2
Fore
SplineSet
683 0 m 2
 566.270507812 0 472.0390625 34.8408203125 406.276367188 107.27734375 c 1
 325.400390625 34.62109375 218.880859375 0 101 0 c 2
 -20 0 l 5
 -20 60 l 5
 -20 240 l 5
 -20 300 l 5
 101 300 l 2
 234.1796875 300 263 334.444335938 263 457 c 0
 263 515.87109375 258.12109375 583.059570312 255.072265625 645.052734375 c 2
 252.331054688 700.801757812 l 1
 307.736328125 707.55859375 l 1
 471.736328125 727.55859375 l 1
 534.752929688 735.244140625 l 1
 538.873046875 671.89453125 l 1
 554.87109375 425.92578125 l 2
 561.193359375 330.309570312 592.486328125 300 685 300 c 2
 707 300 l 1
 707 240 l 1
 707 60 l 1
 707 0 l 1
 683 0 l 2
EndSplineSet
EndChar

StartChar: uniFBDA
Encoding: 197 -1 310
Width: 938
VWidth: 2144
Flags: HW
LayerCount: 2
Fore
SplineSet
874.5 0 m 5
 874.5 300 l 5
 958.000976562 300 l 1
 958.000976562 0 l 1
 874.5 0 l 5
432 840 m 0
 678 840 802 630 834 300 c 5
 895 300 l 1
 895 239 l 1
 895 60 l 1
 895 0 l 1
 815 0 l 1
 745 -275 525 -461 179 -527 c 2
 130 -536 l 1
 112 -490 l 1
 52 -336 l 1
 26 -268 l 1
 97 -255 l 2
 326 -212 460 -117 523 0 c 1
 462 0 l 2
 200 0 38 120 38 356 c 0
 38 602 191 840 432 840 c 0
550 300 m 1
 527 489 474 535 418 535 c 0
 382 535 323 474 323 371 c 0
 323 329 338 300 452 300 c 2
 550 300 l 1
343.409179688 993.8828125 m 1
 150.409179688 1317.8828125 l 1
 141.403320312 1333 l 1
 159 1333 l 1
 283 1333 l 1
 288.744140625 1333 l 1
 291.637695312 1328.0390625 l 1
 423.030273438 1102.79394531 l 1
 555.377929688 1328.06542969 l 1
 558.27734375 1333 l 1
 564 1333 l 1
 688 1333 l 1
 705.643554688 1333 l 1
 696.580078125 1317.86328125 l 1
 502.580078125 993.86328125 l 1
 499.66796875 989 l 1
 494 989 l 1
 352 989 l 1
 346.317382812 989 l 1
 343.409179688 993.8828125 l 1
EndSplineSet
EndChar

StartChar: uniFBFD.compact
Encoding: 383 -1 321
Width: 1437
VWidth: 2703
Flags: HW
AnchorPoint: "Anchor-7" 718.902 -638.086 basechar 0
AnchorPoint: "Anchor-10" 681.6 713.22 basechar 0
LayerCount: 2
Fore
SplineSet
1421.84277344 0 m 1
 1425.79003906 -21.890625 1426 -40.275390625 1426 -54 c 0
 1426 -340.465820312 1116.34667969 -519 720 -519 c 0
 278.938476562 -519 39 -297.232421875 39 121 c 0
 39 237.201171875 62.9501953125 394.592773438 115.150390625 512.3203125 c 2
 138.774414062 565.600585938 l 1
 192.717773438 543.533203125 l 1
 346.717773438 480.533203125 l 1
 399.92578125 458.766601562 l 1
 380.453125 404.676757812 l 2
 346.662109375 310.811523438 330 217.0390625 330 120 c 0
 330 -117.192382812 443.819335938 -227 719 -227 c 0
 960.500976562 -227 1144 -112.374023438 1144 -47 c 0
 1144 -35.908203125 1134 0 1040 0 c 2
 906.755859375 0 l 2
 834 0 811.696289062 33.0869140625 800 82 c 2
 771.645507812 200.045898438 l 2
 751.744140625 282.899414062 766.1015625 300 833 300 c 2
 1457 300 l 5
 1457 240 l 5
 1457 60 l 5
 1457 0 l 5
 1421.84277344 0 l 1
EndSplineSet
EndChar

StartChar: uniFECC.compact
Encoding: 387 -1 324
Width: 1071
VWidth: 2950
Flags: HW
AnchorPoint: "Anchor-7" 574.511 -177.021 basechar 0
AnchorPoint: "Anchor-10" 598.107 1160.89 basechar 0
LayerCount: 2
Fore
SplineSet
880 309 m 1
 924 303 976 300 1045 300 c 2
 1091 300 l 5
 1091 240 l 5
 1091 60 l 5
 1091 0 l 5
 1045 0 l 2
 852 0 717 45 607 112 c 1
 494 44 339 0 87 0 c 2
 -19 0 l 1
 -19 60 l 1
 -19 240 l 1
 -19 300 l 1
 90 300 l 2
 186 300 262 303 317 310 c 1
 195 397 107 493 107 619 c 0
 107 846 409 896 607 896 c 0
 791 896 1100 846 1100 619 c 0
 1100 507 1007 403 880 309 c 1
603 451 m 1
 673 491 766 551 806 591 c 1
 770 601 700 609 604 609 c 0
 506 609 434 601 399 591 c 1
 436 551 527 491 603 451 c 1
EndSplineSet
EndChar

StartChar: uniFEEE.compact
Encoding: 389 -1 327
Width: 876
VWidth: 2142
Flags: HW
AnchorPoint: "Anchor-10" 430.256 1090.2 basechar 0
AnchorPoint: "Anchor-7" 415.969 -579.998 basechar 0
LayerCount: 2
Fore
SplineSet
432 840 m 0
 678 840 802 630 834 300 c 5
 895 300 l 1
 895 239 l 1
 895 60 l 1
 895 0 l 1
 815 0 l 1
 745 -275 525 -461 179 -527 c 2
 130 -536 l 1
 112 -490 l 1
 52 -336 l 1
 26 -268 l 1
 97 -255 l 2
 326 -212 460 -117 523 0 c 1
 462 0 l 2
 200 0 38 120 38 356 c 0
 38 602 191 840 432 840 c 0
550 300 m 1
 527 489 474 535 418 535 c 0
 382 535 323 474 323 371 c 0
 323 329 338 300 452 300 c 2
 550 300 l 1
EndSplineSet
EndChar

StartChar: figuredash
Encoding: 142 8210 329
Width: 1170
Flags: HW
LayerCount: 2
Fore
SplineSet
1003 591 m 1
 168 591 l 1
 108 591 l 1
 108 651 l 1
 108 782 l 1
 108 842 l 1
 168 842 l 1
 1003 842 l 1
 1063 842 l 1
 1063 782 l 1
 1063 651 l 1
 1063 591 l 1
 1003 591 l 1
EndSplineSet
EndChar

StartChar: NameMe.65583
Encoding: 391 -1 340
Width: 465
VWidth: 2703
Flags: HW
LayerCount: 2
Fore
SplineSet
202.08635371 1343.0703125 m 2
 374.826286235 1343.0703125 418.740234375 1359.21652277 418.740234375 1422.11035156 c 0
 418.740234375 1468.04520963 386.277567862 1502.35058594 337.08984375 1502.35058594 c 0
 273.409903853 1502.35058594 228.457588597 1460.95684593 151.038518062 1342.72559807 c 1
 202.08635371 1343.0703125 l 2
-54.5500449792 1317.2472214 m 1
 -37.6301231042 1398.55776827 l 1
 -34.0481065102 1415.77154327 l 1
 -21.0843146139 1403.8936229 l 1
 -21.0843146139 1403.8936229 14.9460365293 1371.78937991 41.0655592026 1358.92305819 c 1
 146.93531922 1535.37211573 223.753271067 1607.890625 333.330078125 1607.890625 c 0
 444.106794764 1607.890625 522.400390625 1530.63153491 522.400390625 1426.3230002 c 0
 521.900684884 1286.11510717 429.903012232 1238 204 1238 c 2
 180.030273438 1238 l 2
 61.9289363973 1238 -21.0238683701 1258.15362137 -53.2494523728 1309.92552919 c 2
 -55.3660308471 1313.3259115 l 1
 -54.5500449792 1317.2472214 l 1
EndSplineSet
EndChar

StartChar: uni06CD
Encoding: 116 1741 352
Width: 1681
VWidth: 2950
Flags: HW
AnchorPoint: "Anchor-7" 920.902 -616.086 basechar 0
AnchorPoint: "Anchor-10" 848.6 996.22 basechar 0
LayerCount: 2
Fore
SplineSet
261.977539062 320.336914062 m 1
 80.380859375 247.330078125 l 1
 -24.1572265625 205.303710938 l 1
 -0.68359375 315.500976562 l 1
 35.31640625 484.500976562 l 1
 41.99609375 515.858398438 l 1
 71.77734375 527.732421875 l 1
 387.77734375 653.732421875 l 1
 410.21484375 662.6796875 l 1
 432.591796875 653.583984375 l 1
 489.208984375 630.572265625 l 1
 587.591796875 590.583984375 l 1
 643.31640625 567.934570312 l 1
 620.52734375 512.267578125 l 2
 561.119140625 367.15625 533 252.42578125 533 142 c 0
 533 -96.7900390625 648.487304688 -207.077148438 928.098632812 -208 c 0
 1157.01757812 -208 1354.75195312 -105.264648438 1360.83300781 11.291015625 c 1
 1352.23730469 14.1474609375 1336.79394531 16 1322 16 c 2
 1178 16 l 2
 988.3515625 16 872 132.360351562 872 323 c 0
 872 631.220703125 1126.29101562 826.53515625 1395.55859375 826.53515625 c 0
 1435.66992188 826.53515625 1515.12207031 825.365234375 1599.07714844 790.384765625 c 2
 1644.21191406 771.578125 l 1
 1634.90234375 723.576171875 l 1
 1602.90234375 558.576171875 l 1
 1590.15625 492.852539062 l 1
 1526.21582031 512.696289062 l 2
 1475.79589844 528.34375 1431.64257812 531.233398438 1395.96875 531.233398438 c 0
 1248.11621094 531.233398438 1161 421.20703125 1161 336 c 0
 1161 325.8125 1161.71679688 317.939453125 1162.39160156 314.053710938 c 0
 1167.42773438 312.952148438 1175.6484375 312 1188 312 c 2
 1368.125 312 l 2
 1537.22460938 311.294921875 1643 202.791015625 1643 58 c 0
 1643 -306.479492188 1329.95117188 -499 923 -499 c 0
 484.178710938 -499 242 -278.584960938 242 139 c 0
 242 205.505859375 248.375976562 262.373046875 261.977539062 320.336914062 c 1
EndSplineSet
Substitution2: "'fina' Terminal Forms in Arabic lookup 1 subtable" uni06CD.fina
EndChar

StartChar: uni06CD.compact
Encoding: 392 -1 353
Width: 1677
VWidth: 2703
Flags: HW
AnchorPoint: "Anchor-7" 958.902 -638.086 basechar 0
AnchorPoint: "Anchor-10" 921.6 713.22 basechar 0
LayerCount: 2
Fore
SplineSet
-0.68359375 205.500976562 m 1
 35.31640625 374.500976562 l 1
 41.99609375 405.858398438 l 1
 71.77734375 417.732421875 l 1
 387.77734375 543.732421875 l 1
 410.288085938 552.708984375 l 1
 432.717773438 543.533203125 l 1
 489.30859375 520.381835938 l 1
 586.717773438 480.533203125 l 1
 639.92578125 458.766601562 l 1
 620.453125 404.676757812 l 2
 586.662109375 310.811523438 570 217.0390625 570 120 c 0
 570 -117.192382812 683.819335938 -227 959 -227 c 0
 1200.50097656 -227 1384 -112.374023438 1384 -47 c 0
 1384 -35.908203125 1374.48144531 0 1280 0 c 2
 1157 0 l 2
 1134.13476562 0 1111.16796875 5.8779296875 1091.99609375 17.908203125 c 0
 1054.84277344 41.2236328125 1040.2578125 79.1025390625 1033.57519531 108.337890625 c 2
 1011.53320312 200.513671875 l 2
 1007.66699219 217.912109375 1005.56445312 245.3203125 1025.11132812 270.134765625 c 0
 1046.70507812 297.546875 1076.47167969 300 1093 300 c 2
 1697 300 l 1
 1757 300 l 1
 1757 240 l 1
 1757 60 l 1
 1757 0 l 1
 1697 0 l 1
 1661.84277344 0 l 1
 1665.79003906 -21.890625 1666 -40.275390625 1666 -54 c 0
 1666 -340.465820312 1356.34667969 -519 960 -519 c 0
 518.938476562 -519 279 -297.232421875 279 121 c 0
 279 155.422851562 281.365234375 187.303710938 285.78515625 219.59375 c 1
 80.3076171875 137.30078125 l 1
 -24.1201171875 95.478515625 l 1
 -0.68359375 205.500976562 l 1
EndSplineSet
EndChar

StartChar: NameMe.65587
Encoding: 394 -1 355
Width: 504
VWidth: 2682
Flags: HW
LayerCount: 2
Fore
SplineSet
230.306640625 -223.79296875 m 5
 90.306640625 -83.79296875 l 5
 76.21484375 -69.701171875 l 5
 90.2568359375 -55.5595703125 l 5
 230.256835938 85.4404296875 l 5
 241.624023438 96.8896484375 l 5
 230.306640625 108.20703125 l 5
 90.306640625 248.20703125 l 5
 76.21484375 262.298828125 l 5
 90.2568359375 276.440429688 l 5
 230.256835938 417.440429688 l 5
 244.348632812 431.633789062 l 5
 258.541015625 417.541015625 l 5
 400.541015625 276.541015625 l 5
 414.884765625 262.298828125 l 5
 400.490234375 248.107421875 l 5
 258.490234375 108.107421875 l 5
 247.112304688 96.8896484375 l 5
 258.541015625 85.541015625 l 5
 400.541015625 -55.458984375 l 5
 414.884765625 -69.701171875 l 5
 400.490234375 -83.892578125 l 5
 258.490234375 -223.892578125 l 5
 244.349609375 -237.834960938 l 5
 230.306640625 -223.79296875 l 5
EndSplineSet
EndChar

StartChar: uni06D2
Encoding: 119 1746 385
Width: 1744
VWidth: 60
Flags: HW
AnchorPoint: "Anchor-10" 585.53 1180.1 basechar 0
AnchorPoint: "Anchor-7" 881.902 -120.086 basechar 0
LayerCount: 2
Fore
SplineSet
743.319335938 476.577148438 m 2
 699.987304688 533.303710938 651.579101562 603.83984375 600.138671875 661.504882812 c 1
 566.950195312 609.928710938 543.46484375 570.090820312 489.166992188 504.677734375 c 0
 421.950195312 423.69921875 373.90234375 381.254882812 346.15625 357.802734375 c 1
 414.780273438 321.22265625 606.431640625 290.009765625 807.669921875 290.009765625 c 0
 1226.5 290.009765625 1630.06933594 356.172851562 1630.24902344 356.202148438 c 2
 1697.6640625 367.305664062 l 1
 1699.96582031 299.021484375 l 1
 1705.96582031 121.021484375 l 1
 1707.78125 67.1630859375 l 1
 1654.42480469 59.5947265625 l 2
 1651.91894531 59.2392578125 1239.80664062 0.67578125 810.045898438 0.67578125 c 0
 518.045898438 0.67578125 38 21.2705078125 38 343 c 0
 38 522.645507812 192.268554688 572.19140625 292.556640625 701.73046875 c 0
 418.279296875 864.12109375 439.591796875 992 584 992 c 0
 759.298828125 992 925.483398438 709.404296875 960.703125 644.676757812 c 2
 983.592773438 602.610351562 l 1
 947.646484375 570.96484375 l 1
 830.646484375 467.96484375 l 1
 782.366210938 425.461914062 l 1
 743.319335938 476.577148438 l 2
EndSplineSet
Position2: "Single Positioning lookup 2 subtable" dx=0 dy=0 dh=-120 dv=0
Position2: "Single Positioning lookup 1 subtable" dx=0 dy=0 dh=-120 dv=0
Substitution2: "'fina' Terminal Forms in Arabic lookup 1 subtable" uniFBAF
EndChar

StartChar: uni06D4
Encoding: 121 1748 387
Width: 632
VWidth: 2950
Flags: HW
LayerCount: 2
Fore
SplineSet
38 60 m 1
 38 240 l 1
 38 300 l 1
 98 300 l 1
 534 300 l 1
 594 300 l 1
 594 240 l 1
 594 60 l 1
 594 0 l 1
 534 0 l 1
 98 0 l 1
 38 0 l 1
 38 60 l 1
EndSplineSet
EndChar

StartChar: uniFBA7
Encoding: 184 64423 388
Width: 919
VWidth: 2950
Flags: HW
AnchorPoint: "Anchor-10" 465.28 954.77 basechar 0
AnchorPoint: "Anchor-7" 442.251 -146.396 basechar 0
LayerCount: 2
Fore
SplineSet
229.635742188 -18.2548828125 m 1
 83.6357421875 17.7451171875 l 1
 33.302734375 30.1552734375 l 1
 38.2763671875 81.7568359375 l 2
 70.9755859375 421.001953125 263.856445312 725 479 725 c 0
 809.046875 725 759.8515625 300 906 300 c 2
 939 300 l 5
 939 240 l 5
 939 60 l 5
 939 0 l 5
 907 0 l 2
 582.060546875 0 513.991210938 345.149414062 474.715820312 399.806640625 c 1
 430.533203125 380.282226562 332.08203125 249.15625 303.485351562 32.1611328125 c 2
 294.7265625 -34.3046875 l 1
 229.635742188 -18.2548828125 l 1
EndSplineSet
EndChar

StartChar: uniFBA9
Encoding: 186 64425 390
Width: 1002
Flags: HW
AnchorPoint: "Anchor-7" 604.251 -647.396 basechar 0
AnchorPoint: "Anchor-10" 483.28 894.77 basechar 0
LayerCount: 2
Fore
SplineSet
168.080078125 21.283203125 m 1
 128.498046875 7.064453125 89.5986328125 0 43 0 c 2
 -20 0 l 5
 -20 60 l 5
 -20 240 l 5
 -20 300 l 5
 45 300 l 2
 194.086914062 300 215.685546875 336.034179688 334.98046875 447.788085938 c 2
 379.610351562 489.596679688 l 1
 420.561523438 444.178710938 l 1
 530.561523438 322.178710938 l 1
 571.145507812 277.166015625 l 1
 525.727539062 237.036132812 l 1
 500.829101562 215.037109375 l 2
 396.293945312 122.672851562 432.21484375 -25.7890625 532.091796875 -138.66796875 c 1
 564.888671875 127.197265625 720.526367188 300 988 300 c 2
 1022 300 l 1
 1022 240 l 1
 1022 60 l 1
 1022 0 l 1
 986 0 l 2
 857.524414062 0 793 -65.83203125 793 -270 c 0
 793 -296.557617188 793.98828125 -327.98046875 796.720703125 -356.220703125 c 2
 799.493164062 -384.864257812 l 1
 778.890625 -404.956054688 l 1
 657.890625 -522.956054688 l 1
 627.966796875 -552.137695312 l 1
 590.22265625 -534.180664062 l 2
 370.702148438 -429.739257812 204.344726562 -242.982421875 168.080078125 21.283203125 c 1
EndSplineSet
EndChar

StartChar: uniFBAA
Encoding: 187 64426 391
Width: 1487
VWidth: 2703
Flags: HW
AnchorPoint: "Anchor-10" 727.134 1222.79 basechar 0
AnchorPoint: "Anchor-7" 628.852 -239.953 basechar 0
LayerCount: 2
Fore
SplineSet
47 300 m 5
 119 300 l 5
 119 0 l 1
 95 0 l 1
 47 300 l 5
EndSplineSet
Refer: 246 65259 N 1 0 0 1 118 0 2
EndChar

StartChar: uniFBAB
Encoding: 188 64427 392
Width: 1120
VWidth: 2703
Flags: HW
AnchorPoint: "Anchor-10" 659.648 1135.04 basechar 0
AnchorPoint: "Anchor-7" 705.16 -709.603 basechar 0
LayerCount: 2
Fore
SplineSet
47 300 m 5
 119 300 l 5
 119 0 l 1
 95 0 l 1
 47 300 l 5
EndSplineSet
Refer: 247 65260 N 1 0 0 1 118 0 2
EndChar

StartChar: uni0658
Encoding: 65 1624 397
Width: 0
VWidth: 2316
Flags: HW
AnchorPoint: "Anchor-7" 711.902 -612.086 basechar 0
AnchorPoint: "Anchor-10" 603.219 1239.43 mark 0
AnchorPoint: "Anchor-9" 603.219 1239.43 mark 0
AnchorPoint: "Anchor-1" 598.537 1560.66 basemark 0
AnchorPoint: "Anchor-1" 603.219 1239.43 mark 0
LayerCount: 2
Fore
SplineSet
847.439374725 1538.08319054 m 2
 833.518048008 1386.87733171 750.350331543 1262.1953125 591.306640625 1262.1953125 c 0
 431.646164706 1262.1953125 348.987970298 1388.05575967 335.174875006 1538.083173 c 2
 334.169757553 1549 l 1
 345.132757726 1549 l 1
 445.584259067 1549 l 1
 454.319183451 1549 l 1
 455.493480493 1540.34437001 l 2
 468.421249834 1445.05503183 502.789917714 1384.0703125 591.306640625 1384.0703125 c 0
 680.402414427 1384.0703125 712.864196089 1446.37484379 725.364876248 1540.31902351 c 2
 726.520010189 1549 l 1
 735.277503396 1549 l 1
 837.48149039 1549 l 1
 848.444471169 1549 l 1
 847.439374725 1538.08319054 l 2
EndSplineSet
EndChar

StartChar: uniFBC0
Encoding: 196 64448 398
Width: 0
VWidth: 2712
Flags: HW
AnchorPoint: "Anchor-10" 674.729 1661.91 mark 0
AnchorPoint: "Anchor-9" 674.729 1661.91 mark 0
AnchorPoint: "Anchor-1" 673.079 2352.57 basemark 0
AnchorPoint: "Anchor-1" 674.729 1661.91 mark 0
LayerCount: 2
Fore
SplineSet
640.494257692 1842.54980469 m 2
 807.460730716 1842.54980469 862.275390625 1879.11536714 862.275390625 1922.95019531 c 0
 862.275390625 1959.38293575 838.01467795 1985.34960938 798.525390625 1985.34960938 c 0
 750.608895315 1985.34960938 688.028733205 1939.22413243 619.258745917 1842.40635241 c 1
 640.494257692 1842.54980469 l 2
479.171860243 1841.65039062 m 1
 487.073381253 1854.29687126 495.0896845 1866.88742605 501.375 1876.80405757 c 1
 501.375 2297.34960938 l 1
 501.375 2306.34960938 l 1
 501.375 2311.34960938 l 1
 501.375 2321.34960938 l 1
 511.375 2321.34960938 l 1
 516.375 2321.34960938 l 1
 525.375 2321.34960938 l 1
 601.424804688 2321.34960938 l 1
 610.424804688 2321.34960938 l 1
 615.424804688 2321.34960938 l 1
 625.424804688 2321.34960938 l 1
 625.424804688 2311.34960938 l 1
 625.424804688 2306.34960938 l 1
 625.424804688 2297.34960938 l 1
 625.424804688 2039.28360583 l 1
 677.801051634 2088.66751019 732.614924438 2114.79980469 794.474609375 2114.79980469 c 0
 908.636346858 2114.79980469 990.375 2034.98269656 990.375 1926.46418385 c 0
 989.325423774 1779.03785535 859.609030634 1712.65039062 642.375 1712.65039062 c 2
 392.625 1712.65039062 l 1
 383.625 1712.65039062 l 1
 378.625 1712.65039062 l 1
 368.625 1712.65039062 l 1
 368.625 1722.65039062 l 1
 368.625 1727.65039062 l 1
 368.625 1736.65039062 l 1
 368.625 1817.65039062 l 1
 368.625 1826.65039062 l 1
 368.625 1831.65039062 l 1
 368.625 1841.65039062 l 1
 378.625 1841.65039062 l 1
 383.625 1841.65039062 l 1
 392.625 1841.65039062 l 1
 479.171860243 1841.65039062 l 1
EndSplineSet
EndChar

StartChar: uniFBBF
Encoding: 195 64447 403
Width: 0
VWidth: 0
Flags: HW
LayerCount: 2
Fore
SplineSet
126 387 m 0
 126 340.616560399 163.370771781 304 210 304 c 0
 256.527378253 304 293 340.472682647 293 387 c 0
 293 433.629203182 256.383492769 471 210 471 c 0
 163.514949756 471 126 433.485078217 126 387 c 0
18 387 m 0
 18 492.541562499 104.458426671 579 210 579 c 0
 315.541562499 579 402 492.541573329 402 387 c 0
 402 281.458437501 315.541573329 195 210 195 c 0
 104.458437501 195 18 281.458426671 18 387 c 0
EndSplineSet
EndChar

StartChar: uniFBAF.compact
Encoding: 420 -1 408
Width: 1207
VWidth: 2950
Flags: HW
AnchorPoint: "Anchor-7" 802.902 -572.086 basechar 0
AnchorPoint: "Anchor-10" 756.53 579.1 basechar 0
LayerCount: 2
Fore
SplineSet
656 0 m 2
 521.701171875 0 399.361328125 -68.919921875 347.069335938 -112.681640625 c 1
 416.408203125 -149.112304688 607.387695312 -179.990234375 807.669921875 -179.990234375 c 0
 1159.02148438 -179.990234375 1338.296875 -116.040039062 1339.56054688 -115.588867188 c 2
 1403.32519531 -92.37890625 l 1
 1418.48730469 -158.611328125 l 1
 1456.48730469 -324.611328125 l 1
 1469.09277344 -379.678710938 l 1
 1414.88183594 -395.576171875 l 2
 1410.42675781 -396.8828125 1162.6796875 -469.32421875 810.045898438 -469.32421875 c 0
 518.045898438 -469.32421875 38 -448.729492188 38 -127 c 0
 38 85.85546875 363.068359375 300 660 300 c 2
 1227 300 l 1
 1287 300 l 1
 1287 240 l 1
 1287 60 l 1
 1287 0 l 1
 1227 0 l 1
 656 0 l 2
EndSplineSet
EndChar

StartChar: uni06F4.urdu
Encoding: 422 -1 412
Width: 1246
VWidth: 2950
Flags: HW
LayerCount: 2
Fore
SplineSet
906.5 589 m 5
 864 589 l 5
 786 589 l 5
 744.1484375 589 l 5
 729.692382812 628.275390625 l 6
 630.825195312 896.891601562 485.110351562 1018.86035156 438.982421875 1021.296875 c 5
 438.9765625 1020.296875 438.9765625 1020.87304688 438.9765625 1019.87304688 c 4
 438.9765625 965.129882812 537 739.22265625 537 185 c 6
 537 60 l 1
 537 0 l 1
 477 0 l 1
 307 0 l 1
 247 0 l 1
 247 60 l 1
 247 188 l 6
 247 732.01171875 147 887.790039062 147 1051 c 4
 147 1202.72265625 244.489257812 1316.71191406 396.576171875 1316.71191406 c 4
 589.576171875 1316.71191406 742.23828125 1188.18164062 836.145507812 1025.74804688 c 5
 863.89453125 1124.10351562 898.286132812 1212.99121094 938.4375 1285.93359375 c 6
 967.181640625 1338.15234375 l 5
 1019.58789062 1309.75195312 l 5
 1174.58789062 1225.75195312 l 5
 1234.89746094 1193.06738281 l 5
 1194.4765625 1137.64453125 l 6
 1104.05664062 1013.66601562 1047.27832031 869.79296875 1008.15625 638.973632812 c 6
 999.686523438 589 l 5
 949 589 l 5
 906.5 589 l 5
EndSplineSet
EndChar

StartChar: uni06F7.urdu
Encoding: 423 -1 413
Width: 1056
VWidth: 2950
Flags: HW
LayerCount: 2
Fore
SplineSet
50 60 m 2
 50 440.877929688 415.922851562 930.344726562 748.330078125 1283.14550781 c 6
 789.39453125 1326.72851562 l 5
 833.05859375 1285.75097656 l 5
 963.05859375 1163.75097656 l 5
 1009.72949219 1119.95214844 l 5
 963.010742188 1076.20410156 l 6
 664.291015625 796.477539062 440.236328125 516.205078125 375.645507812 300 c 1
 956 300 l 1
 1016 300 l 1
 1016 240 l 1
 1016 60 l 1
 1016 0 l 1
 956 0 l 1
 110 0 l 1
 50 0 l 1
 50 60 l 2
EndSplineSet
EndChar

StartChar: uni06E9
Encoding: 126 1769 418
Width: 1180
VWidth: 0
Flags: HW
LayerCount: 2
Fore
SplineSet
491.305616029 63.4168825317 m 1
 524.3203125 87.6922156811 l 1
 524.3203125 674.486770626 l 1
 386.579322813 812.227760313 l 1
 379.508255001 819.298828125 l 1
 385.936498467 825.72707159 l 1
 386.579322813 826.369895937 l 1
 582.928932188 1022.71950531 l 1
 590 1029.79057312 l 1
 597.071067812 1022.71950531 l 1
 793.420677187 826.369895937 l 1
 800.491744999 819.298828125 l 1
 793.420677187 812.227760313 l 1
 655.6796875 674.486770626 l 1
 655.6796875 87.6922156811 l 1
 688.694383971 63.4168825317 l 1
 713.251447126 45.3603515625 l 1
 682.770507812 45.3603515625 l 1
 497.229492188 45.3603515625 l 1
 466.748552874 45.3603515625 l 1
 491.305616029 63.4168825317 l 1
520.93018007 819.298869617 m 1
 590 750.229049686 l 1
 659.06981993 819.298869617 l 1
 590 888.369500141 l 1
 520.93018007 819.298869617 l 1
238.087438692 819.298837557 m 1
 421.391380312 635.994895937 l 1
 424.3203125 633.065963749 l 1
 424.3203125 628.923828125 l 1
 424.3203125 143.345703125 l 1
 424.3203125 138.286340512 l 1
 420.244240704 135.289210425 l 1
 221.51953125 -10.8328001126 l 1
 221.51953125 -54.6396484375 l 1
 958.48046875 -54.6396484375 l 1
 958.48046875 -10.8328001126 l 1
 759.755759296 135.289210425 l 1
 755.6796875 138.286340512 l 1
 755.6796875 143.345703125 l 1
 755.6796875 628.923828125 l 1
 755.6796875 633.065963749 l 1
 758.608619688 635.994895937 l 1
 941.912561308 819.298837557 l 1
 590 1171.2123377 l 1
 238.087438692 819.298837557 l 1
103.737518733 826.369888732 m 1
 582.928924983 1305.56227155 l 1
 590 1312.63336097 l 1
 597.071075017 1305.56227155 l 1
 1076.26248127 826.369888732 l 1
 1083.33353467 819.29882092 l 1
 1076.26247406 812.227760313 l 1
 855.6796875 591.644973751 l 1
 855.6796875 188.879675113 l 1
 1054.40439695 42.7576645753 l 1
 1058.48046875 39.7605344876 l 1
 1058.48046875 34.701171875 l 1
 1058.48046875 -144.639648438 l 1
 1058.48046875 -154.639648438 l 1
 1048.48046875 -154.639648438 l 1
 131.51953125 -154.639648438 l 1
 121.51953125 -154.639648438 l 1
 121.51953125 -144.639648438 l 1
 121.51953125 34.701171875 l 1
 121.51953125 39.7605344876 l 1
 125.595603046 42.7576645753 l 1
 324.3203125 188.879675113 l 1
 324.3203125 591.644973751 l 1
 103.737525938 812.227760313 l 1
 96.6664653315 819.29882092 l 1
 103.737518733 826.369888732 l 1
EndSplineSet
EndChar

StartChar: uni06DE
Encoding: 125 1758 419
Width: 1990
VWidth: 0
Flags: HW
LayerCount: 2
Fore
SplineSet
450.599609375 217.802734375 m 5
 450.599609375 30.140625 l 5
 638.26171875 30.140625 l 5
 450.599609375 217.802734375 l 5
734.40234375 -66 m 5
 365 -66 l 5
 355 -66 l 5
 355 -56 l 5
 355 313.40234375 l 5
 93.7919921875 574.610351562 l 5
 86.720703125 581.681640625 l 5
 93.7919921875 588.752929688 l 5
 355 849.9609375 l 5
 355 1213 l 5
 355 1223 l 5
 365 1223 l 5
 728.0390625 1223 l 5
 984.747070312 1479.70800781 l 5
 991.818359375 1486.77929688 l 5
 998.889648438 1479.70800781 l 5
 1255.59765625 1223 l 5
 1625 1223 l 5
 1635 1223 l 5
 1635 1213 l 5
 1635 843.59765625 l 5
 1896.20800781 582.389648438 l 5
 1903.27929688 575.318359375 l 5
 1896.20800781 568.247070312 l 5
 1635 307.0390625 l 5
 1635 -56 l 5
 1635 -66 l 5
 1625 -66 l 5
 1261.9609375 -66 l 5
 1005.25292969 -322.708007812 l 5
 998.181640625 -329.779296875 l 5
 991.110351562 -322.708007812 l 5
 734.40234375 -66 l 5
1358.1015625 30.140625 m 5
 1539.40039062 30.140625 l 5
 1539.40039062 211.439453125 l 5
 1358.1015625 30.140625 l 5
1539.40039062 939.197265625 m 5
 1539.40039062 1126.859375 l 5
 1351.73828125 1126.859375 l 5
 1539.40039062 939.197265625 l 5
450.599609375 945.560546875 m 5
 631.8984375 1126.859375 l 5
 450.599609375 1126.859375 l 5
 450.599609375 945.560546875 l 5
450.599609375 809.596679688 m 5
 450.599609375 353.002929688 l 5
 773.461914062 30.140625 l 5
 1222.13769531 30.140625 l 5
 1539.40039062 347.403320312 l 5
 1539.40039062 803.997070312 l 5
 1216.53808594 1126.859375 l 5
 767.862304688 1126.859375 l 5
 450.599609375 809.596679688 l 5
864.002929688 1223 m 5
 1120.39746094 1223 l 5
 992.200195312 1351.19726562 l 5
 864.002929688 1223 l 5
355 713.997070312 m 5
 222.302734375 581.299804688 l 5
 355 448.602539062 l 5
 355 713.997070312 l 5
1635 708.397460938 m 5
 1635 443.002929688 l 5
 1767.69726562 575.700195312 l 5
 1635 708.397460938 l 5
1125.99707031 -66 m 5
 869.602539062 -66 l 5
 997.799804688 -194.197265625 l 5
 1125.99707031 -66 l 5
911 575 m 4
 911 528.616210938 948.37109375 492 995 492 c 4
 1041.52734375 492 1078 528.47265625 1078 575 c 4
 1078 621.62890625 1041.38378906 659 995 659 c 4
 948.514648438 659 911 621.485351562 911 575 c 4
812 575 m 4
 812 675.543945312 894.456054688 758 995 758 c 4
 1095.54394531 758 1178 675.543945312 1178 575 c 4
 1178 474.456054688 1095.54394531 392 995 392 c 4
 894.456054688 392 812 474.456054688 812 575 c 4
EndSplineSet
EndChar

StartChar: uni06DD
Encoding: 124 1757 420
Width: 2440
VWidth: 0
Flags: HW
LayerCount: 2
Fore
SplineSet
274 1362 m 0
 274 1471.53577675 363.464171112 1561 473 1561 c 0
 509.955626655 1561 545.567544514 1550.16799875 574.230361679 1533.17654026 c 1
 756.811609835 1662.23463442 979.549086182 1738 1220 1738 c 0
 1459.76819007 1738 1682.83658758 1661.91700221 1863.95381809 1534.45723156 c 1
 1893.83988638 1551.63694904 1926.98014549 1561 1963 1561 c 0
 2072.53577675 1561 2162 1471.53582889 2162 1362 c 0
 2162 1326.01460929 2151.8339342 1291.52310206 2135.58957847 1263.18445232 c 1
 2264.48812853 1080.54537839 2340 858.196226415 2340 618 c 0
 2340 377.8865964 2263.72302837 154.570342822 2135.9063495 -26.7354453613 c 1
 2152.8327459 -56.5027867233 2162 -89.2974807977 2162 -125 c 0
 2162 -234.535776746 2072.53582889 -324 1963 -324 c 0
 1927.24910445 -324 1893.0115359 -313.984786299 1864.73544536 -297.906349502 c 1
 1682.13228475 -426.637648011 1460.00069196 -502 1220 -502 c 0
 979.093202203 -502 754.935297739 -425.129275898 573.460599664 -296.631543669 c 1
 543.434606735 -314.243751263 509.590317806 -324 473 -324 c 0
 363.464223254 -324 274 -234.535828888 274 -125 c 0
 274 -87.9825731226 284.838718423 -52.3784651696 301.908621828 -23.6261148749 c 1
 174.603303665 158.217651142 100 379.365223265 100 618 c 0
 100 856.945386145 175.660700438 1079.49134631 302.231285475 1260.08693366 c 1
 284.122703926 1290.35313713 274 1324.81318511 274 1362 c 0
1859.59960938 -125 m 0
 1859.59960938 -181.864696197 1906.13538813 -228.400390625 1963 -228.400390625 c 0
 2019.86469619 -228.400390625 2066.40039062 -181.864611879 2066.40039062 -125 c 0
 2066.40039062 -68.1353038025 2019.86461187 -21.599609375 1963 -21.599609375 c 0
 1906.13530381 -21.599609375 1859.59960938 -68.1353881213 1859.59960938 -125 c 0
369.599609375 -125 m 0
 369.599609375 -181.864696197 416.135388121 -228.400390625 473 -228.400390625 c 0
 529.864696197 -228.400390625 576.400390625 -181.864611879 576.400390625 -125 c 0
 576.400390625 -68.1353038027 529.864611879 -21.599609375 473 -21.599609375 c 0
 416.135303803 -21.599609375 369.599609375 -68.1353881215 369.599609375 -125 c 0
1859.59960938 1362 m 0
 1859.59960938 1305.13530381 1906.13538813 1258.59960938 1963 1258.59960938 c 0
 2019.86469619 1258.59960938 2066.40039062 1305.13538813 2066.40039062 1362 c 0
 2066.40039062 1418.86469619 2019.86461187 1465.40039062 1963 1465.40039062 c 0
 1906.13530381 1465.40039062 1859.59960938 1418.86461187 1859.59960938 1362 c 0
369.599609375 1362 m 0
 369.599609375 1305.13530381 416.135388121 1258.59960938 473 1258.59960938 c 0
 529.864696197 1258.59960938 576.400390625 1305.13538813 576.400390625 1362 c 0
 576.400390625 1418.86469619 529.864611879 1465.40039062 473 1465.40039062 c 0
 416.135303803 1465.40039062 369.599609375 1418.86461187 369.599609375 1362 c 0
1764.72213167 1345 m 1
 671.277868329 1345 l 1
 662.00249564 1242.10919612 576.53104452 1163 473 1163 c 0
 448.413700404 1163 423.389866136 1168.07053488 403.151283008 1175.70909464 c 1
 294.077297499 1016.08444167 231 824.92946993 231 618 c 0
 231 411.320059511 294.778595311 219.208628327 402.608276803 61.0849454159 c 1
 424.56022316 69.4408344885 448.25926804 74 473 74 c 0
 576.069298868 74 660.369139332 -5.33994409221 670.893015516 -104 c 1
 1765.10698449 -104 l 1
 1775.76689778 -4.06461277239 1860.58995117 74 1963 74 c 0
 1989.00904015 74 2013.9411595 68.7972633301 2036.54919137 59.8536042618 c 1
 2145.66635913 219.300488071 2209 410.885833699 2209 618 c 0
 2209 825.553835855 2144.5958037 1018.57729802 2036.01108529 1176.9315108 c 1
 2011.68522989 1167.4026342 1988.94164822 1163 1963 1163 c 0
 1858.80422127 1163 1773.87915006 1243.42208879 1764.72213167 1345 c 1
1743.86689012 1457 m 1
 1591.25241325 1552.40608737 1412.45014352 1607 1220 1607 c 0
 1027.48903392 1607 847.389455269 1551.55705907 696.133109874 1457 c 1
 1743.86689012 1457 l 1
688.226687785 -216 m 1
 841.802027811 -314.133213112 1024.22634089 -371 1220 -371 c 0
 1415.84927344 -371 1599.53150052 -313.281100921 1751.77331221 -216 c 1
 688.226687785 -216 l 1
EndSplineSet
EndChar

StartChar: uniFD3E
Encoding: 204 64830 421
Width: 1273
Flags: HW
LayerCount: 2
Fore
SplineSet
607 603 m 0
 607 566 639 535 677 535 c 0
 716 535 747 566 747 607 c 0
 747 644 713 674 676 674 c 0
 635 674 607 640 607 603 c 0
630 202 m 0
 668 30 753 -108 884 -213 c 1
 812 -79 765 61 742 204 c 0
 739 221 744 234 756 246 c 2
 791 281 l 2
 800 290 812 296 826 296 c 2
 987 296 l 1
 987 916 l 1
 826 916 l 2
 812 916 800 922 791 931 c 2
 753 969 l 2
 741 980 737 995 740 1011 c 0
 767 1182 819 1337 895 1477 c 1
 753 1367 662 1209 622 1002 c 0
 620 992 615 984 608 977 c 2
 562 931 l 2
 553 922 542 916 528 916 c 2
 366 916 l 1
 366 755 l 2
 366 741 361 730 352 721 c 2
 237 606 l 1
 352 491 l 2
 361 482 366 471 366 457 c 2
 366 296 l 1
 528 296 l 2
 542 296 553 290 562 281 c 2
 617 226 l 2
 624 219 628 210 630 202 c 0
833 599 m 0
 833 516 759 446 676 446 c 0
 587 446 519 519 519 609 c 0
 519 692 593 762 676 762 c 0
 765 762 833 689 833 599 c 0
1093 1575 m 1
 968 1461 883 1275 839 1019 c 1
 845 1013 l 1
 1036 1013 l 2
 1068 1013 1084 994 1084 965 c 2
 1084 247 l 1
 1083 215 1067 199 1036 199 c 2
 845 199 l 1
 842 196 l 1
 888 -49 972 -217 1090 -315 c 0
 1125 -344 1100 -372 1047 -400 c 1
 779 -321 610 -131 539 167 c 1
 508 199 l 1
 317 199 l 2
 295 199 269 218 269 247 c 2
 269 437 l 1
 135 572 l 2
 126 581 120 594 120 607 c 0
 120 619 125 630 135 640 c 2
 269 775 l 1
 269 965 l 2
 269 995 297 1013 317 1013 c 2
 508 1013 l 1
 529 1035 l 1
 595 1367 769 1575 1047 1657 c 1
 1084 1671 1107 1626 1093 1575 c 1
EndSplineSet
EndChar

StartChar: uniFD3F
Encoding: 205 64831 422
Width: 1273
Flags: HW
LayerCount: 2
Fore
SplineSet
666 603 m 4
 666 640 638 674 597 674 c 4
 560 674 526 644 526 607 c 4
 526 566 557 535 596 535 c 4
 634 535 666 566 666 603 c 4
643 202 m 4
 645 210 649 219 656 226 c 6
 711 281 l 6
 720 290 731 296 745 296 c 6
 907 296 l 5
 907 457 l 6
 907 471 912 482 921 491 c 6
 1036 606 l 5
 921 721 l 6
 912 730 907 741 907 755 c 6
 907 916 l 5
 745 916 l 6
 731 916 720 922 711 931 c 6
 665 977 l 6
 658 984 653 992 651 1002 c 4
 611 1209 520 1367 378 1477 c 5
 454 1337 506 1182 533 1011 c 4
 536 995 532 980 520 969 c 6
 482 931 l 6
 473 922 461 916 447 916 c 6
 286 916 l 5
 286 296 l 5
 447 296 l 6
 461 296 473 290 482 281 c 6
 517 246 l 6
 529 234 534 221 531 204 c 4
 508 61 461 -79 389 -213 c 5
 520 -108 605 30 643 202 c 4
440 599 m 4
 440 689 508 762 597 762 c 4
 680 762 754 692 754 609 c 4
 754 519 686 446 597 446 c 4
 514 446 440 516 440 599 c 4
180 1575 m 5
 166 1626 189 1671 226 1657 c 5
 504 1575 678 1367 744 1035 c 5
 765 1013 l 5
 956 1013 l 6
 976 1013 1004 995 1004 965 c 6
 1004 775 l 5
 1138 640 l 6
 1148 630 1153 619 1153 607 c 4
 1153 594 1147 581 1138 572 c 6
 1004 437 l 5
 1004 247 l 6
 1004 218 978 199 956 199 c 6
 765 199 l 5
 734 167 l 5
 663 -131 494 -321 226 -400 c 5
 173 -372 148 -344 183 -315 c 4
 301 -217 385 -49 431 196 c 5
 428 199 l 5
 237 199 l 6
 206 199 190 215 189 247 c 5
 189 965 l 6
 189 994 205 1013 237 1013 c 6
 428 1013 l 5
 434 1019 l 5
 390 1275 305 1461 180 1575 c 5
EndSplineSet
EndChar

StartChar: uni0610
Encoding: 9 1552 423
Width: 0
VWidth: 2712
Flags: HW
AnchorPoint: "Anchor-10" 493.924 1223.86 mark 0
AnchorPoint: "Anchor-9" 493.924 1223.86 mark 0
AnchorPoint: "Anchor-1" 534.091 1760.26 basemark 0
AnchorPoint: "Anchor-1" 493.924 1223.86 mark 0
LayerCount: 2
Fore
SplineSet
457.945716735 1377.40527344 m 2
 642.456992482 1377.40527344 723.709960938 1416.73594272 723.709960938 1484.56542969 c 0
 723.709960938 1534.31465749 688.480783058 1571.52539062 635.234375 1571.52539062 c 0
 566.57341094 1571.52539062 487.033908971 1505.49432549 401.788704685 1377.0259234 c 1
 457.945716735 1377.40527344 l 2
128.058646177 1197.39146557 m 2
 146.955386503 1230.20814447 156.920106969 1273.12630212 157.099609375 1326.51681028 c 0
 157.099609375 1386.89464246 141.893859716 1447.51901548 112.633029134 1508.52079816 c 2
 107.771721344 1518.65545379 l 1
 118.403296056 1522.30417646 l 1
 203.748022619 1551.59421553 l 1
 213.38514175 1554.9016442 l 1
 216.511690222 1545.20433302 l 1
 246.298789969 1452.8164512 l 2
 258.570515161 1415.12321034 272.605346264 1397.49840165 284.439171677 1392.95689225 c 1
 398.767214861 1585.09660863 511.790035072 1683.43554688 632.205078125 1683.43554688 c 0
 747.942620145 1683.43554688 833.599609375 1598.78685167 833.599609375 1489.09256219 c 0
 833.063707525 1338.46889956 703.070923241 1266 460 1266 c 2
 434.244140625 1266 l 2
 357.258217283 1266 300.369348138 1274.22802164 259.997869037 1289.76383175 c 1
 257.171100283 1229.91381838 244.157037653 1182.49144681 220.975033044 1141.47959409 c 2
 215.891771062 1132.48667068 l 1
 207.068650274 1137.8592644 l 1
 131.523728399 1183.86024097 l 1
 123.189323272 1188.9352449 l 1
 128.058646177 1197.39146557 l 2
EndSplineSet
EndChar

StartChar: uni0611
Encoding: 10 1553 424
Width: 0
VWidth: 2712
Flags: HW
AnchorPoint: "Anchor-10" 496.924 1247.86 mark 0
AnchorPoint: "Anchor-9" 496.924 1247.86 mark 0
AnchorPoint: "Anchor-1" 534.091 1790.26 basemark 0
AnchorPoint: "Anchor-1" 496.924 1247.86 mark 0
LayerCount: 2
Fore
SplineSet
263.475198259 1265.18554688 m 1
 260.146460388 1217.70801944 244.200955022 1172.75011983 221.099056482 1131.87998472 c 2
 216.0157945 1122.88706132 l 1
 207.192673713 1128.25965503 l 1
 131.647751837 1174.26063159 l 1
 123.313346709 1179.33563552 l 1
 128.182669614 1187.79185619 l 2
 147.079409941 1220.60853509 157.044130406 1263.52669275 157.223632812 1316.9172009 c 0
 157.223632812 1377.16560385 141.695934008 1438.29772116 112.982156025 1498.45190234 c 2
 107.895744791 1509.05584442 l 1
 118.527319495 1512.70456709 l 1
 203.872046057 1541.99460615 l 1
 213.509165187 1545.30203482 l 1
 216.635713659 1535.60472364 l 1
 246.431608031 1443.18969719 l 2
 260.292367969 1400.19932177 275.593870722 1384.18532885 290.025663775 1381.9469823 c 2
 363.827172559 1382.15038879 l 1
 337.74264673 1417.65206842 316.903320312 1456.75844518 316.903320312 1515.58007812 c 0
 316.903320312 1644.2957327 406.713786657 1753.57714844 550.048828125 1753.57714844 c 0
 628.328627897 1753.57714844 691.668374086 1727.69439511 742.03678845 1676.7662641 c 2
 746.857262994 1671.89222226 l 1
 744.049451433 1665.63846715 l 1
 708.475232683 1586.40506871 l 1
 703.16307653 1574.57346145 l 1
 693.071346684 1582.71980555 l 2
 649.463566723 1617.92130089 608.488891247 1634.97635207 567.236870955 1635.47949219 c 0
 485.684781664 1635.47949219 428.533203125 1580.50715018 428.533203125 1512.34570312 c 0
 428.533203125 1494.29378008 437.397247269 1436.43647491 505.28139086 1406.03964446 c 0
 509.133785903 1404.11344694 515.971411498 1402.34230045 518.595959807 1402.94768406 c 2
 749.189038658 1461.13551633 l 1
 761.635742188 1464.27631614 l 1
 761.635742188 1451.43945312 l 1
 761.635742188 1354.41894531 l 1
 761.635742188 1347.05876413 l 1
 754.60824392 1344.870949 l 2
 582.549698815 1291.30533094 434.778022376 1265.18554688 290.548828125 1265.18554688 c 2
 263.475198259 1265.18554688 l 1
EndSplineSet
EndChar

StartChar: uni0612
Encoding: 11 1554 425
Width: 0
VWidth: 2712
Flags: HW
AnchorPoint: "Anchor-10" 517.924 962.86 mark 0
AnchorPoint: "Anchor-9" 517.924 962.86 mark 0
AnchorPoint: "Anchor-1" 522.091 1913.26 basemark 0
AnchorPoint: "Anchor-1" 517.924 962.86 mark 0
LayerCount: 2
Fore
SplineSet
461.255859375 987.858398438 m 2
 237.563306225 987.858398438 76.7412109375 1080.57054137 76.7412109375 1285.44238281 c 0
 76.7412109375 1460.90393479 210.748578553 1606.89860649 457.0481862 1671.10957417 c 1
 451.235120988 1673.4862888 444.869712167 1676.09646272 436.176920532 1679.66690953 c 0
 362.404612937 1709.17505172 315.049360446 1727.59375 293.407226562 1727.59375 c 0
 256.194247773 1727.59375 216.953039624 1702.49193831 191.441626786 1669.17199104 c 2
 176.668827035 1650.02188446 l 1
 171.65469952 1643.5220281 l 1
 164.302544536 1647.17379815 l 1
 81.7449273486 1688.17965753 l 1
 72.2127946145 1692.91420908 l 1
 77.5315827696 1702.1331041 l 1
 85.7995404314 1716.46370564 l 2
 133.198099485 1793.76907431 207.167641012 1844.91308594 293.954101562 1844.91308594 c 0
 342.885968652 1844.91308594 399.129745554 1822.75011294 463.982649625 1791.42167301 c 0
 576.893455186 1736.33075568 643.896467572 1713.56565632 704.528809333 1710.40243451 c 2
 714.759833287 1709.8686765 l 1
 713.978703281 1699.653561 l 1
 706.871281406 1606.70727194 l 1
 706.21991076 1598.18906585 l 1
 697.704500697 1597.50210864 l 2
 406.366035354 1573.99918183 187.499023438 1448.79691858 187.499023438 1294.18945312 c 0
 187.499023438 1166.08808595 276.715997484 1101.35058594 468.909179688 1101.35058594 c 2
 479.761234809 1101.35058594 l 1
 478.875841414 1090.5347097 l 1
 471.222521101 997.042522196 l 1
 470.470703834 987.858398438 l 1
 461.255859375 987.858398438 l 2
886.915828657 1610.11467932 m 2
 916.914511376 1535.67265841 932.47265625 1455.95833575 932.47265625 1392.05566406 c 0
 932.47265625 1188.87452877 812.062257967 1064.06945706 578.801370269 1019.74512819 c 2
 570.634587117 1018.19327273 l 1
 567.616780725 1025.93907463 l 1
 534.813069788 1110.13634025 l 1
 530.444480048 1121.34919697 l 1
 542.267548041 1123.59147158 l 2
 730.061082581 1159.20698819 820.118128841 1247.66654331 821.16796875 1389.35931146 c 0
 821.16796875 1437.25180861 807.22390391 1506.38134304 779.865061286 1570.75458311 c 2
 775.719636646 1580.50844658 l 1
 785.697644683 1584.08080624 l 1
 874.269910308 1615.79174374 l 1
 883.322069308 1619.03262785 l 1
 886.915828657 1610.11467932 l 2
EndSplineSet
EndChar

StartChar: uni06DC
Encoding: 123 1756 426
Width: 0
VWidth: 2712
Flags: HW
AnchorPoint: "Anchor-10" 556.924 1187.86 mark 0
AnchorPoint: "Anchor-9" 556.924 1187.86 mark 0
AnchorPoint: "Anchor-1" 558.091 1694.26 basemark 0
AnchorPoint: "Anchor-1" 556.924 1187.86 mark 0
LayerCount: 2
Fore
SplineSet
498.709960938 1265.60546875 m 0
 465.090832112 1265.60546875 437.095102549 1272.65121068 414.013915849 1286.01486359 c 1
 403.732084383 1102.79608479 283.729546269 1006.77539062 95.5322265625 1006.77539062 c 0
 -115.295739757 1006.77539062 -224.566406248 1107.02986853 -224.56640625 1303.47851562 c 0
 -224.56640625 1374.38942314 -208.970644742 1447.61559545 -179.223542982 1520.31454646 c 2
 -175.231469891 1530.02843434 l 1
 -166.003271362 1526.27772291 l 1
 -88.8519041741 1494.92030103 l 1
 -79.8116128518 1491.24596266 l 1
 -83.2638618767 1482.11855304 l 2
 -107.151014308 1418.96325246 -118.953125 1360.25981684 -118.953125 1305.96777344 c 0
 -118.953125 1176.18145082 -49.1565682755 1112.88574219 99.0166015625 1112.88574219 c 0
 242.995919179 1112.88574219 312.18448015 1181.80938552 312.505859375 1325.37988281 c 0
 312.505859375 1383.76523469 298.017146865 1443.46955517 268.689277172 1504.73183272 c 2
 263.839536176 1514.86233936 l 1
 274.462830139 1518.50826559 l 1
 358.582947326 1547.37838278 l 1
 368.220293077 1550.6859305 l 1
 371.346715582 1540.98831289 l 1
 400.71284846 1449.89968781 l 2
 417.119498134 1399.01355318 446.080010748 1375.66222543 499.748122453 1375.20019531 c 0
 559.492095269 1375.20019531 581.7890625 1405.08598716 581.7890625 1469.22949219 c 0
 581.7890625 1484.54070486 580.149532814 1514.05190812 576.840978581 1557.06311313 c 2
 576.106930447 1566.60573887 l 1
 584.81865285 1567.6617115 l 1
 667.737108962 1577.71249322 l 1
 678.173099829 1578.97746933 l 1
 678.915463942 1568.49133727 l 1
 686.880829425 1455.97765721 l 2
 690.207982746 1407.49801203 710.871525557 1375.20019531 755.548828125 1375.20019531 c 0
 792.554642339 1375.20019531 814.736328125 1403.56705293 814.736328125 1475.70117188 c 0
 814.736328125 1509.85108946 807.648616769 1552.87372896 793.205956487 1604.40787656 c 2
 790.476079966 1614.14859308 l 1
 800.247635797 1616.76593539 l 1
 883.869706109 1639.16437289 l 1
 893.12907995 1641.64452562 l 1
 895.99849407 1632.49829011 l 2
 912.188077325 1580.89411756 920.348632813 1531.09397531 920.348632812 1483.16699219 c 0
 920.348632812 1367.64393019 877.638656772 1266.13821088 756.068785839 1265.60546875 c 0
 701.370148936 1265.60546875 660.324543421 1287.04928044 634.214862384 1328.6814826 c 1
 598.898205608 1286.47169591 553.561953824 1265.60546875 498.709960938 1265.60546875 c 0
EndSplineSet
EndChar

StartChar: uni220E
Encoding: 149 8718 429
Width: 970
Flags: HW
LayerCount: 2
Fore
SplineSet
140 60 m 1
 140 904 l 1
 140 964 l 1
 200 964 l 1
 770 964 l 1
 830 964 l 1
 830 904 l 1
 830 60 l 1
 830 0 l 1
 770 0 l 1
 200 0 l 1
 140 0 l 1
 140 60 l 1
EndSplineSet
EndChar

StartChar: uni06AD.fina
Encoding: 432 64468 431
Width: 1891
VWidth: 2950
Flags: HW
AnchorPoint: "Anchor-10" 916.11 1300.05 basechar 0
AnchorPoint: "Anchor-7" 900.268 -166.468 basechar 0
LayerCount: 2
Fore
SplineSet
709.682617188 662.905273438 m 2
 772.1171875 655.856445312 795.083007812 652 839 652 c 0
 944.650390625 652 1010 654.338867188 1010 720 c 0
 1010 768.772460938 990.336914062 772.700195312 921.934570312 773 c 0
 826.796875 773.41796875 738 825.61328125 738 969 c 0
 738 1087.12792969 815.647460938 1175.578125 972.252929688 1175.578125 c 0
 1006.00488281 1175.578125 1043.40136719 1172.06445312 1084.61425781 1164.77050781 c 2
 1097 1162.578125 l 1
 1097 1150 l 1
 1097 1055 l 1
 1097 1037.76171875 l 1
 1079.92675781 1040.14355469 l 2
 1039.67675781 1045.76074219 1005.39550781 1048.39941406 976.748046875 1048.39941406 c 0
 884.850585938 1048.39941406 857 1013.77832031 857 978 c 0
 857 933.07421875 872.52734375 907.364257812 940.081054688 907 c 0
 1074.18164062 906.278320312 1128 848.525390625 1128 724 c 0
 1128 569.8671875 1030.63378906 524 846 524 c 0
 792.799804688 524 771.07421875 529.272460938 705.752929688 539.168945312 c 2
 693 541.1015625 l 1
 693 554 l 1
 693 648 l 1
 693 664.7890625 l 1
 709.682617188 662.905273438 l 2
978 300 m 2
 1450 300 1454 384 1454 530 c 2
 1454 1306 l 1
 1454 1366 l 1
 1514 1366 l 1
 1683 1366 l 1
 1743 1366 l 1
 1743 1306 l 1
 1743 532 l 2
 1743 337 1753 300 1876 300 c 2
 1911 300 l 1
 1911 240 l 1
 1911 60 l 1
 1911 0 l 1
 1878 0 l 2
 1723 0 1619 42 1562 138 c 1
 1421 26 1279 0 985 0 c 2
 840 0 l 2
 353 0 38 173 38 544 c 0
 38 642 60 736 97 822 c 2
 119 874 l 1
 173 854 l 1
 326 797 l 1
 382 776 l 1
 361 720 l 2
 342 670 333 619 333 569 c 0
 334 401 466 300 830 300 c 2
 978 300 l 2
EndSplineSet
Refer: 266 -1 N 1 0 0 1 703 1359 2
EndChar

StartChar: uni06AD.init
Encoding: 433 64469 432
Width: 950
VWidth: 2950
Flags: HW
AnchorPoint: "Anchor-10" 455.533 2274.15 basechar 0
AnchorPoint: "Anchor-7" 310.991 -173.935 basechar 0
LayerCount: 2
Fore
SplineSet
331.880859375 1027.359375 m 1
 543.256201243 844.484079227 786 726.307304217 786 416 c 0
 786 129.305664062 566.862304688 0 166 0 c 2
 -20 0 l 1
 -20 60 l 1
 -20 240 l 1
 -20 300 l 1
 165 300 l 2
 441.859375 300 491 360.172851562 491 433 c 0
 491 475.75 467.622070312 526.201171875 404.982421875 585.209960938 c 0
 304.112304688 679.157226562 213.5703125 738.6796875 136.041992188 799.733398438 c 0
 52.8603515625 864.30859375 0 941.84765625 0 1032 c 0
 0 1053.09960938 2.3076171875 1073.76660156 7.173828125 1093.67578125 c 0
 27.6025390625 1177.26855469 90 1237 177.897460938 1269.16699219 c 2
 889 1533.99707031 l 1
 889 1447.73925781 l 1
 889 1276.73925781 l 1
 889 1235 l 1
 331.880859375 1027.359375 l 1
EndSplineSet
Refer: 266 -1 N 1 0 0 1 203 1619 2
EndChar

StartChar: uni06AD.medi
Encoding: 434 64470 433
Width: 1027
VWidth: 2950
Flags: HW
AnchorPoint: "Anchor-10" 439.533 2258.15 basechar 0
AnchorPoint: "Anchor-7" 310.991 -173.935 basechar 0
LayerCount: 2
Fore
SplineSet
670 145 m 1
 567 42 410 0 166 0 c 2
 -20 0 l 1
 -20 60 l 1
 -20 240 l 1
 -20 300 l 1
 165 300 l 2
 442 300 491 360 491 433 c 0
 491 476 468 526 405 585 c 0
 304 679 214 739 136 800 c 0
 53 865 0 942 0 1032 c 0
 0 1053 2 1074 7 1094 c 0
 27 1178 91 1237 178 1269 c 2
 889 1534 l 1
 889 1448 l 1
 889 1277 l 1
 889 1235 l 1
 332 1027 l 1
 557.986407032 832.585223362 690.504704365 778.810246499 785 512 c 0
 839 358 916 300 1018 300 c 2
 1047 300 l 1
 1047 240 l 1
 1047 60 l 1
 1047 0 l 1
 1018 0 l 2
 879 0 761 52 670 145 c 1
EndSplineSet
Refer: 266 -1 N 1 0 0 1 203 1619 2
EndChar

